<svg width="167" height="79" viewBox="0 0 167 79" fill="none" xmlns="http://www.w3.org/2000/svg">
<path fill-rule="evenodd" clip-rule="evenodd" d="M27.608 47.5779V61.456L18.456 47.536H12.984V70H18.456V56.144L27.608 70H33.08V51.1212C32.6547 51.3388 32.3706 51.4791 32.1665 51.5697C32.0875 51.6096 32.0064 51.6423 31.9238 51.6678C31.759 51.7253 31.6624 51.7333 31.5386 51.7344C31.5177 51.7353 31.4968 51.7357 31.4759 51.7357C31.3003 51.7357 31.1239 51.7051 30.9526 51.6436C30.6434 51.5323 30.3856 51.3325 30.2051 51.0684L28.9058 49.3252L27.6914 47.6959C27.6619 47.6581 27.634 47.6187 27.608 47.5779ZM44.0865 78.48L55.2865 52.144H49.3665L45.2705 63.312L41.1425 52.144H35.0305L42.2945 69.392L38.1985 78.48H44.0865ZM60.6573 69.136C62.0653 69.8827 63.6439 70.256 65.3933 70.256C67.1426 70.256 68.7213 69.8827 70.1293 69.136C71.5586 68.3893 72.6786 67.3227 73.4893 65.936C74.3213 64.528 74.7373 62.9067 74.7373 61.072C74.7373 59.2373 74.3319 57.6267 73.5213 56.24C72.7106 54.832 71.6013 53.7547 70.1933 53.008C68.7853 52.2613 67.2066 51.888 65.4573 51.888C63.7079 51.888 62.1293 52.2613 60.7213 53.008C59.3133 53.7547 58.2039 54.832 57.3933 56.24C56.5826 57.6267 56.1773 59.2373 56.1773 61.072C56.1773 62.928 56.5719 64.5493 57.3613 65.936C58.1719 67.3227 59.2706 68.3893 60.6573 69.136ZM68.0493 64.368C67.3239 65.136 66.4386 65.52 65.3933 65.52C64.3479 65.52 63.4733 65.136 62.7693 64.368C62.0866 63.6 61.7453 62.5013 61.7453 61.072C61.7453 59.6213 62.0973 58.5227 62.8013 57.776C63.5053 57.008 64.3906 56.624 65.4573 56.624C66.5026 56.624 67.3773 57.008 68.0813 57.776C68.8066 58.544 69.1693 59.6427 69.1693 61.072C69.1693 62.5013 68.7959 63.6 68.0493 64.368ZM80.7443 69.456C81.9603 69.9893 83.3469 70.256 84.9043 70.256C86.3549 70.256 87.6243 70.0213 88.7123 69.552C89.8216 69.0827 90.6643 68.4427 91.2403 67.632C91.8376 66.8 92.1363 65.8613 92.1363 64.816C92.1149 63.5787 91.7843 62.5973 91.1443 61.872C90.5256 61.1253 89.8003 60.592 88.9683 60.272C88.1363 59.9307 87.0589 59.5893 85.7363 59.248C84.5843 58.992 83.7309 58.736 83.1763 58.48C82.6429 58.224 82.3763 57.84 82.3763 57.328C82.3763 56.9013 82.5469 56.5707 82.8883 56.336C83.2296 56.08 83.7203 55.952 84.3603 55.952C85.1069 55.952 85.7043 56.1333 86.1523 56.496C86.6216 56.8587 86.8989 57.3493 86.9843 57.968H92.0403C91.8483 56.1333 91.1016 54.6613 89.8003 53.552C88.5203 52.4427 86.7603 51.888 84.5203 51.888C83.0056 51.888 81.6936 52.1333 80.5843 52.624C79.4963 53.1147 78.6643 53.7867 78.0883 54.64C77.5336 55.472 77.2563 56.4 77.2563 57.424C77.2563 58.64 77.5656 59.6107 78.1843 60.336C78.8029 61.04 79.5389 61.5627 80.3923 61.904C81.2456 62.224 82.3123 62.5333 83.5923 62.832C84.7869 63.1307 85.6509 63.408 86.1843 63.664C86.7176 63.8987 86.9843 64.272 86.9843 64.784C86.9843 65.2107 86.7923 65.5627 86.4083 65.84C86.0456 66.096 85.5229 66.224 84.8403 66.224C84.0936 66.224 83.4643 66.032 82.9523 65.648C82.4403 65.264 82.1523 64.7627 82.0883 64.144H76.6803C76.7656 65.296 77.1603 66.3413 77.8643 67.28C78.5683 68.1973 79.5283 68.9227 80.7443 69.456ZM123.548 53.968C122.247 52.624 120.487 51.952 118.268 51.952C117.009 51.952 115.847 52.2613 114.78 52.88C113.713 53.4987 112.871 54.2987 112.252 55.28C111.655 54.2133 110.823 53.392 109.756 52.816C108.711 52.24 107.516 51.952 106.172 51.952C105.041 51.952 104.028 52.176 103.132 52.624C102.236 53.0507 101.511 53.6373 100.956 54.384V52.144H95.484V70H100.956V60.304C100.956 59.152 101.255 58.2667 101.852 57.648C102.471 57.008 103.313 56.688 104.38 56.688C105.447 56.688 106.279 57.008 106.876 57.648C107.495 58.2667 107.804 59.152 107.804 60.304V70H113.244V60.304C113.244 59.152 113.543 58.2667 114.14 57.648C114.759 57.008 115.601 56.688 116.668 56.688C117.735 56.688 118.567 57.008 119.164 57.648C119.783 58.2667 120.092 59.152 120.092 60.304V70H125.532V59.568C125.532 57.1787 124.871 55.312 123.548 53.968ZM146.095 62.384C146.159 61.8293 146.191 61.296 146.191 60.784C146.191 58.992 145.807 57.424 145.039 56.08C144.292 54.736 143.247 53.7013 141.903 52.976C140.559 52.2507 139.023 51.888 137.295 51.888C135.524 51.888 133.956 52.2613 132.591 53.008C131.226 53.7547 130.159 54.8213 129.391 56.208C128.644 57.5947 128.271 59.216 128.271 61.072C128.271 62.928 128.655 64.5493 129.423 65.936C130.191 67.3227 131.258 68.3893 132.623 69.136C133.988 69.8827 135.546 70.256 137.295 70.256C138.746 70.256 140.058 69.9893 141.231 69.456C142.404 68.9227 143.375 68.1867 144.143 67.248C144.932 66.3093 145.476 65.2533 145.775 64.08H139.951C139.418 65.232 138.468 65.808 137.103 65.808C136.186 65.808 135.407 65.52 134.767 64.944C134.148 64.3467 133.796 63.4933 133.711 62.384H146.095ZM139.631 57.104C140.271 57.6587 140.591 58.4053 140.591 59.344H133.743C133.892 58.3627 134.276 57.6053 134.895 57.072C135.535 56.5387 136.314 56.272 137.231 56.272C138.191 56.272 138.991 56.5493 139.631 57.104ZM149.014 56.208C148.331 57.5947 147.99 59.2053 147.99 61.04C147.99 62.8747 148.331 64.496 149.014 65.904C149.718 67.2907 150.667 68.368 151.862 69.136C153.056 69.8827 154.39 70.256 155.862 70.256C157.12 70.256 158.219 70 159.158 69.488C160.118 68.976 160.854 68.2933 161.366 67.44V70H166.838V46.32H161.366V54.608C160.811 53.776 160.043 53.1147 159.062 52.624C158.102 52.1333 157.035 51.888 155.862 51.888C154.39 51.888 153.056 52.2613 151.862 53.008C150.667 53.7547 149.718 54.8213 149.014 56.208ZM160.214 57.84C160.982 58.6293 161.366 59.7067 161.366 61.072C161.366 62.4373 160.982 63.5147 160.214 64.304C159.467 65.0933 158.55 65.488 157.462 65.488C156.374 65.488 155.446 65.0933 154.678 64.304C153.931 63.4933 153.558 62.4053 153.558 61.04C153.558 59.6747 153.931 58.608 154.678 57.84C155.446 57.0507 156.374 56.656 157.462 56.656C158.55 56.656 159.467 57.0507 160.214 57.84Z" fill="#FF6D6D"/>
<g clip-path="url(#clip0_50_2)">
<path d="M59.453 23.8232L30.0447 15.9582C28.3546 15.5063 26.4097 16.4521 25.7222 18.06L17.6347 36.9735C17.0068 38.442 17.7489 40.0072 19.2836 40.4517L26.0873 42.4225C26.3999 42.513 26.6886 42.6717 26.9326 42.8871C27.1765 43.1025 27.3696 43.3693 27.4981 43.6682L30.1241 49.7758C30.4599 50.5571 31.3875 50.8907 32.1445 50.5026L39.2487 46.8597C39.7486 46.6032 40.3278 46.5474 40.8676 46.7037L49.5944 49.2315C51.379 49.7484 53.382 48.7527 54.0458 47.0184L61.4374 27.7078C62.078 26.0342 61.185 24.2864 59.453 23.8232Z" fill="#FF6D6D"/>
<path d="M31.4759 50.7357C31.3003 50.7357 31.1239 50.7051 30.9526 50.6436C30.547 50.4977 30.2299 50.1994 30.0598 49.8035L27.4338 43.6958C27.3099 43.4061 27.123 43.1476 26.8867 42.939C26.6504 42.7304 26.3707 42.5769 26.0678 42.4897L19.2641 40.519C18.5023 40.2983 17.9059 39.8038 17.5848 39.1265C17.2638 38.4493 17.2587 37.6749 17.5703 36.9462L25.6577 18.0327C26.3602 16.3899 28.3362 15.4292 30.0627 15.8909L59.471 23.7558C60.3281 23.985 61.0122 24.5264 61.3972 25.2801C61.7821 26.0337 61.8196 26.9048 61.5026 27.7329L54.1111 47.0434C53.4329 48.8151 51.3979 49.8269 49.5748 49.2987L40.8511 46.7718C40.3234 46.619 39.7667 46.6725 39.2805 46.9219L32.1763 50.5647C31.9548 50.6784 31.7161 50.7357 31.4759 50.7357ZM29.1664 15.9144C27.7541 15.9144 26.3478 16.7747 25.7864 18.0875L17.6991 37.001C17.4034 37.6925 17.4077 38.4261 17.7114 39.0666C18.015 39.7072 18.5803 40.1753 19.3031 40.3846L26.1068 42.3553C26.4296 42.4483 26.7277 42.6118 26.9794 42.8341C27.2312 43.0564 27.4303 43.3319 27.5624 43.6406L30.1883 49.7482C30.343 50.108 30.6313 50.3793 31 50.5119C31.3688 50.6446 31.7639 50.6191 32.1126 50.4404L39.2168 46.7976C39.7324 46.5321 40.3303 46.4745 40.8871 46.6366L49.6139 49.1643C51.3688 49.6729 53.3278 48.6989 53.9806 46.9934L61.3721 27.6828C61.6748 26.8922 61.6395 26.0615 61.2728 25.3435C60.9061 24.6255 60.2534 24.1096 59.4351 23.8907L30.0266 16.0259C29.746 15.9513 29.4568 15.9138 29.1664 15.9144Z" fill="#670A39"/>
<path d="M61.4377 27.7075C59.5733 32.5783 55.9366 42.0792 54.0458 47.0183C53.3818 48.753 51.3787 49.7484 49.5944 49.2316C46.2808 48.2714 42.5111 47.1798 40.8679 46.7034C40.328 46.5473 39.7489 46.6033 39.2489 46.8598L32.1443 50.5024C31.9375 50.6088 31.7084 50.6644 31.4758 50.6647C31.0211 50.6647 30.5811 50.4525 30.3013 50.0803C30.2998 50.0781 30.1962 49.9394 30.0317 49.7185C29.3743 48.8361 27.7428 46.6477 27.7355 46.6381L28.5927 46.2145L27.4982 43.6686C27.3699 43.3696 27.1768 43.1027 26.9327 42.8873C26.6887 42.6718 26.3999 42.5132 26.0871 42.4228C23.8783 41.7826 21.6203 41.1285 19.2837 40.4517C18.6703 40.2741 18.1848 39.9173 17.8616 39.4599H17.8609L15.3502 36.091L58.5105 21.4551L61.0316 24.8401L61.0308 24.8408C61.6426 25.6109 61.8336 26.6731 61.4377 27.7075Z" fill="#DF5468"/>
<path d="M60.0236 31.4023C59.8525 31.8493 59.6762 32.3089 59.497 32.778L51.2126 21.433L51.7253 20.0389L60.0236 31.4023ZM60.4181 30.3701C60.3579 30.5286 60.2962 30.6894 60.2345 30.8524L54.3918 22.8521L54.8215 22.706L60.4181 30.3701ZM61.0557 28.7066C61.0175 28.8052 60.9796 28.9038 60.9418 29.0024L56.7872 23.3131V22.8616L61.0557 28.7066ZM53.9327 47.2811C53.8639 47.4238 53.7851 47.5614 53.6969 47.6929L44.52 35.1257V34.3916L53.9327 47.2811ZM54.2691 46.4355C54.2309 46.536 54.1927 46.6344 54.156 46.7313L48.6806 39.2338V38.7831L54.2691 46.4355Z" fill="#ED7981"/>
<path d="M53.4148 48.0637C52.4958 49.123 50.979 49.6325 49.5944 49.2317C46.2808 48.2714 42.5111 47.1798 40.8678 46.7034C40.328 46.5473 39.7488 46.6033 39.2489 46.8598L32.1442 50.5024C31.9375 50.6088 31.7083 50.6645 31.4758 50.6647C31.021 50.6647 30.5811 50.4525 30.3012 50.0804L27.7354 46.6381C27.7354 46.6381 26.3869 43.1899 26.0871 42.4228C23.8783 41.7826 21.6202 41.1286 19.2836 40.4517C18.6703 40.2741 18.1847 39.9173 17.8616 39.4599H17.8608L15.3927 36.1483L15.3501 36.0911L22.2087 33.7654L45.8621 37.7215L53.4148 48.0637Z" fill="#DF5468"/>
<path d="M47.1513 48.5233C46.9618 48.4675 46.7774 48.4139 46.5989 48.3625L39.9013 39.1912V38.5951L47.1513 48.5233ZM45.7269 48.1092C44.2123 47.668 43.1435 47.3568 42.3833 47.1373H42.3825L35.8876 38.2435L38.103 37.6679L45.7269 48.1092Z" fill="#ED7981"/>
<path d="M52.9021 48.5505C51.9876 49.2691 50.7454 49.565 49.5944 49.2317C49.587 49.2295 49.5797 49.2273 49.5723 49.2252L44.6655 42.5066L47.7741 41.528L52.9021 48.5505ZM39.318 46.826C39.2945 46.8371 39.2717 46.848 39.2489 46.8598L38.5467 47.2195L33.3423 49.888L32.1442 50.5024C32.1039 50.523 32.0627 50.5414 32.0215 50.5582L28.2246 45.3585L26.079 42.4206C23.8731 41.7812 21.6173 41.1278 19.2836 40.4517C18.6702 40.2741 18.1846 39.9173 17.8615 39.4599H17.8607L15.3926 36.1483L15.35 36.0911L22.2086 33.7654L32.0788 36.914L39.318 46.826Z" fill="#AF4357"/>
<path d="M28.3951 44.6391L27.9125 44.6325L27.4982 43.6686C27.3698 43.3696 27.1767 43.1027 26.9327 42.8873C26.6887 42.6718 26.3999 42.5132 26.0871 42.4228C23.8783 41.7826 21.6202 41.1286 19.2836 40.4517C18.6703 40.2741 18.1847 39.9173 17.8616 39.4599H17.8608L15.3927 36.1483L16.1382 36.1402C16.1382 36.1402 17.5185 38.2273 18.0429 38.9533C18.2854 39.2888 18.7055 39.8254 19.6619 40.1029L26.2097 41.9991C26.9722 42.2201 27.5892 42.7648 27.9029 43.4945L28.3951 44.6391Z" fill="#DF5468"/>
<path d="M61.4377 27.7075C60.2124 30.9097 58.2203 36.1124 56.4625 40.7043C56.0908 41.6762 55.7287 42.621 55.3879 43.5137C54.8876 44.819 54.4308 46.0134 54.0458 47.0184C53.3818 48.7531 51.3787 49.7485 49.5944 49.2317C46.2808 48.2715 42.5111 47.1799 40.8679 46.7035C40.328 46.5474 39.7489 46.6034 39.2489 46.8599L32.1443 50.5025C31.9375 50.6089 31.7084 50.6645 31.4758 50.6648C31.0211 50.6648 30.5812 50.4526 30.3013 50.0804C30.2998 50.0782 30.1963 49.9395 30.0317 49.7185C30.6062 50.4762 31.3033 50.4137 31.9431 50.1106C33.7692 49.2458 39.0477 46.4679 39.0477 46.4679C39.4213 46.2767 39.8349 46.1768 40.2546 46.1765C40.5036 46.1765 40.7512 46.2117 40.9907 46.2807L49.7172 48.809C49.993 48.8881 50.2786 48.9281 50.5656 48.9279C51.2363 48.9279 51.887 48.7157 52.4284 48.3508C52.9698 47.986 53.4017 47.4691 53.6346 46.8613L55.078 43.091L55.8816 40.9907L61.0257 27.5505C61.3504 26.7019 61.2138 25.7989 60.6856 25.1147C60.0209 24.2536 58.0758 21.6336 58.0758 21.6336L58.0537 21.6101L58.5106 21.4552L61.0316 24.8402L61.0309 24.8409C61.6426 25.6109 61.8336 26.6732 61.4377 27.7075Z" fill="#ED7981"/>
<path d="M56.4625 40.7043C56.0908 41.6762 55.7287 42.621 55.3879 43.5137L54.1512 41.9866L56.4625 40.7043Z" fill="#670A39"/>
<path d="M55.3879 43.5836C55.3774 43.5836 55.3672 43.5812 55.3577 43.5768C55.3483 43.5723 55.3401 43.5657 55.3335 43.5576L54.0968 42.0305C54.0838 42.0145 54.0786 41.9935 54.0825 41.9733C54.0865 41.953 54.0992 41.9355 54.1172 41.9255L56.4286 40.6431C56.4411 40.6361 56.4555 40.6332 56.4698 40.6347C56.4841 40.6362 56.4975 40.642 56.5084 40.6513C56.5306 40.6706 56.5384 40.7017 56.5279 40.7291L56.1101 41.821C55.8848 42.4096 55.6649 42.9841 55.4533 43.5385C55.4482 43.5517 55.4393 43.5631 55.4276 43.5712C55.4159 43.5792 55.4021 43.5836 55.3879 43.5836ZM54.2579 42.0073L55.3658 43.3753C55.5641 42.856 55.7693 42.3196 55.9793 41.771L56.3286 40.8584L54.2579 42.0073Z" fill="#670A39"/>
<path d="M31.4758 50.7346C30.9936 50.7346 30.5337 50.5057 30.2453 50.1223L28.9058 48.3251L27.6795 46.68C27.6757 46.6749 27.6725 46.6692 27.6702 46.6633C27.66 46.6367 26.6461 44.0114 26.0349 42.4805C24.3794 42.0007 22.6992 41.514 20.9792 41.0157L19.2642 40.5189C18.6584 40.3434 18.1556 39.9937 17.8094 39.5074C17.8078 39.5055 17.8062 39.5037 17.8047 39.5017L17.7847 39.4748L15.294 36.1329C15.2874 36.124 15.283 36.1137 15.2812 36.1029C15.2794 36.092 15.2801 36.0808 15.2834 36.0703C15.2867 36.0598 15.2924 36.0502 15.3001 36.0423C15.3078 36.0344 15.3172 36.0284 15.3276 36.0249L58.488 21.3889C58.5167 21.3794 58.5485 21.3891 58.5666 21.4134L61.0877 24.7984C61.0897 24.8011 61.0915 24.8039 61.093 24.8068C61.7379 25.6254 61.8913 26.7181 61.5031 27.7325C61.3754 28.0654 61.2481 28.3984 61.1212 28.7315C61.0836 28.8287 61.0454 28.9278 61.0073 29.0275L60.9083 29.2862C60.7722 29.642 60.6305 30.0124 60.4835 30.3952L60.4062 30.5983C60.371 30.6905 60.3355 30.7834 60.3 30.8771C60.2301 31.058 60.1596 31.2415 60.0891 31.427L59.9174 31.8754C59.8008 32.1798 59.6823 32.4892 59.5624 32.8029L57.314 38.6766C56.3206 41.2712 55.3275 43.8657 54.3346 46.4604L54.1112 47.0433C54.0764 47.1342 54.0379 47.2237 53.9958 47.3115C53.9255 47.4571 53.8451 47.5976 53.7551 47.7319C52.8526 49.0941 51.085 49.7505 49.5524 49.292L48.8794 49.0967C48.252 48.9147 47.6724 48.7465 47.1367 48.5915C46.6609 48.4512 46.1846 48.3128 45.7077 48.1763C44.1956 47.7358 43.1281 47.4249 42.3681 47.2054C42.3664 47.2051 42.3648 47.2047 42.3631 47.2043C40.5441 46.6786 40.4964 46.6801 40.2951 46.6853C40.2773 46.6858 40.2582 46.6863 40.2369 46.6865C39.6904 46.6917 39.3245 46.8905 38.9707 47.0828C38.843 47.1522 38.7108 47.224 38.5747 47.2834C37.2132 47.9818 35.8535 48.6838 34.4956 49.3893C31.9033 50.7346 31.9033 50.7346 31.4758 50.7346ZM27.7972 46.604L29.0179 48.2417C29.6742 49.122 30.35 50.0289 30.3572 50.0383C30.6191 50.3867 31.0373 50.5948 31.4758 50.5948C31.8655 50.5948 31.8931 50.5823 34.431 49.2653C35.3873 48.769 36.697 48.0894 38.5147 47.1573C38.6492 47.0983 38.7729 47.0312 38.9038 46.9601C39.2727 46.7597 39.6541 46.5524 40.2354 46.5469C40.2559 46.5467 40.2741 46.5462 40.2913 46.5457C40.5152 46.5393 40.5618 46.5384 42.3977 47.0688C42.3994 47.0692 42.4011 47.0695 42.4027 47.07C43.163 47.2896 44.2318 47.6009 45.7466 48.0421C46.022 48.1213 46.3129 48.2058 46.6186 48.2954C46.7956 48.3463 46.9787 48.3996 47.1669 48.455L47.1714 48.4561C47.7084 48.6114 48.2894 48.78 48.9183 48.9625L49.5918 49.158C51.0676 49.5991 52.7691 48.9669 53.6385 47.6544C53.725 47.5254 53.8022 47.3905 53.8696 47.2507C53.9101 47.1664 53.9471 47.0805 53.9805 46.9931L54.2037 46.4106C55.013 44.2955 56.0819 41.5034 57.1832 38.6266L59.4316 32.753C59.5515 32.4393 59.67 32.1298 59.7866 31.8254L59.9583 31.3773C60.0288 31.1916 60.0993 31.0079 60.1691 30.8272C60.2045 30.7338 60.24 30.6408 60.2752 30.5484L60.3527 30.3454C60.4996 29.9624 60.6413 29.592 60.7775 29.2362L60.8764 28.9775C60.9147 28.8776 60.9529 28.7784 60.9904 28.6815C61.124 28.3308 61.2518 27.9968 61.3723 27.6825C61.7442 26.7109 61.596 25.6648 60.9759 24.8843C60.9729 24.8806 60.9704 24.8766 60.9682 24.8723L58.4846 21.5377L15.4636 36.1264L17.8193 39.2872L17.9119 39.4114C17.9144 39.4139 17.9166 39.4166 17.9187 39.4195C18.2465 39.8834 18.7252 40.2171 19.3031 40.3845L21.0181 40.8813C22.7479 41.3824 24.4374 41.8719 26.0986 42.3535C26.1193 42.3594 26.1441 42.3768 26.1521 42.3968C26.7444 43.8793 27.7309 46.4321 27.7972 46.604Z" fill="#670A39"/>
<path d="M18.563 31.8839C14.0646 30.1059 10.387 26.7578 8.20209 22.4622C6.64482 19.3995 5.91396 15.9639 6.08806 12.5268C6.09694 12.3436 6.14209 12.1641 6.2209 11.9985C6.29971 11.8329 6.41061 11.6846 6.54718 11.5622C6.82409 11.3126 7.18256 11.1848 7.55201 11.2039C7.92447 11.223 8.26749 11.3853 8.51726 11.662C8.76774 11.9387 8.89483 12.2955 8.87573 12.667C8.57895 18.5384 11.4158 24.2374 16.2779 27.5386C18.6152 29.1272 19.6157 29.1188 20.0762 29.614C21.1179 30.6761 19.9613 32.436 18.563 31.8839Z" fill="#DF5468"/>
<path d="M20.243 30.8084C20.2303 30.9149 20.2039 31.0192 20.1644 31.1189C19.911 31.7598 19.1852 32.074 18.5439 31.8207C17.2592 31.3135 16.0316 30.6723 14.8815 29.9076L14.8638 29.8967C10.0701 26.704 6.90487 21.5425 6.2592 15.7936C6.21731 15.2724 6.49058 14.6521 7.00622 14.5698C7.50647 14.4906 7.97434 14.8767 8.04561 15.5051C8.74416 21.6642 12.6101 27.0475 18.4528 29.6389C18.7166 29.7557 19.5642 30.2791 20.243 30.8084Z" fill="#FF6D6D"/>
<path d="M19.0892 32.0575C18.9058 32.0575 18.7202 32.021 18.5376 31.9488C10.6192 28.819 5.58808 21.0125 6.01839 12.5232C6.04839 11.9227 6.42064 11.4237 6.98993 11.2208C7.56054 11.0176 8.16578 11.1686 8.56951 11.6151C8.69891 11.7575 8.79876 11.9241 8.86327 12.1053C8.92778 12.2865 8.95567 12.4787 8.94532 12.6708C8.59014 19.7028 12.7075 26.2817 19.1907 29.0416C19.6373 29.2317 19.9325 29.3574 20.1269 29.5655C20.6956 30.1467 20.6209 30.9023 20.2945 31.3934C20.0182 31.8093 19.5677 32.0575 19.0892 32.0575ZM7.49521 11.2721C7.34336 11.2721 7.18878 11.2985 7.03686 11.3525C6.52199 11.536 6.18521 11.9873 6.15807 12.5303C5.73077 20.9597 10.7264 28.7112 18.5891 31.8189C18.7552 31.8845 18.9234 31.9178 19.0892 31.9178C19.5972 31.9178 19.9847 31.607 20.178 31.3161C20.4733 30.8718 20.541 30.1882 20.0264 29.6628L20.0252 29.6615C19.851 29.4747 19.5665 29.3536 19.1358 29.1703C12.5989 26.3874 8.44745 19.754 8.80557 12.6637C8.81494 12.49 8.78971 12.3162 8.73136 12.1523C8.67301 11.9884 8.58269 11.8377 8.46564 11.7089C8.2081 11.424 7.85949 11.2721 7.49521 11.2721Z" fill="#670A39"/>
<path d="M18.6174 31.7474C18.2024 31.5829 17.7609 31.4589 17.3158 31.3407C16.3403 30.8756 15.4023 30.3234 14.7698 29.8871C16.2132 30.376 17.3282 28.4857 16.2778 27.5387C17.2116 28.1734 18.1425 28.692 19.2241 29.1317C19.5803 29.3718 19.8117 29.5451 19.969 29.7139C20.9099 30.6748 19.8617 32.2392 18.6174 31.7474Z" fill="#670A39"/>
<path d="M19.0885 31.9104C18.9303 31.9104 18.7636 31.8803 18.5917 31.8123H18.5917C18.1644 31.643 17.6998 31.515 17.2979 31.4082C17.2937 31.4071 17.2896 31.4056 17.2857 31.4038C16.3931 30.9783 15.4377 30.4328 14.7301 29.9447C14.7162 29.9352 14.7063 29.9209 14.7021 29.9045C14.6979 29.8882 14.6998 29.8709 14.7074 29.8559C14.7149 29.8408 14.7277 29.829 14.7433 29.8226C14.7589 29.8162 14.7763 29.8156 14.7923 29.821C15.5137 30.0655 16.1289 29.6769 16.4184 29.1835C16.6904 28.72 16.738 28.0476 16.2311 27.5907C16.218 27.5788 16.2099 27.5624 16.2084 27.5448C16.2069 27.5272 16.2122 27.5097 16.2231 27.4958C16.234 27.4819 16.2498 27.4726 16.2673 27.4699C16.2847 27.4671 16.3026 27.4711 16.3172 27.481C17.3001 28.1489 18.2321 28.6529 19.2506 29.0671C19.2551 29.0689 19.2594 29.0712 19.2634 29.0739C19.5941 29.2967 19.8494 29.4828 20.0203 29.6665C20.5327 30.1896 20.4661 30.8705 20.1722 31.3125C19.9516 31.644 19.5584 31.9104 19.0885 31.9104ZM18.6431 31.6823C19.2949 31.94 19.8114 31.6022 20.0556 31.2349C20.299 30.8688 20.4093 30.2635 19.919 29.7627C19.7569 29.5887 19.5108 29.4093 19.191 29.1936C18.2934 28.8281 17.4623 28.3935 16.6056 27.8399C16.8572 28.3033 16.7757 28.8508 16.539 29.254C16.2705 29.7118 15.7459 30.0864 15.1103 30.0308C15.7678 30.4583 16.5765 30.9104 17.34 31.2746C17.7444 31.3822 18.2112 31.5111 18.6431 31.6823Z" fill="#670A39"/>
<path d="M58.8667 24.2572C58.8263 24.3637 58.7844 24.4715 58.7425 24.5824C56.8444 29.5406 53.3245 38.7368 51.4749 43.568C50.8108 45.3027 48.8077 46.2982 47.0235 45.7814C43.7099 44.8211 39.9401 43.7295 38.2969 43.2531C37.7571 43.0971 37.1779 43.153 36.678 43.4095L29.5733 47.0521C28.8167 47.4405 27.889 47.1065 27.5533 46.3254L24.9273 40.2183C24.7989 39.9192 24.6058 39.6524 24.3618 39.4369C24.1178 39.2215 23.829 39.0628 23.5162 38.9725C21.5997 38.4167 19.6458 37.8507 17.6361 37.2686C17.3298 37.1797 17.022 37.0909 16.7127 37.0013C15.1783 36.5572 14.4356 34.9913 15.0636 33.5231L23.1511 14.6095C23.8386 13.0018 25.7837 12.0563 27.4739 12.5077C34.1628 14.2967 49.7435 18.4636 56.8819 20.373C58.6141 20.8362 59.5073 22.5842 58.8667 24.2572Z" fill="#FF6D6D"/>
<path d="M58.8667 24.2572C58.8263 24.3637 58.7844 24.4715 58.7425 24.5824H58.7418C59.3045 23.0988 58.3305 21.1402 56.7827 20.7261L27.3785 12.8623C25.8697 12.4592 24.109 13.305 23.489 14.7541C23.489 14.7541 16.676 30.503 15.4016 33.6677C15.0821 34.4613 15.1782 35.2247 15.5154 35.7974C15.7248 36.1549 16.2111 36.8347 17.6361 37.2686C17.3298 37.1797 17.0221 37.0909 16.7128 37.0013C15.1783 36.5572 14.4356 34.9913 15.0637 33.5231L23.1511 14.6095C23.8387 13.0018 25.7838 12.0563 27.474 12.5077C34.1628 14.2967 49.7436 18.4636 56.8819 20.373C58.614 20.8362 59.5072 22.5842 58.8667 24.2572Z" fill="#DF5468"/>
<path d="M31.6578 17.906C31.6473 17.9061 31.6369 17.9037 31.6274 17.8992C31.618 17.8946 31.6096 17.888 31.6031 17.8798C31.5965 17.8716 31.5919 17.862 31.5896 17.8517C31.5872 17.8415 31.5872 17.8309 31.5895 17.8206C32.0684 15.7212 33.796 14.2054 35.991 13.9589C36.0293 13.9557 36.064 13.9822 36.0683 14.0206C36.0704 14.039 36.065 14.0575 36.0534 14.072C36.0419 14.0865 36.025 14.0958 36.0066 14.0979C33.8717 14.3376 32.1914 15.8111 31.7259 17.8517C31.7224 17.8672 31.7137 17.8809 31.7014 17.8908C31.689 17.9007 31.6736 17.906 31.6578 17.906ZM31.0965 16.2557C31.0851 16.2557 31.0739 16.2529 31.0638 16.2476C31.0537 16.2423 31.0451 16.2346 31.0387 16.2252C31.0323 16.2158 31.0283 16.205 31.027 16.1936C31.0257 16.1823 31.0272 16.1709 31.0314 16.1603C31.8209 14.1495 33.6115 12.6834 35.8215 12.2382C35.8305 12.2363 35.8398 12.2363 35.8488 12.2381C35.8578 12.2399 35.8664 12.2434 35.8741 12.2485C35.8817 12.2536 35.8883 12.2601 35.8934 12.2677C35.8985 12.2753 35.9021 12.2839 35.9039 12.2929C35.9057 12.3019 35.9058 12.3112 35.904 12.3202C35.9022 12.3292 35.8987 12.3378 35.8936 12.3454C35.8885 12.3531 35.882 12.3596 35.8743 12.3647C35.8667 12.3699 35.8582 12.3734 35.8492 12.3752C33.6859 12.8109 31.9336 14.2451 31.1615 16.2114C31.1564 16.2245 31.1475 16.2357 31.1359 16.2436C31.1243 16.2515 31.1105 16.2557 31.0965 16.2557ZM47.0534 19.672C47.0368 19.672 47.0207 19.666 47.0081 19.6552C46.9955 19.6444 46.9871 19.6295 46.9845 19.6131C46.6413 17.4544 44.9286 15.841 42.7227 15.5982C42.7047 15.5956 42.6884 15.5862 42.6773 15.5718C42.6662 15.5575 42.661 15.5394 42.663 15.5213C42.665 15.5033 42.6739 15.4867 42.6879 15.4751C42.7019 15.4635 42.7198 15.4578 42.7379 15.4592C45.0073 15.7089 46.7694 17.3694 47.1225 19.591C47.1242 19.601 47.1236 19.6112 47.1208 19.621C47.1181 19.6307 47.1133 19.6398 47.1067 19.6475C47.1001 19.6552 47.092 19.6613 47.0828 19.6656C47.0736 19.6698 47.0636 19.672 47.0534 19.672ZM48.2162 20.4644C48.1977 20.4644 48.1799 20.457 48.1668 20.4439C48.1536 20.4308 48.1463 20.413 48.1463 20.3945C48.1463 19.8212 48.0816 19.2584 47.9539 18.7218C47.9496 18.7038 47.9527 18.6848 47.9624 18.669C47.9721 18.6532 47.9877 18.6419 48.0058 18.6376C48.0238 18.6333 48.0429 18.6364 48.0587 18.6461C48.0745 18.6558 48.0857 18.6714 48.09 18.6895C48.2202 19.2367 48.2862 19.8103 48.2862 20.3945C48.2862 20.413 48.2788 20.4308 48.2657 20.4439C48.2526 20.457 48.2348 20.4644 48.2162 20.4644ZM47.4733 17.2858C47.4605 17.2858 47.4479 17.2823 47.4369 17.2756C47.4259 17.2689 47.417 17.2594 47.4111 17.248C46.6814 15.8344 45.4976 14.8508 44.0775 14.4782C44.0685 14.476 44.06 14.4721 44.0525 14.4666C44.045 14.461 44.0387 14.4541 44.0339 14.4461C44.0291 14.4381 44.026 14.4293 44.0247 14.4201C44.0234 14.4109 44.0239 14.4015 44.0263 14.3925C44.0287 14.3835 44.0328 14.3751 44.0385 14.3677C44.0441 14.3603 44.0512 14.3542 44.0593 14.3495C44.0674 14.3449 44.0763 14.342 44.0855 14.3409C44.0948 14.3397 44.1041 14.3405 44.1131 14.343C45.5719 14.7257 46.7873 15.7346 47.5354 17.1838C47.5409 17.1945 47.5436 17.2064 47.5432 17.2183C47.5428 17.2303 47.5393 17.242 47.533 17.2522C47.5268 17.2625 47.518 17.2709 47.5076 17.2768C47.4971 17.2827 47.4853 17.2858 47.4733 17.2858ZM46.2729 21.8981C46.2631 21.8981 46.2535 21.8961 46.2446 21.8922C46.2357 21.8883 46.2278 21.8826 46.2212 21.8755C46.2146 21.8683 46.2096 21.8599 46.2065 21.8507C46.2034 21.8415 46.2022 21.8318 46.203 21.8221C46.3269 20.4103 46.0357 19.225 45.3609 18.3943C45.3551 18.3871 45.3508 18.3789 45.3482 18.3701C45.3456 18.3613 45.3447 18.3521 45.3456 18.343C45.3466 18.3338 45.3493 18.325 45.3537 18.3169C45.3581 18.3088 45.364 18.3017 45.3711 18.2959C45.3783 18.2902 45.3865 18.2858 45.3953 18.2832C45.4041 18.2806 45.4133 18.2797 45.4225 18.2807C45.4316 18.2816 45.4405 18.2844 45.4485 18.2888C45.4566 18.2931 45.4637 18.299 45.4695 18.3062C46.1677 19.1656 46.4695 20.3856 46.3424 21.8343C46.3409 21.8517 46.3329 21.8679 46.3201 21.8797C46.3072 21.8915 46.2903 21.8981 46.2729 21.8981ZM32.6912 17.9002C32.6799 17.9002 32.6687 17.8974 32.6587 17.8921C32.6486 17.8869 32.64 17.8793 32.6336 17.8699C32.6272 17.8606 32.6231 17.8499 32.6218 17.8386C32.6204 17.8274 32.6218 17.816 32.6259 17.8054C33.0133 16.7906 33.8511 15.9801 34.9244 15.5816C34.9418 15.5752 34.961 15.5759 34.9779 15.5836C34.9948 15.5913 35.0079 15.6054 35.0144 15.6228C35.0208 15.6402 35.0201 15.6594 35.0124 15.6763C35.0047 15.6931 34.9905 15.7062 34.9732 15.7127C33.9376 16.0972 33.1297 16.8781 32.7566 17.8552C32.7515 17.8684 32.7425 17.8798 32.7309 17.8878C32.7192 17.8959 32.7054 17.9002 32.6912 17.9002Z" fill="#670A39"/>
<path d="M45.283 22.5779C43.7602 25.6354 38.9403 26.7964 36.814 27.054C36.7521 27.0615 36.6893 27.0533 36.6315 27.0301C36.5736 27.0068 36.5226 26.9693 36.4832 26.921C35.1822 25.3258 32.5014 21.2348 33.5919 18.4511C34.1504 17.0257 35.8482 16.2763 37.3587 16.7202C38.3657 17.0161 39.009 17.72 39.3218 18.6368C39.5663 19.3533 39.8847 19.152 40.4042 18.8767C41.3628 18.3689 42.3589 18.041 43.5744 18.3588C45.5172 18.8668 45.9901 21.1581 45.283 22.5779Z" fill="#DF5468"/>
<path d="M45.1361 22.2109C43.6133 25.2684 38.7934 26.4293 36.6671 26.6869C36.6052 26.6945 36.5424 26.6863 36.4846 26.663C36.4267 26.6398 36.3757 26.6023 36.3363 26.554C35.0353 24.9588 32.3545 20.8678 33.4451 18.0841C34.0035 16.6587 35.7014 15.9093 37.2118 16.3532C38.2188 16.6491 38.8621 17.353 39.1749 18.2698C39.4193 18.9863 39.7378 18.7849 40.2573 18.5097C41.2159 18.0018 42.212 17.674 43.4275 17.9918C45.3703 18.4997 45.8432 20.7911 45.1361 22.2109Z" fill="#FFF8EA"/>
<path d="M36.6216 26.7595C36.5565 26.7596 36.4922 26.7451 36.4335 26.7172C36.3747 26.6892 36.323 26.6485 36.282 26.598C35.9404 26.1791 34.7611 24.6666 33.9298 22.7929C33.0825 20.8827 32.8974 19.2898 33.3799 18.0584C33.9425 16.6224 35.6704 15.8273 37.2315 16.286C38.2062 16.5724 38.9011 17.2505 39.241 18.2471C39.3242 18.4911 39.4185 18.631 39.5293 18.6748C39.6834 18.7356 39.8975 18.6217 40.1686 18.4775L40.2245 18.4478C41.0781 17.9955 42.1282 17.5799 43.4451 17.924C44.4683 18.1916 44.9767 18.8934 45.223 19.4351C45.6212 20.3108 45.6116 21.4127 45.1986 22.2419C44.5257 23.593 43.1652 24.7104 41.1551 25.5632C39.1637 26.4079 37.2229 26.6898 36.6755 26.7562C36.6576 26.7584 36.6396 26.7595 36.6216 26.7595ZM36.3217 16.2956C35.1045 16.2956 33.9438 17.0027 33.5102 18.1095C32.4932 20.7056 34.8422 24.6112 36.3906 26.5097C36.4224 26.549 36.4638 26.5795 36.5107 26.5983C36.5576 26.6172 36.6085 26.6237 36.6587 26.6174C37.2015 26.5517 39.126 26.2721 41.1006 25.4345C43.0792 24.5952 44.4159 23.5002 45.0735 22.1797C45.4685 21.3865 45.4772 20.3319 45.0957 19.4929C44.862 18.9788 44.3798 18.3129 43.4098 18.0593C42.1394 17.7269 41.1199 18.1317 40.2901 18.5713L40.2344 18.6009C39.9315 18.7622 39.6922 18.8896 39.478 18.8047C39.3247 18.7442 39.2074 18.5813 39.1087 18.2921C38.7841 17.3404 38.1213 16.6931 37.1922 16.42C36.9094 16.3373 36.6163 16.2954 36.3217 16.2956Z" fill="#670A39"/>
<path d="M39.5726 36.1828C41.2409 36.6621 43.1867 35.3974 44.0745 33.2529C44.9369 31.1363 44.5922 28.3675 42.553 27.6018C40.7928 26.9487 38.6575 28.3255 37.7823 30.6784C36.7946 33.3335 37.8576 35.7088 39.5726 36.1828ZM29.8321 33.2545C31.6353 33.622 33.2928 31.8425 33.8412 30.0184C34.4685 28.0574 34.0232 25.578 32.2944 24.8765C30.4171 24.1216 28.4843 25.9273 27.8476 28.0925C27.1623 30.4209 27.973 32.8769 29.8321 33.2545Z" fill="#DF5468"/>
<path d="M39.1644 35.7547C39.2261 35.7778 39.2891 35.7983 39.3522 35.8157C41.0206 36.295 42.9664 35.0304 43.8541 32.8859C43.8819 32.8178 43.909 32.7489 43.935 32.6788C43.9566 32.6206 43.9773 32.5629 43.9966 32.5048C44.7465 30.2894 44.0992 28.0405 42.5139 27.3101C42.4544 27.2829 42.3939 27.2578 42.3326 27.2348C40.5724 26.5816 38.4371 27.9585 37.5619 30.3113C36.6868 32.6636 37.4044 35.1008 39.1644 35.7547Z" fill="#E7DCDC"/>
<path d="M40.0837 35.9877C39.8307 35.9877 39.5791 35.9536 39.3329 35.8829C39.2677 35.8649 39.2034 35.844 39.14 35.8202C38.2677 35.4961 37.617 34.7394 37.3079 33.6896C37.001 32.6471 37.068 31.4387 37.4964 30.2869C38.3834 27.9025 40.5637 26.5035 42.357 27.1692C42.4199 27.1928 42.4824 27.2188 42.5431 27.2464C44.1743 27.998 44.8276 30.2682 44.0629 32.5271C44.0432 32.5861 44.0225 32.6448 44.0007 32.7031C43.9746 32.7732 43.9473 32.8429 43.919 32.9122C43.1447 34.7826 41.5884 35.9876 40.0837 35.9877ZM41.4222 27.1428C39.9208 27.1428 38.344 28.4092 37.6275 30.3357C37.2095 31.4593 37.1436 32.6364 37.4421 33.6502C37.7385 34.6567 38.3587 35.3809 39.1888 35.6892L39.189 35.6893C39.2485 35.7116 39.3096 35.7315 39.3708 35.7484C41.013 36.2199 42.9123 34.978 43.7894 32.8592C43.8167 32.7922 43.8436 32.7238 43.8694 32.6546C43.8907 32.5977 43.9109 32.5405 43.9302 32.4829C44.6719 30.2914 44.0505 28.0951 42.4847 27.3736C42.4267 27.3471 42.3678 27.3227 42.3081 27.3003C42.0209 27.1937 41.7229 27.1428 41.4222 27.1428Z" fill="#670A39"/>
<path d="M39.3523 35.8157C41.0206 36.295 42.9664 35.0303 43.8542 32.8858C43.8819 32.8178 43.9091 32.7488 43.935 32.6788C43.9566 32.6206 43.9773 32.5629 43.9966 32.5048C44.7465 30.2894 44.0992 28.0404 42.5139 27.3101C40.9775 26.8882 39.1079 28.3041 38.2643 30.5725C37.4209 32.841 37.9116 35.1345 39.3523 35.8157Z" fill="#FFF8EA"/>
<path d="M29.4051 32.8348C29.4735 32.8556 29.5427 32.8734 29.6117 32.8875C31.1732 33.2057 32.8879 31.8588 33.5882 29.7526C33.5998 29.719 33.6106 29.6853 33.6208 29.6514C33.6319 29.617 33.6422 29.5824 33.6524 29.5478C33.6667 29.5003 33.6796 29.4525 33.6925 29.4047C33.7053 29.3569 33.7175 29.309 33.7295 29.2618C34.244 27.139 33.5358 25.1026 32.0741 24.5095C32.0086 24.4832 31.942 24.4597 31.8745 24.4392C30.2109 23.936 28.309 25.407 27.6273 27.7255C26.9447 30.0445 27.7408 32.3315 29.4051 32.8348Z" fill="#E7DCDC"/>
<path d="M30.0763 33.0039C29.9162 33.0039 29.7563 32.9882 29.5977 32.9558C29.5259 32.9411 29.4549 32.923 29.3848 32.9016C27.6865 32.3881 26.8679 30.0572 27.5601 27.7057C27.9615 26.3407 28.8185 25.1922 29.8527 24.6336C30.5351 24.2649 31.2412 24.1745 31.8947 24.3723C31.9641 24.3934 32.0327 24.4175 32.1001 24.4446C33.5891 25.0489 34.3188 27.1267 33.7973 29.2781C33.7844 29.329 33.7725 29.3759 33.7598 29.4228C33.7468 29.4711 33.7338 29.5197 33.7193 29.5678C33.7088 29.603 33.6984 29.6379 33.6873 29.6726C33.6772 29.7062 33.666 29.7408 33.6541 29.7752C33.0135 31.7028 31.5342 33.0039 30.0763 33.0039ZM31.2028 24.4101C30.7799 24.4101 30.3452 24.5264 29.9193 24.7566C28.9172 25.2979 28.0855 26.4151 27.6944 27.7452C27.0239 30.0233 27.8004 32.2765 29.4254 32.7679C29.4945 32.7889 29.5619 32.806 29.6257 32.8189C29.7755 32.8495 29.9268 32.8642 30.0783 32.8642C31.476 32.8644 32.9001 31.6007 33.5219 29.7304C33.5334 29.697 33.544 29.6642 33.5539 29.6312C33.5651 29.5963 33.5752 29.5622 33.5854 29.5283C33.5996 29.4807 33.6123 29.4336 33.625 29.3865C33.6374 29.3403 33.6492 29.2939 33.6608 29.2482C34.1668 27.1606 33.473 25.1525 32.0478 24.5742C31.7794 24.4655 31.4924 24.4098 31.2028 24.4101Z" fill="#670A39"/>
<path d="M29.6117 32.8875C31.1732 33.2057 32.888 31.8588 33.5882 29.7526C33.5998 29.719 33.6106 29.6853 33.6208 29.6514C33.6319 29.617 33.6422 29.5825 33.6525 29.5478C33.6667 29.5003 33.6796 29.4525 33.6925 29.4048C33.7053 29.3569 33.7175 29.309 33.7295 29.2618C34.244 27.139 33.5358 25.1026 32.0741 24.5095C30.6645 24.2471 29.0501 25.7382 28.3975 27.9587C27.7439 30.1798 28.2884 32.3248 29.6117 32.8875Z" fill="#FFF8EA"/>
<path d="M43.801 32.7683C44.486 30.9265 44.1244 29.0928 42.9934 28.6726C41.8624 28.2525 40.3902 29.405 39.7052 31.2468C39.0201 33.0886 39.3817 34.9223 40.5127 35.3424C41.6437 35.7626 43.1159 34.6101 43.801 32.7683Z" fill="#670A39"/>
<path d="M41.0049 35.4974C40.8289 35.498 40.6541 35.467 40.4891 35.4058C39.3239 34.9723 38.9435 33.0942 39.6413 31.2192C39.9773 30.3165 40.5098 29.5474 41.141 29.0536C41.7821 28.552 42.4494 28.3931 43.0199 28.6051C44.1851 29.0386 44.5654 30.9167 43.8676 32.7917C43.5317 33.6944 42.9991 34.4634 42.3679 34.9572C41.9122 35.3139 41.4431 35.4974 41.0049 35.4974ZM39.7724 31.268C39.1016 33.0708 39.4449 34.8682 40.5379 35.2748C41.0612 35.4696 41.6804 35.3177 42.2818 34.8472C42.8929 34.3691 43.4096 33.6219 43.7366 32.743C44.4074 30.9403 44.0641 29.1428 42.9711 28.7362C42.4478 28.5414 41.8285 28.6933 41.2272 29.1638C40.6161 29.6419 40.0995 30.3891 39.7724 31.268Z" fill="#670A39"/>
<path d="M33.5289 29.6363C34.1514 27.8248 33.8206 26.0695 32.7901 25.7158C31.7595 25.3621 30.4195 26.544 29.797 28.3555C29.1745 30.167 29.5053 31.9223 30.5359 32.276C31.5664 32.6296 32.9064 31.4478 33.5289 29.6363Z" fill="#670A39"/>
<path d="M30.9186 32.4104C30.7787 32.4104 30.6426 32.3881 30.5118 32.343C29.4469 31.9761 29.0971 30.1767 29.7318 28.332C30.0371 27.4448 30.5216 26.6775 31.096 26.1716C31.6811 25.6563 32.2913 25.4717 32.8144 25.6519C33.8792 26.0188 34.2291 27.8181 33.5943 29.663C33.289 30.5502 32.8046 31.3174 32.2302 31.8233C31.7914 32.2099 31.3383 32.4104 30.9186 32.4104ZM32.4079 25.7245C32.0223 25.7245 31.601 25.9131 31.1884 26.2765C30.6319 26.7667 30.1616 27.5128 29.8641 28.3775C29.2544 30.1494 29.5653 31.869 30.5573 32.2109C31.0307 32.3741 31.5919 32.1993 32.1377 31.7185C32.6941 31.2284 33.1645 30.4822 33.462 29.6175C34.0717 27.8456 33.7607 26.1259 32.7688 25.784C32.6526 25.7443 32.5306 25.7242 32.4079 25.7245Z" fill="#670A39"/>
<path d="M42.9829 30.6003C43.168 30.1426 43.0456 29.6616 42.7096 29.5259C42.3736 29.3903 41.9512 29.6513 41.7662 30.109C41.5811 30.5667 41.7035 31.0477 42.0395 31.1834C42.3755 31.319 42.7979 31.058 42.9829 30.6003Z" fill="#FFF8EA"/>
<path d="M42.2243 31.2896C42.1519 31.2898 42.0802 31.2761 42.0131 31.2491C41.6419 31.0991 41.502 30.5764 41.7011 30.0837C41.7961 29.8487 41.9535 29.6543 42.1443 29.5364C42.3419 29.4143 42.5518 29.3878 42.7356 29.4621C42.9193 29.5363 43.0519 29.7011 43.1092 29.9261C43.1645 30.1433 43.1426 30.3924 43.0476 30.6275C42.8849 31.0298 42.5455 31.2896 42.2243 31.2896ZM42.5219 29.5608C42.4231 29.5608 42.3192 29.5927 42.2178 29.6554C42.0522 29.7578 41.9148 29.9285 41.8308 30.1362C41.6605 30.5573 41.7659 30.9985 42.0655 31.1195C42.3652 31.2403 42.7475 30.9962 42.9178 30.5751C43.0017 30.3674 43.0215 30.1491 42.9735 29.9606C42.9276 29.7798 42.8244 29.6488 42.6831 29.5917C42.6318 29.5711 42.5771 29.5606 42.5219 29.5608Z" fill="#670A39"/>
<path d="M32.9859 27.5397C33.1007 27.1242 32.9465 26.719 32.6414 26.6348C32.3363 26.5506 31.9959 26.8193 31.8811 27.2348C31.7663 27.6504 31.9205 28.0555 32.2256 28.1397C32.5306 28.2239 32.871 27.9553 32.9859 27.5397Z" fill="#FFF8EA"/>
<path d="M32.3394 28.225C32.295 28.2251 32.2508 28.2191 32.2079 28.2073C31.8662 28.1129 31.6898 27.6684 31.8147 27.2163C31.8742 27.0011 31.9924 26.8151 32.1477 26.6927C32.3092 26.5652 32.4916 26.5207 32.6611 26.5676C32.8307 26.6144 32.9644 26.7461 33.0376 26.9383C33.1079 27.1231 33.1139 27.3433 33.0544 27.5585C32.9452 27.9532 32.642 28.225 32.3394 28.225ZM32.5277 26.6894C32.43 26.6894 32.3285 26.728 32.2342 26.8023C32.1023 26.9065 32.0011 27.0668 31.9495 27.2536C31.8451 27.6312 31.9778 27.9986 32.2452 28.0725C32.5126 28.1463 32.8151 27.899 32.9194 27.5212C32.9711 27.3344 32.9665 27.1451 32.9067 26.9879C32.8498 26.8383 32.7493 26.7369 32.6238 26.7023C32.5925 26.6937 32.5602 26.6894 32.5277 26.6894ZM40.0837 35.9877C39.8307 35.9877 39.5794 35.9537 39.3332 35.883C38.5981 35.6797 37.9726 35.1365 37.5721 34.3533C36.9877 33.2107 36.96 31.7285 37.4963 30.2869C38.3833 27.9024 40.5637 26.5038 42.357 27.1692C43.095 27.4464 43.6654 28.0048 44.0066 28.7843C44.5158 29.9479 44.4823 31.5295 43.9189 32.9122C43.1447 34.7826 41.5884 35.9876 40.0837 35.9877ZM41.4222 27.1428C39.9208 27.1428 38.3441 28.4092 37.6275 30.3357C37.1048 31.7407 37.13 33.1819 37.6966 34.2897C38.0792 35.0377 38.6738 35.5557 39.3709 35.7483C39.6033 35.8149 39.8439 35.8485 40.0856 35.8482C41.5339 35.8483 43.0375 34.6759 43.7895 32.8592C44.3389 31.5107 44.3731 29.9706 43.8784 28.8404C43.5528 28.0962 43.0097 27.5637 42.3081 27.3003C42.021 27.1937 41.7229 27.1428 41.4222 27.1428Z" fill="#670A39"/>
<path d="M30.0841 33.0048C29.9207 33.0049 29.7578 32.9885 29.5978 32.9559C28.8985 32.8139 28.3126 32.3799 27.9034 31.7009C27.2739 30.6562 27.1424 29.1254 27.5602 27.7058C27.9774 26.2868 28.914 25.0773 30.0045 24.5493C30.7037 24.2107 31.4284 24.1747 32.1002 24.4447C33.8824 25.1679 34.3117 27.7215 33.6874 29.6728C33.4025 30.6208 32.8359 31.5218 32.1332 32.1437C31.4952 32.7083 30.7827 33.0048 30.0841 33.0048ZM31.1849 24.4058C30.8132 24.4058 30.4358 24.4957 30.0654 24.6752C29.0093 25.1865 28.1008 26.363 27.6944 27.7453C27.2872 29.1285 27.4133 30.6166 28.0233 31.6289C28.4117 32.2734 28.9658 32.685 29.6257 32.819H29.6258C30.656 33.0287 31.5075 32.5108 32.0405 32.0391C32.7241 31.4339 33.2758 30.5563 33.5538 29.6314C34.1594 27.7383 33.7556 25.2673 32.0478 24.5744C31.7681 24.4618 31.4783 24.4058 31.1849 24.4058Z" fill="#670A39"/>
<path d="M39.9583 41.1542C40.3609 41.2809 40.7799 41.3836 41.2125 41.4489C42.4392 41.634 43.7753 41.5224 45.1575 40.8326C46.2423 40.2913 46.8207 39.5533 47.0138 38.8458C47.4241 37.3449 46.0975 35.9818 44.1671 36.9335C40.4035 38.7896 38.8405 37.6543 37.925 38.6522C37.2564 39.3793 38.2547 40.6192 39.9583 41.1542Z" fill="#DF5468"/>
<path d="M39.7255 40.891C40.1281 41.0178 40.5471 41.1204 40.9797 41.1857C42.2064 41.3708 43.5425 41.2593 44.9247 40.5694C46.0095 40.0281 46.5879 39.2901 46.781 38.5826C47.1913 37.0817 45.8647 35.7186 43.9343 36.6703C40.1707 38.5264 38.6077 37.3912 37.6922 38.389C37.0236 39.1161 38.022 40.356 39.7255 40.891Z" fill="#670A39"/>
<path d="M42.0093 41.3341C41.6664 41.3341 41.3196 41.3077 40.9693 41.2549C40.5598 41.193 40.1342 41.093 39.7045 40.9577C38.5435 40.5931 37.6365 39.8747 37.4478 39.1701C37.3638 38.8568 37.4306 38.5703 37.6407 38.3416C38.0556 37.8894 38.6046 37.8548 39.3645 37.807C40.3838 37.7428 41.7799 37.6548 43.9032 36.6076C45.2148 35.9609 46.0225 36.4401 46.309 36.6763C46.8454 37.1184 47.0521 37.856 46.8484 38.6011C46.6269 39.4123 45.9548 40.1335 44.9559 40.632C44.0198 41.0992 43.0323 41.3341 42.0093 41.3341ZM45.1639 36.4234C44.7916 36.4234 44.3842 36.5264 43.9652 36.7329C41.8167 37.7925 40.4045 37.8815 39.3734 37.9464C38.6191 37.994 38.1207 38.0254 37.7438 38.4362C37.5651 38.6305 37.511 38.8653 37.583 39.1338C37.7599 39.794 38.6293 40.4734 39.7465 40.8243C40.1693 40.9574 40.5878 41.0558 40.9902 41.1165C42.3565 41.3229 43.6698 41.1176 44.8935 40.5068C45.8563 40.0265 46.5026 39.3366 46.7135 38.5641C46.9025 37.8728 46.7134 37.1908 46.2201 36.7841C45.9286 36.5439 45.5667 36.4234 45.1639 36.4234Z" fill="#670A39"/>
<path d="M40.9798 41.1858C42.2065 41.3708 43.5426 41.2592 44.9247 40.5694C45.6665 40.1994 46.1715 39.7372 46.4784 39.2557C46.1427 38.5581 43.8437 37.8673 43.021 39.4343C42.0685 38.9679 40.9208 40.0402 40.9798 41.1858Z" fill="#EC4949"/>
<path d="M42.0093 41.3341C41.6664 41.3341 41.3196 41.3077 40.9693 41.2549C40.9534 41.2525 40.9387 41.2446 40.9279 41.2327C40.9171 41.2207 40.9107 41.2054 40.9099 41.1893C40.8765 40.5417 41.2248 39.8621 41.7766 39.4981C42.1707 39.2382 42.6094 39.1834 42.9907 39.3437C43.3318 38.7433 43.9342 38.4153 44.6977 38.4153C44.7134 38.4153 44.7289 38.4155 44.7448 38.4158C45.5139 38.4292 46.3366 38.8 46.5414 39.2255C46.5466 39.2362 46.5489 39.248 46.5482 39.2599C46.5475 39.2718 46.5438 39.2833 46.5374 39.2933C46.1964 39.8282 45.6644 40.2786 44.956 40.632C44.0198 41.0992 43.0323 41.3341 42.0093 41.3341ZM41.0478 41.125C42.3934 41.317 43.687 41.109 44.8935 40.5068C45.554 40.1773 46.0731 39.7441 46.3974 39.2522C46.2057 38.9263 45.5014 38.5688 44.7424 38.5555C44.3056 38.5498 43.5085 38.6561 43.083 39.4667C43.0746 39.4828 43.0601 39.495 43.0428 39.5007C43.0255 39.5064 43.0067 39.5051 42.9903 39.497C42.6358 39.3235 42.2321 39.3652 41.8538 39.6148C41.3581 39.9417 41.0394 40.5426 41.0478 41.125Z" fill="#670A39"/>
<path d="M42.8331 39.9993C42.8225 39.9993 42.8119 39.9969 42.8023 39.9922C42.7927 39.9875 42.7843 39.9807 42.7778 39.9722C42.7712 39.9638 42.7667 39.954 42.7646 39.9435C42.7624 39.933 42.7627 39.9222 42.7654 39.9119C42.9918 39.0387 43.5925 38.5114 44.4567 38.427C45.2077 38.3533 46.282 38.6864 46.5414 39.2254C46.5455 39.2337 46.548 39.2428 46.5486 39.252C46.5493 39.2613 46.5481 39.2706 46.5451 39.2793C46.5421 39.2881 46.5373 39.2962 46.5312 39.3032C46.525 39.3101 46.5175 39.3158 46.5092 39.3198C46.5008 39.3238 46.4917 39.3261 46.4825 39.3266C46.4732 39.3271 46.4639 39.3257 46.4552 39.3226C46.4464 39.3194 46.4384 39.3146 46.4316 39.3083C46.4247 39.302 46.4192 39.2945 46.4153 39.286C46.2259 38.8924 45.3162 38.4834 44.4703 38.5661C43.9033 38.6215 43.1707 38.9059 42.9008 39.947C42.8969 39.962 42.8881 39.9752 42.8759 39.9847C42.8637 39.9942 42.8486 39.9993 42.8331 39.9993Z" fill="#670A39"/>
<path d="M44.1858 38.9359C43.7531 39.1133 43.5153 39.5537 43.6092 39.8003C43.7031 40.047 44.0931 40.0065 44.5258 39.8291C44.9585 39.6517 45.2699 39.4046 45.176 39.1579C45.0822 38.9112 44.6184 38.7585 44.1858 38.9359Z" fill="#FF6D6D"/>
<path d="M72.9709 27.6892C70.2493 36.2754 63.4547 42.4184 54.1508 41.9868C53.3832 41.9391 52.797 41.2761 52.844 40.5082C52.8917 39.7411 53.5565 39.1546 54.3234 39.2022C56.0423 39.3087 57.6957 39.1274 59.253 38.6832C59.2537 38.6825 59.2537 38.6825 59.2545 38.6825C64.3127 37.2392 68.3534 33.0188 70.3096 26.8471C70.3498 26.7197 70.4082 26.5988 70.483 26.4881C70.8201 25.9882 71.4577 25.7466 72.0615 25.9383C72.7976 26.171 73.2038 26.9543 72.9709 27.6892Z" fill="#DF5468"/>
<path d="M72.0779 27.7686C70.2229 33.7888 65.9694 38.9102 59.7716 40.357C57.8287 40.8106 58.0249 39.0231 59.2531 38.6833C59.2538 38.6826 59.2538 38.6826 59.2545 38.6826C64.3127 37.2393 68.3535 33.0189 70.3096 26.8472C70.3499 26.7198 70.4083 26.5989 70.483 26.4882C70.6909 26.4875 70.8731 26.4992 70.9987 26.5322C71.5731 26.6827 72.3396 26.9195 72.0779 27.7686Z" fill="#FF6D6D"/>
<path d="M55.0535 42.0775C54.7533 42.0775 54.4513 42.0704 54.1479 42.0564C54.1293 42.0555 54.1119 42.0474 54.0994 42.0337C54.0869 42.02 54.0804 42.0019 54.0812 41.9833C54.0821 41.9648 54.0903 41.9474 54.104 41.9349C54.1177 41.9224 54.1358 41.9159 54.1543 41.9167C58.5622 42.1213 62.6535 40.8239 65.9856 38.165C69.1307 35.6553 71.523 32.0256 72.904 27.6682C72.9572 27.5024 72.9769 27.3278 72.962 27.1543C72.9471 26.9809 72.8979 26.8121 72.8173 26.6578C72.7375 26.5031 72.6277 26.3657 72.4944 26.2537C72.3611 26.1416 72.2069 26.0571 72.0406 26.005C71.8748 25.952 71.7 25.9324 71.5265 25.9473C71.353 25.9622 71.1841 26.0113 71.0297 26.0918C70.8749 26.1716 70.7374 26.2812 70.6253 26.4145C70.5132 26.5477 70.4286 26.7018 70.3765 26.868C69.161 30.7027 67.101 33.8792 64.4191 36.0539C61.7959 38.181 58.6381 39.3016 55.2753 39.3017C55.2043 39.3017 55.1336 39.3012 55.0624 39.3002C55.0532 39.3001 55.0442 39.2982 55.0357 39.2945C55.0273 39.2909 55.0196 39.2857 55.0132 39.2791C55.0068 39.2725 55.0018 39.2647 54.9984 39.2562C54.995 39.2477 54.9933 39.2385 54.9934 39.2294C54.994 39.1907 55.0246 39.1624 55.0644 39.1604C58.4737 39.2118 61.6781 38.0964 64.3309 35.9453C66.9916 33.788 69.0359 30.6344 70.2431 26.8258C70.3007 26.6422 70.3942 26.4717 70.5182 26.3244C70.6421 26.1771 70.7941 26.0559 70.9653 25.9677C71.136 25.8786 71.3226 25.8242 71.5145 25.8078C71.7063 25.7913 71.8995 25.8131 72.0829 25.8718C72.2666 25.9293 72.4371 26.0228 72.5845 26.1466C72.7319 26.2705 72.8532 26.4224 72.9415 26.5935C73.1216 26.9405 73.1557 27.3372 73.0374 27.7104C71.648 32.0943 69.2397 35.7472 66.0728 38.2743C62.9434 40.7717 59.15 42.0775 55.0535 42.0775Z" fill="#670A39"/>
<path d="M10.9045 5.12172C9.64739 6.15433 10.0082 7.27915 10.3834 8.03508C11.2645 9.80922 10.8062 12.9282 8.3434 13.0892L6.16047 14.3577C5.90629 14.3668 4.70672 14.7334 3.22262 13.9169C2.61143 13.9471 1.45649 13.2464 0.98751 12.8435C0.0707345 12.0528 0.00267753 11.253 0.109344 10.7246C0.156208 10.4895 0.305262 10.0888 0.784808 10.0586C0.0715039 9.01924 0.215242 7.49151 1.73865 7.46802C1.57002 6.99177 1.77419 6.23284 2.07824 5.76868C3.02083 4.33573 5.3768 4.70706 6.66799 6.16859C7.00394 6.55006 7.15495 6.73614 7.39641 6.97744C7.27995 6.44073 7.25644 5.81635 7.54539 4.95605C7.66234 4.60787 7.80713 4.38005 7.8109 4.3725C7.8109 4.37173 7.81167 4.37096 7.81167 4.37027H7.81244C9.27703 1.89059 13.3425 3.12396 10.9045 5.12172Z" fill="#DF5468"/>
<path d="M10.7941 4.12008C9.46355 4.7513 8.91742 5.81187 9.36675 7.32374C9.90456 9.13192 10.3555 11.6988 8.62477 12.2758C6.78653 12.8887 6.63804 9.59328 7.58265 8.02745C7.65959 7.89988 7.66539 7.74365 7.60566 7.6072C7.10443 6.4619 7.27601 5.22804 7.81242 4.37033C9.22763 1.97419 12.5274 3.29676 10.7941 4.12008Z" fill="#FF6D6D"/>
<path d="M3.92846 6.16356C3.66309 5.54862 4.70912 5.57854 5.61863 6.22563C6.52855 6.87307 7.42294 7.84808 6.96773 8.37096C5.95108 9.5742 6.15168 11.2043 6.63291 12.083C6.66263 12.1373 6.62276 12.203 6.56093 12.2007C5.80678 12.1728 4.87881 12.3922 4.30624 12.8722C2.76135 12.34 2.20892 12.0726 1.20996 11.5718C1.82268 9.86143 3.92846 6.16356 3.92846 6.16356Z" fill="#AF4357"/>
<path d="M11.5165 6.35433C11.5038 6.35431 11.4913 6.35082 11.4805 6.34425C11.4696 6.33768 11.4607 6.32827 11.4547 6.31703C11.4488 6.30579 11.446 6.29315 11.4467 6.28046C11.4475 6.26777 11.4516 6.25551 11.4588 6.245C11.8275 5.70472 12.5541 5.32878 13.3631 5.64062C12.5944 4.62436 12.6398 3.10705 13.4856 2.06982C12.728 2.26695 11.9592 2.2025 11.3441 1.88479C10.775 1.59078 10.3381 1.0844 10.0673 0.409556C9.96759 1.21414 9.6057 1.6035 9.30038 1.79098C8.87015 2.05522 8.29688 2.07975 7.74032 1.86382C7.82586 2.13637 7.87615 2.55845 7.73242 2.91048C7.62197 3.18108 7.41808 3.37163 7.12648 3.4769C7.11784 3.48004 7.10867 3.48144 7.09949 3.48102C7.09031 3.48061 7.0813 3.47838 7.07298 3.47448C7.06467 3.47058 7.0572 3.46507 7.05102 3.45828C7.04483 3.45148 7.04005 3.44354 7.03695 3.43489C7.03382 3.42626 7.03243 3.4171 7.03285 3.40792C7.03327 3.39875 7.0355 3.38975 7.0394 3.38144C7.04331 3.37313 7.04881 3.36567 7.0556 3.35949C7.0624 3.35331 7.07034 3.34853 7.07899 3.34542C7.33177 3.25412 7.50803 3.09006 7.60295 2.8577C7.76221 2.46757 7.65653 1.98014 7.55252 1.76456C7.54622 1.75154 7.54412 1.73689 7.54651 1.72262C7.54889 1.70836 7.55565 1.69519 7.56583 1.68492C7.57602 1.67466 7.58915 1.6678 7.6034 1.6653C7.61765 1.6628 7.63232 1.66477 7.6454 1.67096C8.20602 1.93533 8.79734 1.93568 9.22729 1.67187C9.68019 1.39379 9.93101 0.83918 9.95263 0.0679391C9.95319 0.0514006 9.9596 0.035596 9.97071 0.0233318C9.98183 0.0110676 9.99693 0.00313755 10.0133 0.000949962C10.0298 -0.00123763 10.0464 0.00245879 10.0604 0.0113828C10.0743 0.0203068 10.0846 0.0338808 10.0895 0.0496944C10.3346 0.859452 10.7784 1.4351 11.4085 1.76071C12.0546 2.09443 12.8821 2.13309 13.6786 1.86697C13.6935 1.86202 13.7096 1.86219 13.7243 1.86746C13.7391 1.87273 13.7516 1.88279 13.7599 1.89604C13.7683 1.90928 13.7719 1.92494 13.7703 1.9405C13.7687 1.95607 13.7619 1.97064 13.751 1.98189C12.7144 3.05189 12.6882 4.80381 13.6937 5.80762C13.7057 5.8197 13.7129 5.83575 13.7139 5.85276C13.7149 5.86977 13.7097 5.88657 13.6992 5.89999C13.6886 5.91341 13.6736 5.92253 13.6568 5.92564C13.6401 5.92875 13.6227 5.92563 13.6081 5.91687C13.0091 5.5554 12.1172 5.52863 11.5745 6.32385C11.5608 6.3437 11.5388 6.35433 11.5165 6.35433Z" fill="#670A39"/>
<path d="M6.53178 9.36246C6.07042 10.0511 5.08104 10.0609 4.25428 9.73512C4.21721 9.72079 4.18014 9.70492 4.14384 9.69052C4.37752 9.85906 4.63325 10.0421 4.93121 10.2121C5.5454 10.5644 5.84037 11.0996 5.62332 11.6001C5.51512 11.8488 5.34494 12.0165 5.14301 12.1224C5.09915 12.1458 5.05453 12.1662 5.00836 12.1836C4.69067 12.3038 4.31702 12.3008 3.98191 12.2411C4.22623 12.5154 4.37829 12.8708 4.29884 13.2155C4.19448 13.6652 3.79355 13.9419 3.22251 13.9169C2.98351 13.9063 2.71422 13.8436 2.42451 13.7181L2.36023 13.6894H2.35946C0.940473 13.0378 0.356568 12.3 0.158343 11.665C0.0623432 11.3608 0.0454212 11.0372 0.109171 10.7246C0.156035 10.4895 0.305089 10.0888 0.784635 10.0586C0.590256 9.77517 0.459388 9.45467 0.403432 9.1394C0.398885 9.11675 0.395878 9.09404 0.39287 9.07209C0.392101 9.07055 0.392101 9.06908 0.392101 9.06754C0.274872 8.25191 0.66216 7.48459 1.73848 7.46872V7.46795C1.56984 6.9917 1.77401 6.23276 2.07807 5.7686C2.36624 5.33017 2.8027 5.05349 3.30869 4.93179L3.92819 6.16321C4.4297 6.60541 5.62025 7.07712 6.01509 7.43768C6.74889 8.10609 6.8601 8.87188 6.53178 9.36246Z" fill="#DF5468"/>
<path d="M6.01523 7.43792C5.62039 7.07736 4.42985 6.60565 3.92834 6.16344C2.40269 5.63504 1.56313 7.02444 2.01617 8.01168C2.01694 8.01392 2.01771 8.01699 2.01918 8.01923C1.23782 7.66776 0.323351 8.39874 0.392177 9.06771C0.392177 9.07071 0.392177 9.07372 0.393716 9.0768C0.442887 9.41317 0.577533 9.75562 0.784012 10.058V10.0588C0.850822 10.162 0.920849 10.2631 0.993988 10.3619C0.587884 10.2965 0.0209063 10.8958 0.158489 11.6652C0.356645 12.3002 0.94055 13.0379 2.3596 13.6896H2.36037C2.63715 13.8134 2.91735 13.9035 3.22266 13.9171C4.24617 13.9618 4.67039 13.0143 3.98206 12.2412C4.36172 12.3088 4.80154 12.3048 5.14315 12.1225L5.1391 12.1184C5.8736 11.7473 5.94326 10.8093 4.93136 10.2122C4.64395 10.0482 4.39586 9.87208 4.16888 9.70802C6.42141 10.584 7.51599 8.80501 6.01523 7.43792Z" fill="#FF6D6D"/>
<path d="M5.27612 10.019C4.9706 10.019 4.62038 9.95478 4.22792 9.80022C2.927 9.28818 2.01443 8.45459 1.65826 7.45302L1.65756 7.45092C1.65467 7.44221 1.65351 7.43301 1.65417 7.42385C1.65483 7.4147 1.65729 7.40576 1.6614 7.39755C1.66552 7.38934 1.67121 7.38202 1.67815 7.37602C1.6851 7.37001 1.69316 7.36542 1.70187 7.36253C1.71059 7.35963 1.71979 7.35848 1.72896 7.35914C1.73812 7.35979 1.74706 7.36225 1.75527 7.36636C1.76349 7.37047 1.77081 7.37616 1.77682 7.3831C1.78284 7.39004 1.78742 7.3981 1.79032 7.40681C2.13284 8.36945 3.01667 9.17326 4.27919 9.67013C5.42525 10.1214 6.17765 9.76548 6.47366 9.32362C6.8685 8.73441 6.50423 7.97792 5.96802 7.48964C5.78463 7.32216 5.41601 7.12587 5.02572 6.91798C4.59443 6.68834 4.14846 6.45081 3.88197 6.21587C3.86806 6.20361 3.85959 6.18632 3.85843 6.16782C3.85727 6.14931 3.86351 6.13111 3.87578 6.1172C3.88805 6.1033 3.90535 6.09483 3.92386 6.09367C3.94238 6.09251 3.9606 6.09875 3.97451 6.11101C4.22869 6.33519 4.66732 6.56874 5.09147 6.7946C5.48974 7.00668 5.8659 7.20696 6.06231 7.38633C6.64272 7.91494 7.03099 8.74308 6.58984 9.40143C6.36923 9.73088 5.92298 10.0189 5.27612 10.019Z" fill="#670A39"/>
<path d="M4.41255 12.348C4.1669 12.348 3.89174 12.3059 3.58999 12.2094C1.91886 11.6745 1.18121 10.7994 0.725237 10.0967C0.718396 10.0862 0.714529 10.0739 0.714042 10.0614C0.713554 10.0488 0.716464 10.0363 0.722465 10.0252C0.728467 10.0141 0.737339 10.0049 0.748152 9.99842C0.758965 9.99195 0.77132 9.98851 0.783921 9.98846C0.81113 9.98846 0.834701 10.0038 0.846242 10.0263C1.28984 10.7085 2.00811 11.5562 3.63266 12.0762C4.66583 12.4068 5.3564 12.0676 5.56071 11.6124C5.76495 11.1575 5.50391 10.6315 4.8956 10.2723C4.57336 10.0879 4.27861 9.89933 4.0203 9.71227C4.01274 9.70693 4.00632 9.70015 4.00141 9.69231C3.9965 9.68447 3.99319 9.67573 3.99168 9.66661C3.99017 9.65748 3.99048 9.64815 3.99261 9.63915C3.99473 9.63014 3.99863 9.62165 4.00406 9.61416C4.00949 9.60668 4.01636 9.60034 4.02426 9.59552C4.03216 9.59071 4.04094 9.5875 4.05009 9.5861C4.05924 9.5847 4.06857 9.58513 4.07756 9.58736C4.08654 9.58959 4.09499 9.59358 4.10241 9.5991C4.35667 9.78323 4.64722 9.96903 4.96596 10.1514C5.7853 10.6353 5.86707 11.2715 5.68836 11.6696C5.52133 12.0417 5.07473 12.348 4.41255 12.348Z" fill="#670A39"/>
<path d="M3.27054 13.9622C2.97831 13.9623 2.65453 13.8921 2.33271 13.7536C0.00730189 12.7528 -0.101393 11.4177 0.0408058 10.7109C0.085501 10.4822 0.226021 10.0895 0.664859 10.0038C0.489086 9.7203 0.372417 9.40783 0.325484 9.09327C0.323672 9.08677 0.322639 9.08009 0.322406 9.07335C0.25414 8.5913 0.358358 8.15985 0.616107 7.85787C0.850355 7.5835 1.20498 7.42671 1.64571 7.40161C1.52071 6.9009 1.72796 6.17593 2.0197 5.73058C2.37908 5.18254 2.98306 4.85162 3.72029 4.7987C4.78185 4.7216 5.93141 5.22972 6.72039 6.12253C6.7955 6.2077 6.87032 6.29312 6.94485 6.37879C7.07159 6.52419 7.18084 6.64946 7.28485 6.76172C7.21665 6.32371 7.20833 5.73792 7.47909 4.93403C7.82847 3.8945 8.66152 3.15703 9.70748 2.9613C10.4814 2.81646 11.1998 3.01177 11.5822 3.47082C11.71 3.62461 11.7651 3.80251 11.7462 3.99964C11.6956 4.52622 11.1231 5.03316 10.9488 5.17597C9.73483 6.17307 10.0804 7.26761 10.446 8.00418C11.0296 9.17918 11.0032 10.8132 10.3832 11.8894C9.93802 12.6622 9.23423 13.1012 8.34788 13.1591C8.3294 13.1602 8.31124 13.154 8.29732 13.1417C8.28341 13.1295 8.27486 13.1124 8.27353 13.0939C8.27293 13.0847 8.27415 13.0755 8.2771 13.0669C8.28006 13.0582 8.2847 13.0501 8.29076 13.0432C8.29682 13.0363 8.30418 13.0307 8.31242 13.0266C8.32066 13.0226 8.32962 13.0202 8.33879 13.0196C9.17625 12.9649 9.84129 12.5499 10.2619 11.8197C10.8603 10.781 10.885 9.20253 10.3207 8.06632C9.93397 7.28704 9.56906 6.12833 10.8601 5.0679C11.0239 4.93368 11.5616 4.45918 11.607 3.98622C11.6224 3.8253 11.5792 3.68591 11.4747 3.56009C11.1248 3.13983 10.4575 2.96283 9.73329 3.09859C8.73783 3.28481 7.94472 3.98761 7.61171 4.97849C7.30122 5.90037 7.37011 6.52328 7.46475 6.96297C7.46789 6.97767 7.46621 6.99299 7.45995 7.00666C7.4537 7.02032 7.4432 7.03161 7.43002 7.03885C7.41683 7.04608 7.40167 7.04888 7.38677 7.04682C7.37187 7.04476 7.35804 7.03796 7.34731 7.02742C7.1884 6.87091 7.03438 6.69419 6.83944 6.47057C6.77005 6.39102 6.69605 6.30609 6.61561 6.21508C5.85489 5.35422 4.74933 4.86511 3.73036 4.93795C3.03762 4.98772 2.47162 5.29634 2.13672 5.80705C1.84568 6.25136 1.64186 6.98541 1.80455 7.44481C1.80825 7.45528 1.8094 7.46647 1.80791 7.47747C1.80643 7.48846 1.80234 7.49895 1.796 7.50806C1.78966 7.51717 1.78124 7.52464 1.77144 7.52986C1.76164 7.53508 1.75074 7.53789 1.73964 7.53806C1.29766 7.54492 0.94597 7.68682 0.722495 7.94854C0.490415 8.22046 0.397668 8.61429 0.461458 9.05769L0.461808 9.06077C0.462227 9.06265 0.462647 9.06468 0.462927 9.06664C0.511329 9.39777 0.642337 9.72722 0.841822 10.0193C0.848811 10.0296 0.852945 10.0415 0.853798 10.0539C0.854651 10.0663 0.852193 10.0787 0.846675 10.0898C0.841158 10.1009 0.832781 10.1104 0.822402 10.1172C0.812023 10.124 0.800016 10.128 0.787614 10.1286C0.761908 10.1301 0.736311 10.1331 0.710953 10.1376C0.337165 10.1999 0.216649 10.5406 0.178039 10.7381C0.0441632 11.4037 0.153348 12.6634 2.38804 13.6254C2.92109 13.8547 3.45394 13.8866 3.81353 13.7107C4.02987 13.6048 4.17039 13.4324 4.2311 13.198C4.30447 12.9148 4.19137 12.5809 3.92068 12.2817C3.91452 12.2749 3.90976 12.2669 3.90667 12.2583C3.90358 12.2496 3.90223 12.2405 3.90269 12.2313C3.90314 12.2221 3.9054 12.2131 3.90934 12.2048C3.91327 12.1966 3.9188 12.1891 3.92561 12.183C3.93242 12.1768 3.94038 12.172 3.94903 12.1689C3.95768 12.1659 3.96686 12.1645 3.97603 12.165C3.98521 12.1654 3.9942 12.1677 4.0025 12.1716C4.0108 12.1755 4.01825 12.1811 4.02441 12.1879C4.32721 12.5226 4.45192 12.9036 4.36644 13.2331C4.29601 13.5048 4.12604 13.7134 3.87494 13.8363C3.70273 13.9205 3.49597 13.9622 3.27054 13.9622Z" fill="#670A39"/>
<path d="M5.23523 14.5247C4.69916 14.5247 3.98523 14.4165 3.18855 13.9782C3.17264 13.9691 3.16094 13.9541 3.15599 13.9365C3.15103 13.9188 3.1532 13.9 3.16205 13.8839C3.17089 13.8678 3.18569 13.8559 3.20326 13.8506C3.22083 13.8454 3.23976 13.8472 3.25598 13.8558C4.55459 14.5702 5.62685 14.3782 6.03051 14.306C6.06527 14.2998 6.095 14.2945 6.11934 14.2907C6.35072 14.2549 6.67212 14.1405 6.91916 14.0057C6.9354 13.9973 6.95426 13.9957 6.97173 14.001C6.98919 14.0064 7.00387 14.0183 7.01262 14.0343C7.02137 14.0504 7.0235 14.0692 7.01856 14.0868C7.01362 14.1043 7.002 14.1193 6.98617 14.1284C6.7222 14.2723 6.39038 14.3903 6.14074 14.4288C6.11217 14.4334 6.08366 14.4384 6.0552 14.4436C5.88572 14.4739 5.60209 14.5247 5.23523 14.5247Z" fill="#670A39"/>
<path d="M78.201 27.4066C77.8319 27.6653 77.3487 27.912 76.7199 28.1287C76.3785 28.2465 76.0821 28.3124 75.8202 28.2734C74.9678 28.6379 74.1206 28.7098 73.2307 28.5569L72.7416 28.4492L71.9686 27.9878L71.7773 27.6961H71.7765L70.6968 26.917C70.6314 26.9061 70.5663 26.8931 70.5017 26.878C68.2011 26.335 68.0849 23.2432 69.1308 21.5725C69.5886 20.8421 70.068 19.7353 68.8937 18.5587C68.7174 18.3825 68.5141 18.1388 68.3775 17.8779V17.8771C68.3658 17.8546 68.3545 17.8318 68.3437 17.8089C68.3415 17.8036 68.3393 17.7991 68.337 17.7946C68.1869 17.4684 68.1555 17.1249 68.4211 16.8625C69.3575 15.9409 71.8224 16.5356 72.3259 18.7275C72.5338 19.6319 72.4468 20.264 72.2741 20.7979C72.5135 20.6052 72.7551 20.3668 73.0965 20.0488C74.1289 19.0896 75.5133 18.78 76.5563 19.1031C76.557 19.1031 76.557 19.1039 76.5578 19.1039C77.0951 19.2696 77.5415 19.604 77.8033 20.1035C78.0652 20.6059 78.1973 21.3978 77.9774 21.8658C79.5238 22.0428 79.5164 23.61 78.6872 24.5953C79.1712 24.6741 79.283 25.0963 79.3062 25.34C79.3618 25.888 79.2117 26.6942 78.201 27.4066Z" fill="#DF5468"/>
<path d="M75.8822 20.3188C76.2139 19.7202 75.1473 19.6456 74.1575 20.2121C73.1671 20.7789 72.1597 21.6804 72.5699 22.2578C73.4826 23.5834 73.1146 25.2207 72.5368 26.0658C72.5012 26.118 72.5351 26.1887 72.5982 26.1926C73.3678 26.24 74.2893 26.5564 74.8231 27.1021C76.4475 26.7162 77.0361 26.4998 78.1022 26.091C77.6513 24.2903 75.8822 20.3188 75.8822 20.3188Z" fill="#AF4357"/>
<path d="M75.2162 26.4924C73.5054 26.6244 72.9223 25.0212 74.4553 24.335C74.7757 24.191 75.0541 24.0314 75.3077 23.8836C74.5138 24.1221 73.5811 24.1183 73.0814 23.5514C73.0337 23.2386 72.9386 22.9349 72.7993 22.6508C72.733 22.5141 72.6562 22.3827 72.5696 22.2579C72.5006 22.1611 72.4721 22.0546 72.4766 21.9429C72.6155 21.8551 72.761 21.7381 72.9096 21.5769C74.0689 20.3186 75.8825 20.3186 75.8825 20.3186C75.8825 20.3186 77.6511 24.29 78.102 26.0913C77.0365 26.5 76.4482 26.7159 74.8267 27.1014C74.8837 26.8922 75.012 26.6814 75.2162 26.4924Z" fill="#AF4357"/>
<path d="M78.252 25.0819C79.0916 24.0981 78.8267 21.4172 77.068 22.9852C77.4259 22.5631 77.624 22.0906 77.6938 21.6212H77.6931C77.6961 21.5897 77.6975 21.559 77.6991 21.529L78.075 21.505C78.1305 21.0543 78.0067 20.4919 77.8033 20.1034C77.0342 18.6337 74.6616 18.5954 73.0965 20.0487C72.7543 20.3666 72.5127 20.6051 72.2748 20.7979C71.7809 21.2278 71.3771 21.2769 71.5792 20.6246L71.5787 20.6244C72.6851 16.018 67.2882 15.7695 68.3774 17.877V17.8778C68.514 18.1387 68.7173 18.3825 68.8936 18.5587C70.068 19.7353 69.5885 20.842 69.1308 21.5725C68.0849 23.2431 68.2022 26.3343 70.5033 26.8771L70.5016 26.878C71.251 27.6567 72.0713 27.9083 72.0713 27.9083C73.4444 28.3612 74.4807 27.8116 74.0253 27.3002C73.6106 26.8341 72.3807 26.4229 71.3582 26.5619C72.1424 25.9566 72.4549 24.9006 72.2209 24.0371C71.9624 23.0833 72.2091 22.148 72.6694 21.4471C72.9599 21.0051 73.5648 20.5512 74.1573 20.2123C75.147 19.6454 76.214 19.7204 75.8824 20.3187C75.3279 20.7177 74.0703 21.0784 73.6321 21.4053C71.9366 22.6657 72.9605 24.5888 75.3076 23.8837C75.054 24.0314 74.7756 24.1911 74.4553 24.3351C72.9223 25.0213 73.5054 26.6245 75.2162 26.4925C74.2747 27.3641 74.952 28.7161 76.7191 28.1288H76.7198C77.3508 27.9113 77.8348 27.6631 78.204 27.4029C79.4413 25.9645 78.7629 24.8667 78.252 25.0819Z" fill="#FF6D6D"/>
<path d="M67.3719 19.2259C67.3616 19.2259 67.3515 19.2237 67.3423 19.2193C67.333 19.215 67.3248 19.2088 67.3182 19.2009C67.3117 19.1931 67.3069 19.184 67.3042 19.1741C67.3016 19.1643 67.3011 19.1539 67.3029 19.1439C67.4558 18.2748 66.7992 17.6151 65.4041 17.236C65.3884 17.2318 65.3747 17.2222 65.3653 17.2089C65.356 17.1957 65.3515 17.1796 65.3527 17.1634C65.3539 17.1472 65.3606 17.132 65.3719 17.1202C65.3831 17.1085 65.398 17.1011 65.4142 17.0991C66.4152 16.9797 67.1073 16.6283 67.4713 16.0546C67.8204 15.5044 67.8524 14.7565 67.5638 13.8919C67.5588 13.8769 67.559 13.8606 67.5645 13.8457C67.5699 13.8308 67.5803 13.8183 67.5938 13.81C67.6074 13.8018 67.6233 13.7984 67.6391 13.8005C67.6548 13.8025 67.6694 13.8098 67.6804 13.8212C69.1704 15.3585 70.9129 15.0529 71.979 14.068C71.9912 14.0566 72.0072 14.05 72.024 14.0494C72.0408 14.0487 72.0572 14.0542 72.0703 14.0647C72.0834 14.0752 72.0922 14.09 72.0953 14.1065C72.0983 14.123 72.0953 14.14 72.0868 14.1545C71.5398 15.093 71.9041 15.6684 72.306 15.9859C72.3132 15.9916 72.3192 15.9987 72.3237 16.0067C72.3282 16.0147 72.331 16.0235 72.3321 16.0326C72.3332 16.0417 72.3324 16.051 72.3299 16.0598C72.3274 16.0686 72.3232 16.0769 72.3175 16.0841C72.3118 16.0913 72.3048 16.0973 72.2967 16.1018C72.2887 16.1063 72.2799 16.1092 72.2707 16.1103C72.2616 16.1113 72.2524 16.1106 72.2435 16.1081C72.2347 16.1055 72.2264 16.1013 72.2192 16.0955C71.6706 15.6623 71.5318 15.0641 71.8135 14.3884C70.7387 15.2006 69.1683 15.3877 67.775 14.1085C67.9884 14.905 67.9255 15.5994 67.5893 16.1292C67.2418 16.6771 66.6218 17.0336 65.744 17.1913C67.3326 17.709 67.5506 18.5424 67.4405 19.1679C67.4377 19.1841 67.4294 19.1988 67.4168 19.2094C67.4042 19.22 67.3883 19.2259 67.3719 19.2259Z" fill="#670A39"/>
<path d="M77.0678 22.9849C78.827 21.4174 79.0918 24.098 78.252 25.0818C78.7639 24.8667 79.4427 25.967 78.2006 27.4062C79.2119 26.6943 79.3615 25.8882 79.3064 25.3398C79.2827 25.0964 79.1714 24.6741 78.6871 24.5951C79.5163 23.6102 79.5241 22.0423 77.9777 21.8656C78.1969 21.3979 78.0654 20.6058 77.8031 20.1037C77.5414 19.604 77.0947 19.2694 76.558 19.1037C77.7032 19.7072 78.233 21.6145 77.0678 22.9849Z" fill="#AF4357"/>
<path d="M74.3563 24.1132C73.5659 24.1132 73.0644 23.74 72.8517 23.3428C72.4699 22.6301 72.9476 21.8276 73.5903 21.3485C73.8078 21.1863 74.2099 21.0207 74.6357 20.8454C75.0901 20.6582 75.5601 20.4647 75.8413 20.2621C75.8564 20.2512 75.8751 20.2468 75.8935 20.2498C75.9118 20.2528 75.9281 20.2629 75.939 20.2779C75.9498 20.293 75.9542 20.3117 75.9513 20.33C75.9483 20.3483 75.9382 20.3647 75.9231 20.3755C75.6285 20.5877 75.1508 20.7844 74.6889 20.9746C74.2716 21.1465 73.8773 21.3089 73.6739 21.4605C73.0792 21.9039 72.6325 22.6374 72.975 23.2768C73.2318 23.7563 73.9616 24.1943 75.1732 23.8503C76.4884 23.477 77.4621 22.7613 77.9147 21.8352C77.9188 21.827 77.9244 21.8196 77.9313 21.8135C77.9381 21.8075 77.9461 21.8028 77.9548 21.7998C77.9635 21.7968 77.9727 21.7956 77.9819 21.7962C77.991 21.7967 78 21.7991 78.0082 21.8031C78.0165 21.8071 78.0238 21.8127 78.0299 21.8196C78.036 21.8265 78.0407 21.8345 78.0437 21.8432C78.0466 21.8518 78.0479 21.861 78.0473 21.8702C78.0467 21.8793 78.0444 21.8883 78.0404 21.8965C77.57 22.8589 76.5653 23.6005 75.2113 23.9848C74.8963 24.0743 74.6112 24.1132 74.3563 24.1132Z" fill="#670A39"/>
<path d="M74.9828 26.5684C74.3504 26.5684 73.752 26.3407 73.5456 25.6978C73.3697 25.1499 73.7154 24.5898 74.4263 24.271C74.7682 24.1176 75.0824 23.9578 75.3603 23.7961C75.3683 23.7912 75.3771 23.788 75.3863 23.7866C75.3955 23.7852 75.4049 23.7856 75.414 23.7879C75.423 23.7902 75.4315 23.7943 75.4389 23.7999C75.4464 23.8055 75.4526 23.8125 75.4573 23.8205C75.462 23.8286 75.465 23.8375 75.4662 23.8467C75.4674 23.8559 75.4667 23.8653 75.4643 23.8743C75.4618 23.8833 75.4575 23.8917 75.4518 23.899C75.446 23.9063 75.4388 23.9124 75.4307 23.9169C75.1486 24.0811 74.8299 24.2431 74.4836 24.3985C73.8322 24.6908 73.5237 25.1722 73.6787 25.6551C73.7573 25.9002 74.1274 26.6751 75.5882 26.3618C77.299 25.995 78.1138 25.2015 78.6325 24.5512C78.6382 24.544 78.6453 24.538 78.6534 24.5336C78.6614 24.5291 78.6702 24.5263 78.6793 24.5253C78.6885 24.5243 78.6977 24.525 78.7065 24.5276C78.7154 24.5301 78.7236 24.5343 78.7308 24.5401C78.738 24.5458 78.744 24.5529 78.7484 24.5609C78.7528 24.5689 78.7557 24.5778 78.7567 24.5869C78.7577 24.596 78.757 24.6052 78.7544 24.614C78.7519 24.6229 78.7476 24.6311 78.7419 24.6383C78.2087 25.3068 77.3717 26.1224 75.6176 26.4985C75.4113 26.5427 75.1951 26.5684 74.9828 26.5684Z" fill="#670A39"/>
<path d="M75.9156 28.3466C75.6313 28.3467 75.3793 28.2831 75.1747 28.1562C74.9237 28.0006 74.7645 27.7536 74.7267 27.4606C74.6815 27.1112 74.8465 26.7375 75.1795 26.4355C75.1862 26.4292 75.1942 26.4243 75.2029 26.4211C75.2116 26.4179 75.2208 26.4164 75.23 26.4168C75.2393 26.4172 75.2484 26.4194 75.2567 26.4233C75.2651 26.4272 75.2727 26.4328 75.2789 26.4396C75.2851 26.4465 75.2899 26.4545 75.293 26.4632C75.2961 26.4719 75.2975 26.4812 75.297 26.4904C75.2965 26.4996 75.2941 26.5087 75.2901 26.517C75.2861 26.5254 75.2805 26.5328 75.2735 26.5389C74.975 26.8098 74.8263 27.1393 74.8655 27.4427C74.8984 27.6968 75.0308 27.9025 75.2486 28.0375C75.594 28.2516 76.1217 28.2608 76.6965 28.0627C76.7052 28.0594 76.7146 28.0579 76.7239 28.0583C76.7332 28.0587 76.7424 28.0609 76.7508 28.0649C76.7593 28.0689 76.7669 28.0745 76.7731 28.0815C76.7793 28.0884 76.7841 28.0965 76.7872 28.1053C76.7902 28.1142 76.7915 28.1235 76.7908 28.1328C76.7902 28.1421 76.7877 28.1512 76.7835 28.1596C76.7793 28.1679 76.7735 28.1753 76.7664 28.1814C76.7593 28.1874 76.751 28.192 76.7421 28.1948C76.4481 28.2962 76.169 28.3466 75.9156 28.3466Z" fill="#670A39"/>
<path d="M74.0279 28.7303C73.596 28.7303 73.1694 28.6622 72.7498 28.5258C72.4388 28.4247 71.968 28.1641 71.6644 27.7624C71.6532 27.7476 71.6484 27.7289 71.651 27.7106C71.6535 27.6922 71.6633 27.6756 71.6781 27.6645C71.6929 27.6533 71.7115 27.6485 71.7299 27.651C71.7483 27.6536 71.7649 27.6633 71.776 27.6781C72.0601 28.0539 72.5014 28.298 72.793 28.3928C73.7613 28.7076 74.7705 28.6458 75.7927 28.2091C75.8046 28.2042 75.8176 28.2025 75.8304 28.2043C76.0501 28.2363 76.3175 28.1927 76.6972 28.0626C77.7118 27.713 79.3911 26.8952 79.2375 25.3468C79.2105 25.0726 79.0911 24.7318 78.676 24.6643C78.6638 24.6623 78.6523 24.6571 78.6428 24.6493C78.6332 24.6414 78.6259 24.6312 78.6216 24.6196C78.6173 24.608 78.6162 24.5955 78.6183 24.5833C78.6204 24.5711 78.6257 24.5597 78.6337 24.5502C79.1186 23.9739 79.2988 23.221 79.0821 22.6771C78.9143 22.2557 78.5296 21.9992 77.9694 21.935C77.9584 21.9338 77.9478 21.93 77.9386 21.9238C77.9293 21.9177 77.9217 21.9094 77.9163 21.8997C77.9108 21.8901 77.9078 21.8792 77.9074 21.8681C77.907 21.857 77.9093 21.846 77.914 21.836C77.9594 21.7391 77.9901 21.6249 78.0055 21.4967C78.0565 21.082 77.9503 20.5352 77.7413 20.1358C77.4517 19.5824 76.9068 19.2113 76.2069 19.0912C75.1779 18.9144 74.0044 19.3012 73.144 20.0999C73.0537 20.1837 72.9705 20.2621 72.8924 20.3355C72.6708 20.544 72.4958 20.7087 72.3187 20.8522C72.3071 20.8617 72.2926 20.8673 72.2776 20.8679C72.2625 20.8686 72.2476 20.8644 72.2352 20.8559C72.2227 20.8474 72.2133 20.8351 72.2084 20.8209C72.2035 20.8066 72.2034 20.7912 72.208 20.7768C72.2182 20.7448 72.2275 20.7154 72.2361 20.6859C72.4177 20.0685 72.4244 19.4694 72.2575 18.743C72.0187 17.702 71.2828 16.9075 70.2893 16.6179C69.5659 16.407 68.8688 16.5198 68.47 16.9123C68.351 17.0298 68.2929 17.1673 68.2923 17.3327C68.2906 17.8182 68.79 18.3561 68.9431 18.5094C70.1478 19.7164 69.661 20.8568 69.19 21.6096C68.5015 22.7091 68.3679 24.3175 68.8721 25.4345C69.2265 26.2195 69.8611 26.7083 70.7073 26.8481C70.7455 26.8544 70.7713 26.8903 70.7649 26.9284C70.7635 26.9375 70.7602 26.9462 70.7554 26.954C70.7505 26.9618 70.7442 26.9686 70.7367 26.974C70.7292 26.9793 70.7208 26.9831 70.7118 26.9852C70.7028 26.9873 70.6935 26.9875 70.6845 26.986C69.7899 26.8382 69.1192 26.3216 68.7446 25.4919C68.2225 24.3355 68.3599 22.6716 69.0714 21.5355C70.0019 20.0481 69.3873 19.1524 68.8441 18.6081C68.6355 18.3993 68.1506 17.857 68.1524 17.3323C68.1531 17.1306 68.2269 16.9558 68.3717 16.8127C68.8067 16.3847 69.5565 16.2585 70.3284 16.4837C71.3713 16.7878 72.1435 17.6208 72.3938 18.7118C72.5522 19.4015 72.5566 20.0037 72.4062 20.5943C72.5249 20.4893 72.6504 20.3712 72.7964 20.2338C72.8802 20.1548 72.9643 20.0761 73.0486 19.9976C73.9402 19.1697 75.1595 18.7699 76.2304 18.9535C76.9742 19.0812 77.5548 19.4781 77.8651 20.071C78.0862 20.4936 78.1984 21.0733 78.1441 21.5135C78.1314 21.6204 78.1087 21.7192 78.0764 21.8085C78.7868 21.918 79.086 22.3094 79.2119 22.6255C79.436 23.1881 79.2746 23.9497 78.8116 24.5521C79.2456 24.6805 79.3523 25.0889 79.3764 25.3332C79.5396 26.9772 77.7961 27.8318 76.7424 28.1949C76.3458 28.3309 76.071 28.3763 75.8295 28.3454C75.2234 28.6018 74.6208 28.7303 74.0279 28.7303ZM28.905 47.2853C28.7296 47.2853 28.5534 47.2546 28.3822 47.1932C27.9764 47.0473 27.6592 46.7489 27.489 46.3529L24.863 40.2458C24.6101 39.6569 24.1121 39.2172 23.4967 39.0396C21.6062 38.4914 19.6794 37.9333 17.6984 37.3594L16.6931 37.0684C15.9313 36.848 15.335 36.3535 15.0138 35.676C14.6927 34.9987 14.6875 34.2243 14.9992 33.4958L23.0866 14.5821C23.789 12.9398 25.7651 11.9788 27.4919 12.4402L37.7973 15.1964C44.6361 17.0254 52.426 19.1088 56.8999 20.3055C57.7573 20.5348 58.4415 21.0763 58.8265 21.8302C59.2114 22.5837 59.2488 23.4545 58.9319 24.2822L58.8772 24.4253C58.8543 24.4852 58.8311 24.5457 58.8079 24.6071L56.0028 31.9352C54.39 36.1487 52.6593 40.6698 51.5402 43.593C50.862 45.3647 48.827 46.3764 47.004 45.8485L42.2718 44.4775C40.6015 43.9937 39.1439 43.5715 38.2775 43.3202C37.7536 43.1685 37.1969 43.2224 36.71 43.4716L29.6053 47.1143C29.3838 47.2279 29.1452 47.2853 28.905 47.2853ZM26.5962 12.464C25.1834 12.464 23.7768 13.3244 23.2154 14.637L15.128 33.5506C14.8322 34.242 14.8366 34.9755 15.1403 35.6162C15.4441 36.2569 16.0094 36.725 16.7322 36.9341L17.7375 37.2252C19.7184 37.799 21.6453 38.3571 23.5357 38.9053C24.1914 39.0946 24.7221 39.5631 24.9915 40.1907L27.6176 46.2977C27.7723 46.6577 28.0607 46.929 28.4296 47.0616C28.7982 47.1942 29.193 47.1687 29.5413 46.9899L36.646 43.3473C37.1648 43.0816 37.758 43.0245 38.3164 43.1859C39.1828 43.4372 40.6404 43.8595 42.3106 44.3433L47.0428 45.7143C48.7976 46.2227 50.7566 45.2486 51.4094 43.543C52.5286 40.6199 54.2592 36.0988 55.8721 31.8853L58.6772 24.5574C58.7004 24.4961 58.7237 24.4353 58.7467 24.3753L58.8013 24.2324L58.8014 24.2322C59.1039 23.442 59.0686 22.6115 58.702 21.8938C58.3352 21.1756 57.6824 20.6594 56.8638 20.4405C52.3899 19.2438 44.6 17.1604 37.7612 15.3314L27.4558 12.5752C27.1754 12.5008 26.8864 12.4635 26.5962 12.464Z" fill="#670A39"/>
</g>
<defs>
<clipPath id="clip0_50_2">
<rect width="79.3867" height="50.7348" fill="white"/>
</clipPath>
</defs>
</svg>
