<svg width="20" height="18" viewBox="0 0 20 18" fill="none" xmlns="http://www.w3.org/2000/svg">
<path d="M6.56646 14.1759C5.98087 13.9589 5.32891 14.0513 4.8253 14.4329C4.50517 14.674 3.95471 15.0274 3.28714 15.3448C3.50576 14.7543 3.67363 14.0875 3.72828 13.3604C3.76732 12.8422 3.59945 12.3281 3.26762 11.9344C2.35799 10.8779 1.8739 9.64071 1.8739 8.35528C1.8739 5.16179 5.1259 1.92814 9.99414 1.92814C14.8624 1.92814 18.1144 5.16179 18.1144 8.35528C18.1144 11.5488 14.8624 14.7824 9.99414 14.7824C8.76049 14.7824 7.60102 14.5615 6.56646 14.1759ZM1.02674 15.7385C0.964279 15.8469 0.897911 15.9554 0.82764 16.0638L0.815928 16.0839C0.753465 16.1763 0.691001 16.2687 0.628538 16.3611C0.491899 16.5499 0.343549 16.7347 0.18739 16.9034C0.00780794 17.0882 -0.0429436 17.3613 0.0546555 17.6023C0.152255 17.8433 0.378684 18 0.632442 18C0.831544 18 1.03065 17.9879 1.22975 17.9679L1.25708 17.9638C1.42885 17.9438 1.60062 17.9197 1.7724 17.8875C1.80363 17.8835 1.83486 17.8755 1.86609 17.8674C2.561 17.7268 3.22858 17.4858 3.82198 17.2207C4.71599 16.819 5.47726 16.341 5.94183 15.9915C7.18329 16.4535 8.55749 16.7106 10.0059 16.7106C15.5261 16.7106 20 12.9708 20 8.35528C20 3.73979 15.5143 0 9.99414 0C4.47394 0 0 3.73979 0 8.35528C0 10.1669 0.691001 11.842 1.86219 13.2118C1.78801 14.1959 1.41714 15.0716 1.02674 15.7385ZM5.62171 9.64071C5.95303 9.64071 6.27079 9.50528 6.50507 9.26421C6.73936 9.02315 6.87097 8.69619 6.87097 8.35528C6.87097 8.01436 6.73936 7.68741 6.50507 7.44634C6.27079 7.20528 5.95303 7.06985 5.62171 7.06985C5.29038 7.06985 4.97262 7.20528 4.73834 7.44634C4.50406 7.68741 4.37244 8.01436 4.37244 8.35528C4.37244 8.69619 4.50406 9.02315 4.73834 9.26421C4.97262 9.50528 5.29038 9.64071 5.62171 9.64071ZM11.2434 8.35528C11.2434 8.01436 11.1118 7.68741 10.8775 7.44634C10.6432 7.20528 10.3255 7.06985 9.99414 7.06985C9.66282 7.06985 9.34506 7.20528 9.11078 7.44634C8.8765 7.68741 8.74488 8.01436 8.74488 8.35528C8.74488 8.69619 8.8765 9.02315 9.11078 9.26421C9.34506 9.50528 9.66282 9.64071 9.99414 9.64071C10.3255 9.64071 10.6432 9.50528 10.8775 9.26421C11.1118 9.02315 11.2434 8.69619 11.2434 8.35528ZM14.3666 9.64071C14.6979 9.64071 15.0157 9.50528 15.2499 9.26421C15.4842 9.02315 15.6159 8.69619 15.6159 8.35528C15.6159 8.01436 15.4842 7.68741 15.2499 7.44634C15.0157 7.20528 14.6979 7.06985 14.3666 7.06985C14.0353 7.06985 13.7175 7.20528 13.4832 7.44634C13.2489 7.68741 13.1173 8.01436 13.1173 8.35528C13.1173 8.69619 13.2489 9.02315 13.4832 9.26421C13.7175 9.50528 14.0353 9.64071 14.3666 9.64071Z" fill="#454545"/>
</svg>
