<svg width="12" height="12" viewBox="0 0 12 12" fill="none" xmlns="http://www.w3.org/2000/svg">
<path d="M0.749902 2.25002H8.2499V0.750023C8.2499 0.447679 8.43271 0.173461 8.71396 0.056273C8.99521 -0.0609145 9.31631 0.00471052 9.53193 0.217992L11.7819 2.46799C11.9226 2.60862 12.0022 2.79846 12.0022 2.99768C12.0022 3.1969 11.9226 3.38674 11.7819 3.52737L9.53193 5.77737C9.31631 5.99299 8.99521 6.05627 8.71396 5.93909C8.43271 5.8219 8.2499 5.55002 8.2499 5.24534V3.75002H0.749902C0.335059 3.75002 -9.76562e-05 3.41487 -9.76562e-05 3.00002C-9.76562e-05 2.58518 0.335059 2.25002 0.749902 2.25002ZM11.2499 8.25002C11.6647 8.25002 11.9999 8.58518 11.9999 9.00002C11.9999 9.41487 11.6647 9.75002 11.2499 9.75002H3.7499V11.25C3.7499 11.5524 3.56709 11.8266 3.28584 11.9438C3.00459 12.061 2.6835 11.9953 2.46787 11.7821L0.217871 9.53205C0.0772461 9.39143 -0.00244141 9.20159 -0.00244141 9.00237C-0.00244141 8.80315 0.0772461 8.61331 0.217871 8.47268L2.46787 6.22268C2.6835 6.00705 3.00459 5.94377 3.28584 6.06096C3.56709 6.17815 3.7499 6.45002 3.7499 6.75471V8.25471H11.2499V8.25002Z" fill="#DF5468"/>
</svg>
