<svg width="29" height="26" viewBox="0 0 29 26" fill="none" xmlns="http://www.w3.org/2000/svg">
<path d="M28.9899 12.9746C28.9899 13.8887 28.2347 14.6047 27.3788 14.6047H25.7677L25.803 22.7398C25.803 22.877 25.7929 23.0141 25.7778 23.1512V23.9688C25.7778 25.091 24.8766 26 23.7639 26H22.9583C22.903 26 22.8476 26 22.7922 25.9949C22.7217 26 22.6512 26 22.5807 26H20.9444H19.7361C18.6234 26 17.7222 25.091 17.7222 23.9688V22.75V19.5C17.7222 18.6012 17.0023 17.875 16.1111 17.875H12.8889C11.9977 17.875 11.2778 18.6012 11.2778 19.5V22.75V23.9688C11.2778 25.091 10.3766 26 9.26389 26H8.05556H6.44948C6.37396 26 6.29844 25.9949 6.22292 25.9898C6.1625 25.9949 6.10208 26 6.04167 26H5.23611C4.12344 26 3.22222 25.091 3.22222 23.9688V18.2812C3.22222 18.2355 3.22222 18.1848 3.22726 18.1391V14.6047H1.61111C0.704861 14.6047 0 13.8938 0 12.9746C0 12.5176 0.151042 12.1113 0.503472 11.7559L13.4125 0.40625C13.7649 0.0507812 14.1677 0 14.5201 0C14.8726 0 15.2753 0.101562 15.5774 0.355469L28.4361 11.7559C28.8389 12.1113 29.0403 12.5176 28.9899 12.9746Z" fill="#454545"/>
</svg>
