<svg width="20" height="17" viewBox="0 0 20 17" fill="none" xmlns="http://www.w3.org/2000/svg">
<path d="M1.85938 10.0268L8.91797 16.5768C9.21094 16.8486 9.59766 17 10 17C10.4023 17 10.7891 16.8486 11.082 16.5768L18.1406 10.0268C19.3281 8.92804 20 7.38664 20 5.77536V5.55017C20 2.83622 18.0273 0.522177 15.3359 0.0756762C13.5547 -0.219403 11.7422 0.359107 10.4688 1.62484L10 2.09075L9.53125 1.62484C8.25781 0.359107 6.44531 -0.219403 4.66406 0.0756762C1.97266 0.522177 0 2.83622 0 5.55017V5.77536C0 7.38664 0.671875 8.92804 1.85938 10.0268Z" fill="#DF5468"/>
</svg>
