<svg width="20" height="17" viewBox="0 0 20 17" fill="none" xmlns="http://www.w3.org/2000/svg">
<path d="M8.82031 16.5374L8.72266 16.4479L1.87891 10.1227C0.679687 9.0147 0 7.45962 0 5.83068V5.70239C0 2.96546 1.95312 0.617299 4.65625 0.104125C6.19531 -0.191339 7.76953 0.16244 9.02344 1.04106C9.375 1.28987 9.70312 1.57756 10 1.90801C10.1641 1.7214 10.3398 1.55034 10.5273 1.39095C10.6719 1.26654 10.8203 1.14991 10.9766 1.04106C12.2305 0.16244 13.8047 -0.191339 15.3438 0.100238C18.0469 0.613412 20 2.96546 20 5.70239V5.83068C20 7.45962 19.3203 9.0147 18.1211 10.1227L11.2773 16.4479L11.1797 16.5374C10.8594 16.8328 10.4375 17 10 17C9.5625 17 9.14062 16.8367 8.82031 16.5374ZM9.33984 3.97237C9.32422 3.96071 9.3125 3.94516 9.30078 3.92961L8.60547 3.15207L8.60156 3.14818C7.69922 2.14127 6.33594 1.68252 5.00781 1.93522C3.1875 2.28123 1.875 3.85963 1.875 5.70239V5.83068C1.875 6.93867 2.33984 8.00001 3.15625 8.75422L10 15.0795L16.8438 8.75422C17.6602 8.00001 18.125 6.93867 18.125 5.83068V5.70239C18.125 3.86352 16.8125 2.28123 14.9961 1.93522C13.668 1.68252 12.3008 2.14516 11.4023 3.14818C11.4023 3.14818 11.4023 3.14818 11.3984 3.15207C11.3945 3.15596 11.3984 3.15207 11.3945 3.15596L10.6992 3.93349C10.6875 3.94904 10.6719 3.96071 10.6602 3.97626C10.4844 4.1512 10.2461 4.2484 10 4.2484C9.75391 4.2484 9.51562 4.1512 9.33984 3.97626V3.97237Z" fill="#454545"/>
</svg>
