<svg width="26" height="26" viewBox="0 0 26 26" fill="none" xmlns="http://www.w3.org/2000/svg">
<g clip-path="url(#clip0_13_89)">
<path d="M8.125 18.6875C9.4707 18.6875 10.5625 19.7793 10.5625 21.125V21.9375L14.2441 19.175C14.6656 18.8602 15.1785 18.6875 15.7066 18.6875H22.75C23.1969 18.6875 23.5625 18.3219 23.5625 17.875V3.25C23.5625 2.80312 23.1969 2.4375 22.75 2.4375H3.25C2.80312 2.4375 2.4375 2.80312 2.4375 3.25V17.875C2.4375 18.3219 2.80312 18.6875 3.25 18.6875H8.125ZM10.5625 24.9844L10.5523 24.9945L10.2934 25.1875L9.425 25.8375C9.18125 26.0203 8.85117 26.0508 8.57188 25.9137C8.29258 25.7766 8.125 25.4973 8.125 25.1875V24.1059V23.7809V23.7656V23.5625V21.125H5.6875H3.25C1.45742 21.125 0 19.6676 0 17.875V3.25C0 1.45742 1.45742 0 3.25 0H22.75C24.5426 0 26 1.45742 26 3.25V17.875C26 19.6676 24.5426 21.125 22.75 21.125H15.7066L10.5625 24.9844Z" fill="#454545"/>
<path d="M7 11.5C7 11.8978 7.16389 12.2794 7.45561 12.5607C7.74733 12.842 8.143 13 8.55556 13C8.96811 13 9.36378 12.842 9.6555 12.5607C9.94722 12.2794 10.1111 11.8978 10.1111 11.5C10.1111 11.1022 9.94722 10.7206 9.6555 10.4393C9.36378 10.158 8.96811 10 8.55556 10C8.143 10 7.74733 10.158 7.45561 10.4393C7.16389 10.7206 7 11.1022 7 11.5ZM11.4444 11.5C11.4444 11.8978 11.6083 12.2794 11.9001 12.5607C12.1918 12.842 12.5874 13 13 13C13.4126 13 13.8082 12.842 14.0999 12.5607C14.3917 12.2794 14.5556 11.8978 14.5556 11.5C14.5556 11.1022 14.3917 10.7206 14.0999 10.4393C13.8082 10.158 13.4126 10 13 10C12.5874 10 12.1918 10.158 11.9001 10.4393C11.6083 10.7206 11.4444 11.1022 11.4444 11.5ZM17.4444 13C17.857 13 18.2527 12.842 18.5444 12.5607C18.8361 12.2794 19 11.8978 19 11.5C19 11.1022 18.8361 10.7206 18.5444 10.4393C18.2527 10.158 17.857 10 17.4444 10C17.0319 10 16.6362 10.158 16.3445 10.4393C16.0528 10.7206 15.8889 11.1022 15.8889 11.5C15.8889 11.8978 16.0528 12.2794 16.3445 12.5607C16.6362 12.842 17.0319 13 17.4444 13Z" fill="#454545"/>
</g>
<defs>
<clipPath id="clip0_13_89">
<rect width="26" height="26" fill="white"/>
</clipPath>
</defs>
</svg>
