<svg width="25" height="26" viewBox="0 0 25 26" fill="none" xmlns="http://www.w3.org/2000/svg">
<path d="M3.57143 2.78571C3.08036 2.78571 2.67857 3.20357 2.67857 3.71429V22.2857C2.67857 22.7964 3.08036 23.2143 3.57143 23.2143H21.4286C21.9196 23.2143 22.3214 22.7964 22.3214 22.2857V3.71429C22.3214 3.20357 21.9196 2.78571 21.4286 2.78571H3.57143ZM0 3.71429C0 1.66562 1.60156 0 3.57143 0H21.4286C23.3984 0 25 1.66562 25 3.71429V22.2857C25 24.3344 23.3984 26 21.4286 26H3.57143C1.60156 26 0 24.3344 0 22.2857V3.71429ZM11.1607 18.1071V14.3929H7.58929C6.8471 14.3929 6.25 13.7719 6.25 13C6.25 12.2281 6.8471 11.6071 7.58929 11.6071H11.1607V7.89286C11.1607 7.12098 11.7578 6.5 12.5 6.5C13.2422 6.5 13.8393 7.12098 13.8393 7.89286V11.6071H17.4107C18.1529 11.6071 18.75 12.2281 18.75 13C18.75 13.7719 18.1529 14.3929 17.4107 14.3929H13.8393V18.1071C13.8393 18.879 13.2422 19.5 12.5 19.5C11.7578 19.5 11.1607 18.879 11.1607 18.1071Z" fill="#454545"/>
</svg>
