<svg width="76" height="48" viewBox="0 0 76 48" fill="none" xmlns="http://www.w3.org/2000/svg">
<g clip-path="url(#clip0_13_3)">
<path d="M56.2484 22.5391L28.4253 15.0981C26.8262 14.6704 24.9862 15.5653 24.3357 17.0865L16.6842 34.9805C16.0902 36.3698 16.7922 37.8507 18.2442 38.2713L24.6811 40.1358C24.9769 40.2214 25.2501 40.3716 25.4809 40.5754C25.7116 40.7792 25.8944 41.0315 26.0159 41.3144L28.5003 47.0928C28.8181 47.8319 29.6957 48.1475 30.4119 47.7803L37.1331 44.3338C37.6061 44.0911 38.1541 44.0384 38.6648 44.1863L46.9212 46.5778C48.6096 47.0668 50.5046 46.1248 51.1326 44.4839L58.1258 26.2142C58.7318 24.6309 57.8869 22.9773 56.2484 22.5391Z" fill="#FF6D6D"/>
<path d="M29.7792 48.0009C29.6131 48.0009 29.4462 47.9719 29.2841 47.9137C28.9004 47.7757 28.6004 47.4935 28.4394 47.1189L25.955 41.3405C25.8377 41.0664 25.6609 40.8218 25.4374 40.6244C25.2138 40.4271 24.9492 40.2819 24.6626 40.1994L18.2256 38.3349C17.5049 38.1261 16.9407 37.6582 16.6369 37.0175C16.3332 36.3767 16.3283 35.6441 16.6231 34.9546L24.2747 17.0607C24.9393 15.5064 26.8087 14.5975 28.4422 15.0343L56.2653 22.4753C57.0762 22.6921 57.7234 23.2043 58.0876 23.9174C58.4518 24.6304 58.4872 25.4545 58.1873 26.238L51.1943 44.5076C50.5526 46.1838 48.6273 47.141 46.9025 46.6413L38.649 44.2506C38.1498 44.106 37.6231 44.1567 37.1631 44.3927L30.4418 47.8391C30.2323 47.9466 30.0065 48.0009 29.7792 48.0009ZM27.5942 15.0565C26.258 15.0565 24.9275 15.8705 24.3964 17.1125L16.745 35.0065C16.4653 35.6608 16.4694 36.3548 16.7566 36.9608C17.0439 37.5668 17.5787 38.0097 18.2626 38.2078L24.6995 40.0722C25.0049 40.1601 25.2869 40.3149 25.5251 40.5252C25.7633 40.7355 25.9516 40.9961 26.0766 41.2882L28.561 47.0666C28.7074 47.407 28.9801 47.6636 29.329 47.7892C29.6779 47.9147 30.0517 47.8905 30.3816 47.7214L37.1028 44.275C37.5906 44.0238 38.1563 43.9693 38.6831 44.1228L46.9395 46.5142C48.5998 46.9953 50.4532 46.0739 51.0708 44.4603L58.0639 26.1906C58.3502 25.4426 58.3168 24.6567 57.9699 23.9774C57.623 23.2981 57.0055 22.81 56.2312 22.6029L28.408 15.162C28.1425 15.0915 27.8689 15.056 27.5942 15.0565Z" fill="#670A39"/>
<path d="M58.1259 26.214C56.3621 30.8223 52.9214 39.811 51.1325 44.4839C50.5043 46.1251 48.6091 47.0668 46.9211 46.5779C43.7861 45.6694 40.2196 44.6366 38.6649 44.1859C38.1542 44.0383 37.6063 44.0912 37.1332 44.3339L30.4116 47.7802C30.216 47.8808 29.9992 47.9335 29.7791 47.9337C29.3489 47.9337 28.9327 47.7329 28.6679 47.3808C28.6665 47.3787 28.5685 47.2475 28.4129 47.0385C27.7909 46.2036 26.2474 44.1332 26.2404 44.1242L27.0515 43.7234L26.0159 41.3147C25.8945 41.0318 25.7118 40.7793 25.4809 40.5755C25.2501 40.3717 24.9768 40.2216 24.6809 40.1361C22.5912 39.5304 20.4548 38.9116 18.2442 38.2712C17.6639 38.1031 17.2045 37.7656 16.8988 37.3329H16.8981L14.5227 34.1456L55.3566 20.2986L57.7417 23.5011L57.741 23.5018C58.3198 24.2304 58.5005 25.2354 58.1259 26.214Z" fill="#DF5468"/>
<path d="M56.788 29.7096C56.6261 30.1325 56.4594 30.5674 56.2897 31.0111L48.452 20.2777L48.937 18.9587L56.788 29.7096ZM57.1612 28.733C57.1042 28.883 57.0459 29.0351 56.9875 29.1894L51.4598 21.6203L51.8663 21.4821L57.1612 28.733ZM57.7645 27.1592C57.7284 27.2525 57.6925 27.3457 57.6567 27.4391L53.7261 22.0564V21.6293L57.7645 27.1592ZM51.0254 44.7325C50.9603 44.8675 50.8858 44.9977 50.8023 45.1221L42.1201 33.2323V32.5378L51.0254 44.7325ZM51.3437 43.9324C51.3076 44.0276 51.2714 44.1206 51.2367 44.2123L46.0564 37.119V36.6925L51.3437 43.9324Z" fill="#ED7981"/>
<path d="M50.5356 45.4729C49.6662 46.4751 48.2311 46.9571 46.9211 46.5779C43.7861 45.6694 40.2196 44.6366 38.6649 44.1859C38.1542 44.0383 37.6063 44.0912 37.1332 44.3339L30.4116 47.7802C30.216 47.8808 29.9992 47.9335 29.7791 47.9337C29.3489 47.9337 28.9327 47.733 28.6679 47.3808L26.2404 44.1242C26.2404 44.1242 24.9646 40.8618 24.6809 40.1361C22.5912 39.5304 20.4548 38.9116 18.2442 38.2712C17.6639 38.1032 17.2045 37.7656 16.8988 37.3329H16.8981L14.563 34.1998L14.5227 34.1456L21.0116 31.9453L43.39 35.6882L50.5356 45.4729Z" fill="#DF5468"/>
<path d="M44.6097 45.9077C44.4304 45.8549 44.2559 45.8042 44.0871 45.7556L37.7505 37.0787V36.5147L44.6097 45.9077ZM43.2621 45.516C41.8291 45.0985 40.8179 44.8041 40.0987 44.5964H40.098L33.9531 36.1821L36.0492 35.6375L43.2621 45.516Z" fill="#ED7981"/>
<path d="M50.0506 45.9334C49.1853 46.6134 48.0101 46.8933 46.9212 46.578C46.9142 46.5759 46.9073 46.5738 46.9003 46.5718L42.2579 40.2153L45.199 39.2895L50.0506 45.9334ZM37.1987 44.3019C37.1765 44.3124 37.1549 44.3228 37.1334 44.3339L36.469 44.6742L31.5451 47.1988L30.4116 47.7802C30.3734 47.7996 30.3345 47.817 30.2956 47.8329L26.7033 42.9135L24.6733 40.134C22.5863 39.529 20.4521 38.9109 18.2442 38.2712C17.6639 38.1032 17.2045 37.7656 16.8988 37.3329H16.8981L14.563 34.1998L14.5227 34.1456L21.0116 31.9453L30.3498 34.9242L37.1987 44.3019Z" fill="#AF4357"/>
<path d="M26.8645 42.2329L26.4079 42.2267L26.0159 41.3147C25.8945 41.0318 25.7118 40.7793 25.4809 40.5755C25.2501 40.3717 24.9768 40.2216 24.6809 40.1361C22.5912 39.5304 20.4548 38.9116 18.2442 38.2712C17.6639 38.1031 17.2045 37.7656 16.8988 37.3329H16.898L14.563 34.1998L15.2683 34.1921C15.2683 34.1921 16.5742 36.1667 17.0704 36.8536C17.2997 37.171 17.6972 37.6787 18.6021 37.9412L24.7969 39.7352C25.5183 39.9443 26.1021 40.4597 26.3988 41.15L26.8645 42.2329Z" fill="#DF5468"/>
<path d="M58.1259 26.214C56.9667 29.2435 55.082 34.1658 53.4189 38.5101C53.0673 39.4297 52.7246 40.3236 52.4022 41.1682C51.9289 42.403 51.4967 43.5331 51.1325 44.4839C50.5042 46.1251 48.6091 47.0669 46.921 46.578C43.7861 45.6695 40.2196 44.6367 38.6649 44.186C38.1541 44.0383 37.6062 44.0913 37.1332 44.3339L30.4115 47.7802C30.2159 47.8809 29.9991 47.9335 29.7791 47.9337C29.3489 47.9337 28.9326 47.733 28.6679 47.3809C28.6665 47.3788 28.5685 47.2476 28.4128 47.0385C28.9563 47.7553 29.6158 47.6962 30.2211 47.4094C31.9488 46.5912 36.9428 43.9631 36.9428 43.9631C37.2962 43.7822 37.6876 43.6877 38.0847 43.6874C38.3203 43.6874 38.5545 43.7207 38.781 43.786L47.0372 46.178C47.2981 46.2528 47.5683 46.2907 47.8398 46.2905C48.4744 46.2905 49.0901 46.0897 49.6023 45.7445C50.1145 45.3994 50.5231 44.9104 50.7434 44.3353L52.109 40.7682L52.8693 38.7811L57.7361 26.0654C58.0433 25.2625 57.9141 24.4082 57.4144 23.7609C56.7854 22.9462 54.9452 20.4674 54.9452 20.4674L54.9243 20.4452L55.3566 20.2986L57.7417 23.5012L57.741 23.5018C58.3198 24.2304 58.5004 25.2354 58.1259 26.214Z" fill="#ED7981"/>
<path d="M53.4189 38.5101C53.0673 39.4297 52.7246 40.3236 52.4022 41.1682L51.2322 39.7234L53.4189 38.5101Z" fill="#670A39"/>
<path d="M52.4022 41.2342C52.3924 41.2342 52.3826 41.2321 52.3737 41.2278C52.3648 41.2236 52.357 41.2174 52.3508 41.2097L51.1808 39.7649C51.1684 39.7498 51.1635 39.7299 51.1673 39.7108C51.171 39.6916 51.183 39.675 51.2001 39.6655L53.3868 38.4523C53.3987 38.4457 53.4123 38.4429 53.4258 38.4443C53.4393 38.4457 53.4521 38.4512 53.4623 38.4601C53.4833 38.4783 53.4907 38.5078 53.4808 38.5337L53.0855 39.5666C52.8724 40.1236 52.6643 40.6671 52.4641 41.1916C52.4593 41.2041 52.4508 41.2149 52.4398 41.2225C52.4287 41.2302 52.4156 41.2342 52.4022 41.2342ZM51.3332 39.743L52.3813 41.0372C52.5689 40.5459 52.7631 40.0385 52.9618 39.5194L53.2922 38.656L51.3332 39.743Z" fill="#670A39"/>
<path d="M29.7792 47.9998C29.3229 47.9998 28.8878 47.7833 28.615 47.4205L27.3477 45.7203L26.1875 44.1638C26.1838 44.1589 26.1809 44.1536 26.1787 44.148C26.169 44.1228 25.2098 41.6391 24.6315 40.1906C23.0653 39.7367 21.4756 39.2762 19.8483 38.8048L18.2258 38.3347C17.6527 38.1687 17.1769 37.8379 16.8494 37.3778C16.8479 37.3761 16.8464 37.3743 16.8449 37.3724L16.826 37.347L14.4696 34.1852C14.4634 34.1768 14.4592 34.1671 14.4575 34.1568C14.4557 34.1465 14.4564 34.136 14.4595 34.126C14.4626 34.116 14.4681 34.107 14.4753 34.0995C14.4826 34.092 14.4915 34.0864 14.5014 34.083L55.3353 20.2359C55.3624 20.227 55.3925 20.2361 55.4097 20.2592L57.7948 23.4617C57.7967 23.4642 57.7984 23.4669 57.7999 23.4696C58.41 24.2441 58.5552 25.2779 58.1878 26.2376C58.0671 26.5526 57.9466 26.8676 57.8265 27.1828C57.791 27.2748 57.7548 27.3685 57.7188 27.4628L57.6251 27.7076C57.4964 28.0442 57.3623 28.3946 57.2233 28.7568L57.1501 28.9489C57.1168 29.0362 57.0832 29.1241 57.0496 29.2127C56.9834 29.3839 56.9168 29.5574 56.8501 29.733L56.6876 30.1572C56.5773 30.4452 56.4652 30.7379 56.3518 31.0347L54.2245 36.5918C53.2848 39.0465 52.3452 41.5012 51.4057 43.956L51.1944 44.5075C51.1615 44.5935 51.1251 44.6782 51.0852 44.7612C51.0187 44.899 50.9426 45.0319 50.8575 45.159C50.0037 46.4477 48.3314 47.0687 46.8813 46.635L46.2446 46.4503C45.6511 46.278 45.1027 46.1189 44.5958 45.9723C44.1457 45.8396 43.6951 45.7086 43.2439 45.5795C41.8133 45.1627 40.8033 44.8686 40.0843 44.6609C40.0827 44.6606 40.0811 44.6602 40.0796 44.6598C38.3586 44.1625 38.3135 44.1639 38.123 44.1688C38.1062 44.1693 38.0882 44.1698 38.068 44.17C37.5509 44.1749 37.2048 44.363 36.87 44.5448C36.7492 44.6105 36.6242 44.6784 36.4954 44.7346C35.2073 45.3954 33.9208 46.0596 32.6361 46.727C30.1836 47.9998 30.1836 47.9998 29.7792 47.9998ZM26.2989 44.0919L27.4538 45.6413C28.0746 46.4742 28.7141 47.3322 28.7208 47.3411C28.9686 47.6707 29.3643 47.8675 29.7792 47.8675C30.1478 47.8675 30.174 47.8558 32.5751 46.6097C33.4798 46.1401 34.7189 45.4972 36.4386 44.6153C36.5659 44.5596 36.6829 44.496 36.8068 44.4288C37.1558 44.2392 37.5166 44.0431 38.0666 44.0378C38.0859 44.0376 38.1032 44.0372 38.1195 44.0367C38.3313 44.0307 38.3754 44.0298 40.1123 44.5317C40.1139 44.532 40.1155 44.5323 40.117 44.5328C40.8364 44.7405 41.8476 45.035 43.2807 45.4525C43.5412 45.5274 43.8165 45.6074 44.1057 45.6921C44.2731 45.7403 44.4464 45.7907 44.6244 45.8431L44.6287 45.8441C45.1367 45.9911 45.6864 46.1506 46.2815 46.3233L46.9187 46.5082C48.3148 46.9256 49.9247 46.3274 50.7472 45.0856C50.829 44.9636 50.902 44.836 50.9659 44.7038C51.0042 44.624 51.0392 44.5427 51.0708 44.46L51.2819 43.9089C52.0476 41.9078 53.0589 39.2663 54.1008 36.5445L56.228 30.9875C56.3414 30.6907 56.4536 30.3979 56.5639 30.1099L56.7263 29.6859C56.793 29.5103 56.8598 29.3365 56.9258 29.1655C56.9592 29.0772 56.9928 28.9891 57.0262 28.9018L57.0994 28.7096C57.2385 28.3473 57.3726 27.9969 57.5013 27.6603L57.595 27.4155C57.6312 27.321 57.6673 27.2272 57.7028 27.1354C57.8292 26.8037 57.9501 26.4876 58.0641 26.1904C58.416 25.2711 58.2758 24.2814 57.6891 23.543C57.6863 23.5394 57.6838 23.5356 57.6818 23.5316L55.3321 20.3768L14.6301 34.179L16.8588 37.1695L16.9464 37.287C16.9487 37.2893 16.9508 37.2919 16.9528 37.2946C17.263 37.7336 17.7159 38.0492 18.2626 38.2076L19.8852 38.6777C21.5217 39.1518 23.1201 39.6149 24.6917 40.0705C24.7113 40.0761 24.7348 40.0926 24.7424 40.1115C25.3027 41.5141 26.2361 43.9292 26.2989 44.0919Z" fill="#670A39"/>
<path d="M17.5625 30.1652C13.3065 28.4831 9.82717 25.3155 7.75999 21.2515C6.28667 18.3538 5.59521 15.1034 5.75992 11.8515C5.76832 11.6783 5.81104 11.5084 5.8856 11.3517C5.96017 11.1951 6.06509 11.0548 6.19429 10.9389C6.45628 10.7028 6.79542 10.5819 7.14496 10.6C7.49734 10.6181 7.82187 10.7716 8.05818 11.0334C8.29515 11.2952 8.41539 11.6328 8.39733 11.9842C8.11655 17.5392 10.8005 22.9309 15.4004 26.0542C17.6118 27.5572 18.5583 27.5492 18.9941 28.0177C19.9796 29.0226 18.8853 30.6876 17.5625 30.1652Z" fill="#DF5468"/>
<path d="M19.1517 29.1477C19.1397 29.2484 19.1147 29.3472 19.0773 29.4415C18.8376 30.0478 18.1509 30.3451 17.5442 30.1055C16.3288 29.6256 15.1673 29.0189 14.0792 28.2955L14.0625 28.2851C9.52719 25.2645 6.53256 20.3812 5.9217 14.9423C5.88206 14.4492 6.1406 13.8623 6.62845 13.7845C7.10173 13.7095 7.54438 14.0748 7.61181 14.6693C8.2727 20.4964 11.9303 25.5895 17.458 28.0413C17.7076 28.1517 18.5095 28.6469 19.1517 29.1477Z" fill="#FF6D6D"/>
<path d="M18.0602 30.3295C17.8866 30.3295 17.711 30.295 17.5383 30.2267C10.0467 27.2656 5.28678 19.8799 5.69389 11.8482C5.72228 11.2801 6.07446 10.8079 6.61306 10.616C7.15292 10.4237 7.72553 10.5665 8.10749 10.989C8.22992 11.1237 8.32439 11.2813 8.38542 11.4528C8.44646 11.6242 8.47284 11.8061 8.46305 11.9878C8.12701 18.6407 12.0224 24.865 18.1561 27.4762C18.5787 27.656 18.858 27.7749 19.0419 27.9718C19.58 28.5217 19.5093 29.2366 19.2004 29.7012C18.939 30.0947 18.5128 30.3295 18.0602 30.3295ZM7.09111 10.6645C6.94744 10.6645 6.8012 10.6895 6.65746 10.7406C6.17035 10.9142 5.85171 11.3411 5.82604 11.8549C5.42177 19.8299 10.1481 27.1635 17.587 30.1038C17.7441 30.1658 17.9033 30.1973 18.0602 30.1973C18.5407 30.1973 18.9073 29.9033 19.0903 29.6281C19.3696 29.2077 19.4336 28.561 18.9468 28.0638L18.9457 28.0627C18.7809 27.8859 18.5117 27.7713 18.1042 27.5979C11.9196 24.9651 7.99202 18.6892 8.33083 11.9811C8.33969 11.8168 8.31583 11.6523 8.26062 11.4972C8.20541 11.3422 8.11996 11.1996 8.00922 11.0778C7.76557 10.8082 7.43575 10.6645 7.09111 10.6645Z" fill="#670A39"/>
<path d="M17.6139 30.0361C17.2212 29.8805 16.8035 29.7631 16.3824 29.6513C15.4595 29.2113 14.5721 28.6889 13.9736 28.2761C15.3392 28.7386 16.3942 26.9502 15.4004 26.0543C16.2839 26.6548 17.1646 27.1454 18.1879 27.5614C18.5249 27.7885 18.7438 27.9525 18.8926 28.1122C19.7828 29.0213 18.7911 30.5014 17.6139 30.0361Z" fill="#670A39"/>
<path d="M18.0595 30.1904C17.9099 30.1904 17.7521 30.1619 17.5895 30.0976H17.5894C17.1852 29.9374 16.7456 29.8162 16.3654 29.7152C16.3615 29.7141 16.3576 29.7127 16.3539 29.711C15.5094 29.3084 14.6055 28.7924 13.936 28.3306C13.9229 28.3216 13.9135 28.3081 13.9095 28.2926C13.9056 28.2772 13.9073 28.2608 13.9145 28.2465C13.9217 28.2323 13.9338 28.2211 13.9485 28.215C13.9633 28.209 13.9797 28.2085 13.9949 28.2136C14.6774 28.4449 15.2594 28.0773 15.5333 27.6104C15.7907 27.1719 15.8357 26.5358 15.3561 26.1035C15.3437 26.0922 15.336 26.0767 15.3346 26.0601C15.3332 26.0434 15.3382 26.0268 15.3485 26.0137C15.3589 26.0005 15.3738 25.9918 15.3903 25.9892C15.4069 25.9866 15.4238 25.9903 15.4376 25.9997C16.3674 26.6316 17.2492 27.1085 18.2129 27.5003C18.2171 27.502 18.2212 27.5041 18.2249 27.5067C18.5378 27.7176 18.7793 27.8936 18.9411 28.0674C19.4258 28.5623 19.3628 29.2065 19.0848 29.6247C18.8761 29.9383 18.504 30.1904 18.0595 30.1904ZM17.6381 29.9746C18.2548 30.2183 18.7434 29.8988 18.9744 29.5513C19.2047 29.2049 19.3091 28.6322 18.8452 28.1584C18.6919 27.9937 18.459 27.824 18.1565 27.62C17.3073 27.2742 16.521 26.863 15.7105 26.3392C15.9485 26.7777 15.8713 27.2956 15.6474 27.6772C15.3933 28.1102 14.8971 28.4647 14.2958 28.4121C14.9177 28.8165 15.6829 29.2442 16.4052 29.5889C16.7879 29.6906 17.2294 29.8126 17.6381 29.9746Z" fill="#670A39"/>
<path d="M55.6935 22.9497C55.6553 23.0504 55.6157 23.1524 55.5761 23.2573C53.7803 27.9482 50.4501 36.6488 48.7001 41.2196C48.0719 42.8608 46.1767 43.8025 44.4887 43.3136C41.3537 42.4051 37.7872 41.3723 36.2325 40.9216C35.7218 40.774 35.1739 40.8269 34.7008 41.0696L27.9792 44.5159C27.2633 44.8833 26.3856 44.5673 26.068 43.8283L23.5835 38.0504C23.4621 37.7674 23.2794 37.515 23.0485 37.3111C22.8177 37.1073 22.5444 36.9572 22.2485 36.8717C20.4354 36.3459 18.5868 35.8104 16.6854 35.2597C16.3956 35.1756 16.1044 35.0916 15.8118 35.0068C14.36 34.5867 13.6574 33.1052 14.2516 31.7161L21.9031 13.822C22.5536 12.3009 24.3939 11.4064 25.9929 11.8335C32.3212 13.5261 47.0621 17.4683 53.8157 19.2748C55.4545 19.7131 56.2996 21.3668 55.6935 22.9497Z" fill="#FF6D6D"/>
<path d="M55.6935 22.9497C55.6553 23.0504 55.6156 23.1524 55.576 23.2573H55.5753C56.1076 21.8537 55.1862 20.0006 53.7218 19.6089L25.9026 12.169C24.4751 11.7877 22.8093 12.5878 22.2228 13.9588C22.2228 13.9588 15.777 28.8588 14.5713 31.8529C14.269 32.6038 14.36 33.326 14.679 33.8678C14.8771 34.2061 15.3371 34.8492 16.6854 35.2597C16.3956 35.1756 16.1044 35.0916 15.8118 35.0068C14.36 34.5867 13.6574 33.1052 14.2516 31.7161L21.9031 13.822C22.5536 12.3009 24.3939 11.4064 25.9929 11.8335C32.3212 13.5261 47.0621 17.4683 53.8157 19.2748C55.4544 19.7131 56.2995 21.3668 55.6935 22.9497Z" fill="#DF5468"/>
<path d="M29.9512 16.9408C29.9413 16.9409 29.9315 16.9386 29.9225 16.9343C29.9135 16.93 29.9057 16.9238 29.8995 16.916C29.8933 16.9082 29.8889 16.8992 29.8867 16.8895C29.8844 16.8798 29.8844 16.8697 29.8866 16.86C30.3397 14.8738 31.9742 13.4397 34.0509 13.2065C34.087 13.2034 34.1199 13.2285 34.124 13.2649C34.1259 13.2823 34.1209 13.2998 34.1099 13.3135C34.099 13.3272 34.083 13.336 34.0656 13.3379C32.0457 13.5648 30.456 14.9588 30.0157 16.8895C30.0123 16.9041 30.0042 16.9171 29.9924 16.9264C29.9807 16.9357 29.9662 16.9408 29.9512 16.9408ZM29.4202 15.3795C29.4094 15.3795 29.3988 15.3768 29.3893 15.3718C29.3797 15.3668 29.3716 15.3595 29.3655 15.3506C29.3594 15.3417 29.3556 15.3315 29.3544 15.3208C29.3532 15.3101 29.3546 15.2992 29.3586 15.2892C30.1055 13.3868 31.7996 11.9997 33.8905 11.5785C33.899 11.5768 33.9078 11.5767 33.9163 11.5784C33.9249 11.5801 33.933 11.5834 33.9402 11.5882C33.9475 11.593 33.9537 11.5992 33.9585 11.6064C33.9634 11.6137 33.9667 11.6217 33.9685 11.6303C33.9702 11.6388 33.9702 11.6476 33.9685 11.6561C33.9669 11.6646 33.9635 11.6727 33.9587 11.6799C33.9539 11.6872 33.9477 11.6934 33.9405 11.6982C33.9333 11.7031 33.9252 11.7065 33.9167 11.7082C31.8701 12.1204 30.2122 13.4772 29.4817 15.3375C29.4769 15.3499 29.4684 15.3605 29.4574 15.368C29.4465 15.3755 29.4335 15.3795 29.4202 15.3795ZM44.517 18.6116C44.5013 18.6116 44.486 18.606 44.4741 18.5958C44.4621 18.5855 44.4542 18.5714 44.4517 18.5559C44.1271 16.5136 42.5067 14.9871 40.4197 14.7574C40.4027 14.755 40.3873 14.746 40.3767 14.7324C40.3662 14.7189 40.3614 14.7017 40.3632 14.6847C40.3651 14.6676 40.3735 14.6519 40.3868 14.6409C40.4 14.63 40.417 14.6245 40.4341 14.6259C42.5812 14.8622 44.2482 16.4331 44.5824 18.535C44.5839 18.5444 44.5833 18.5541 44.5808 18.5633C44.5782 18.5725 44.5736 18.5811 44.5674 18.5884C44.5612 18.5957 44.5535 18.6015 44.5447 18.6055C44.536 18.6096 44.5266 18.6116 44.517 18.6116ZM45.6171 19.3613C45.5995 19.3613 45.5827 19.3543 45.5703 19.3419C45.5579 19.3295 45.5509 19.3127 45.5509 19.2951C45.5509 18.7528 45.4897 18.2203 45.3689 17.7126C45.3649 17.6956 45.3678 17.6776 45.377 17.6627C45.3862 17.6477 45.4009 17.637 45.418 17.633C45.4351 17.6289 45.4531 17.6318 45.468 17.641C45.483 17.6502 45.4936 17.665 45.4977 17.682C45.6209 18.1997 45.6833 18.7424 45.6833 19.2951C45.6833 19.3127 45.6763 19.3295 45.6639 19.3419C45.6515 19.3543 45.6346 19.3613 45.6171 19.3613ZM44.9142 16.354C44.9021 16.354 44.8902 16.3507 44.8798 16.3444C44.8694 16.3381 44.861 16.329 44.8554 16.3183C44.165 14.9809 43.045 14.0503 41.7015 13.6978C41.6929 13.6957 41.6849 13.692 41.6778 13.6868C41.6707 13.6815 41.6647 13.675 41.6602 13.6674C41.6557 13.6599 41.6527 13.6515 41.6515 13.6428C41.6503 13.6341 41.6508 13.6252 41.653 13.6167C41.6553 13.6082 41.6592 13.6002 41.6645 13.5932C41.6699 13.5863 41.6766 13.5804 41.6842 13.5761C41.6919 13.5717 41.7003 13.5689 41.7091 13.5678C41.7178 13.5668 41.7266 13.5675 41.7351 13.5699C43.1153 13.932 44.2652 14.8864 44.973 16.2575C44.9782 16.2676 44.9807 16.2789 44.9803 16.2902C44.9799 16.3015 44.9766 16.3126 44.9707 16.3223C44.9648 16.332 44.9565 16.34 44.9466 16.3455C44.9367 16.3511 44.9256 16.354 44.9142 16.354ZM43.7785 20.7177C43.7693 20.7177 43.7602 20.7158 43.7518 20.7121C43.7434 20.7084 43.7358 20.703 43.7296 20.6963C43.7234 20.6895 43.7187 20.6815 43.7157 20.6729C43.7127 20.6642 43.7116 20.6549 43.7124 20.6458C43.8296 19.3101 43.5541 18.1887 42.9157 17.4027C42.9102 17.396 42.9061 17.3882 42.9036 17.3799C42.9012 17.3716 42.9003 17.3629 42.9012 17.3542C42.9021 17.3456 42.9047 17.3372 42.9089 17.3296C42.913 17.3219 42.9186 17.3152 42.9254 17.3097C42.9321 17.3042 42.9399 17.3002 42.9482 17.2977C42.9565 17.2952 42.9653 17.2944 42.9739 17.2953C42.9826 17.2962 42.9909 17.2988 42.9986 17.3029C43.0062 17.3071 43.013 17.3127 43.0184 17.3194C43.679 18.1325 43.9646 19.2867 43.8443 20.6573C43.8429 20.6738 43.8353 20.6891 43.8231 20.7003C43.8109 20.7115 43.795 20.7177 43.7785 20.7177ZM30.9289 16.9353C30.9182 16.9353 30.9076 16.9327 30.8981 16.9277C30.8887 16.9227 30.8805 16.9155 30.8744 16.9067C30.8684 16.8979 30.8645 16.8877 30.8632 16.877C30.862 16.8664 30.8633 16.8556 30.8671 16.8456C31.2336 15.8855 32.0263 15.1187 33.0417 14.7417C33.0582 14.7356 33.0764 14.7363 33.0924 14.7436C33.1083 14.7509 33.1207 14.7642 33.1268 14.7807C33.133 14.7971 33.1323 14.8153 33.125 14.8313C33.1177 14.8472 33.1043 14.8596 33.0879 14.8657C32.1081 15.2295 31.3438 15.9683 30.9908 16.8928C30.986 16.9053 30.9775 16.916 30.9664 16.9236C30.9554 16.9312 30.9423 16.9353 30.9289 16.9353Z" fill="#670A39"/>
<path d="M42.8421 21.3609C41.4014 24.2536 36.8413 25.352 34.8296 25.5957C34.7711 25.6028 34.7117 25.5951 34.6569 25.5731C34.6022 25.5511 34.554 25.5156 34.5167 25.4699C33.2858 23.9607 30.7495 20.0902 31.7813 17.4565C32.3096 16.108 33.9159 15.399 35.345 15.8189C36.2977 16.0989 36.9063 16.7648 37.2023 17.6322C37.4336 18.3101 37.7348 18.1196 38.2263 17.8592C39.1333 17.3787 40.0757 17.0685 41.2256 17.3692C43.0637 17.8498 43.5111 20.0176 42.8421 21.3609Z" fill="#DF5468"/>
<path d="M42.7032 21.0136C41.2625 23.9063 36.7024 25.0047 34.6907 25.2484C34.6322 25.2556 34.5727 25.2478 34.518 25.2258C34.4633 25.2038 34.415 25.1683 34.3778 25.1226C33.1469 23.6134 30.6106 19.7429 31.6424 17.1093C32.1707 15.7607 33.777 15.0517 35.2061 15.4717C36.1587 15.7516 36.7674 16.4176 37.0634 17.2849C37.2946 17.9628 37.5959 17.7724 38.0874 17.5119C38.9943 17.0314 39.9367 16.7213 41.0867 17.0219C42.9248 17.5025 43.3722 19.6704 42.7032 21.0136Z" fill="#FFF8EA"/>
<path d="M34.6476 25.317C34.5861 25.3171 34.5253 25.3034 34.4697 25.277C34.4141 25.2506 34.3651 25.2121 34.3264 25.1643C34.0031 24.7679 32.8874 23.337 32.101 21.5643C31.2993 19.7571 31.1242 18.25 31.5807 17.085C32.113 15.7264 33.7477 14.9742 35.2247 15.4081C36.1468 15.679 36.8043 16.3206 37.1259 17.2635C37.2046 17.4944 37.2938 17.6267 37.3986 17.6681C37.5444 17.7257 37.747 17.6179 38.0034 17.4815L38.0564 17.4534C38.864 17.0255 39.8574 16.6323 41.1033 16.9578C42.0714 17.211 42.5524 17.875 42.7854 18.3875C43.1621 19.216 43.1531 20.2584 42.7623 21.043C42.1257 22.3212 40.8386 23.3784 38.9368 24.1852C37.0527 24.9844 35.2165 25.2512 34.6986 25.3139C34.6817 25.316 34.6647 25.3171 34.6476 25.317ZM34.3639 15.4172C33.2123 15.4172 32.1142 16.0862 31.704 17.1333C30.7418 19.5895 32.9642 23.2846 34.4291 25.0807C34.4592 25.1179 34.4983 25.1467 34.5427 25.1646C34.5871 25.1824 34.6353 25.1886 34.6827 25.1826C35.1963 25.1205 37.017 24.8559 38.8852 24.0634C40.7572 23.2694 42.0218 22.2334 42.644 20.9841C43.0176 20.2337 43.0259 19.2359 42.665 18.4422C42.4439 17.9558 41.9876 17.3257 41.0699 17.0858C39.868 16.7714 38.9035 17.1543 38.1184 17.5702L38.0658 17.5982C37.7792 17.7508 37.5528 17.8713 37.3501 17.7911C37.2051 17.7338 37.094 17.5797 37.0007 17.3061C36.6936 16.4057 36.0665 15.7932 35.1875 15.5349C34.92 15.4566 34.6426 15.417 34.3639 15.4172Z" fill="#670A39"/>
<path d="M37.4395 34.2324C39.0179 34.6859 40.8588 33.4893 41.6987 31.4605C42.5147 29.458 42.1886 26.8384 40.2592 26.114C38.5939 25.496 36.5737 26.7987 35.7457 29.0247C34.8112 31.5366 35.8169 33.784 37.4395 34.2324ZM28.2241 31.4619C29.9301 31.8096 31.4982 30.126 32.017 28.4003C32.6106 26.545 32.1893 24.1992 30.5536 23.5356C28.7776 22.8214 26.9489 24.5297 26.3465 26.5782C25.6982 28.7811 26.4651 31.1046 28.2241 31.4619Z" fill="#DF5468"/>
<path d="M37.0533 33.8274C37.1116 33.8493 37.1713 33.8686 37.231 33.8851C38.8094 34.3386 40.6503 33.1421 41.4902 31.1132C41.5165 31.0488 41.5421 30.9836 41.5667 30.9173C41.5871 30.8622 41.6067 30.8076 41.6249 30.7527C42.3345 28.6567 41.722 26.529 40.2222 25.838C40.1659 25.8122 40.1087 25.7885 40.0507 25.7667C38.3854 25.1487 36.3652 26.4514 35.5371 28.6774C34.7092 30.9029 35.3881 33.2087 37.0533 33.8274Z" fill="#E7DCDC"/>
<path d="M37.923 34.0478C37.6835 34.0478 37.4456 34.0156 37.2126 33.9487C37.1509 33.9316 37.09 33.9118 37.0301 33.8893C36.2048 33.5827 35.5892 32.8668 35.2968 31.8736C35.0064 30.8873 35.0697 29.744 35.4751 28.6544C36.3142 26.3984 38.3771 25.0749 40.0737 25.7047C40.1332 25.727 40.1924 25.7515 40.2497 25.7777C41.793 26.4888 42.4111 28.6366 41.6877 30.7738C41.669 30.8296 41.6494 30.8851 41.6288 30.9402C41.6041 31.0066 41.5783 31.0725 41.5515 31.1381C40.8189 32.9077 39.3465 34.0477 37.923 34.0478ZM39.1893 25.6797C37.7688 25.6797 36.277 26.8778 35.5991 28.7005C35.2036 29.7635 35.1414 30.8772 35.4237 31.8363C35.7041 32.7885 36.2909 33.4737 37.0762 33.7654L37.0764 33.7655C37.1328 33.7866 37.1906 33.8054 37.2484 33.8214C38.8022 34.2675 40.5991 33.0925 41.4289 31.088C41.4547 31.0246 41.4802 30.9599 41.5046 30.8943C41.5247 30.8405 41.5438 30.7864 41.5621 30.7319C42.2638 28.6586 41.6759 26.5806 40.1945 25.898C40.1396 25.873 40.0839 25.8499 40.0274 25.8287C39.7557 25.7278 39.4738 25.6797 39.1893 25.6797Z" fill="#670A39"/>
<path d="M37.231 33.8851C38.8094 34.3386 40.6504 33.1421 41.4903 31.1132C41.5165 31.0488 41.5422 30.9836 41.5668 30.9173C41.5872 30.8622 41.6068 30.8076 41.625 30.7527C42.3345 28.6567 41.7221 26.529 40.2223 25.838C38.7687 25.4389 36.9998 26.7784 36.2018 28.9246C35.4037 31.0707 35.868 33.2406 37.231 33.8851Z" fill="#FFF8EA"/>
<path d="M27.8199 31.0649C27.8847 31.0846 27.9501 31.1014 28.0154 31.1147C29.4927 31.4158 31.1151 30.1415 31.7775 28.1488C31.7885 28.1171 31.7988 28.0852 31.8084 28.0531C31.8189 28.0205 31.8286 27.9879 31.8384 27.9551C31.8519 27.9102 31.864 27.8649 31.8762 27.8197C31.8884 27.7745 31.8999 27.7291 31.9112 27.6845C32.398 25.6761 31.728 23.7495 30.345 23.1884C30.2831 23.1635 30.2201 23.1413 30.1562 23.1218C28.5823 22.6458 26.783 24.0375 26.138 26.231C25.4922 28.425 26.2454 30.5888 27.8199 31.0649Z" fill="#E7DCDC"/>
<path d="M28.4552 31.2249C28.3036 31.2249 28.1523 31.21 28.0023 31.1794C27.9344 31.1655 27.8672 31.1484 27.8009 31.1281C26.1942 30.6423 25.4197 28.437 26.0746 26.2123C26.4543 24.9208 27.2651 23.8343 28.2435 23.3058C28.8891 22.957 29.5572 22.8714 30.1755 23.0585C30.2412 23.0785 30.306 23.1014 30.3698 23.127C31.7786 23.6987 32.4689 25.6645 31.9755 27.7C31.9633 27.748 31.9521 27.7925 31.9401 27.8368C31.9278 27.8826 31.9155 27.9285 31.9018 27.974C31.8918 28.0073 31.882 28.0404 31.8715 28.0732C31.8619 28.1049 31.8513 28.1377 31.8401 28.1703C31.234 29.9939 29.8345 31.2249 28.4552 31.2249ZM29.5209 23.0943C29.1208 23.0943 28.7095 23.2044 28.3065 23.4222C27.3585 23.9342 26.5716 24.9913 26.2016 26.2496C25.5672 28.405 26.3019 30.5367 27.8393 31.0016C27.9047 31.0215 27.9684 31.0377 28.0288 31.0498C28.1705 31.0788 28.3137 31.0928 28.457 31.0928C29.7794 31.0929 31.1267 29.8973 31.715 28.1279C31.7259 28.0962 31.7359 28.0652 31.7453 28.034C31.7558 28.0009 31.7654 27.9687 31.775 27.9366C31.7885 27.8916 31.8005 27.8471 31.8125 27.8025C31.8243 27.7588 31.8354 27.7149 31.8464 27.6716C32.3251 25.6965 31.6687 23.7967 30.3203 23.2496C30.0664 23.1468 29.7949 23.094 29.5209 23.0943Z" fill="#670A39"/>
<path d="M28.0155 31.1147C29.4927 31.4158 31.1151 30.1415 31.7776 28.1488C31.7886 28.1171 31.7988 28.0852 31.8085 28.0531C31.8189 28.0205 31.8287 27.9878 31.8384 27.9551C31.8519 27.9101 31.8641 27.8649 31.8762 27.8197C31.8884 27.7745 31.8999 27.7291 31.9113 27.6845C32.398 25.6761 31.728 23.7495 30.3451 23.1884C29.0115 22.9401 27.4841 24.3508 26.8667 26.4516C26.2483 28.553 26.7635 30.5823 28.0155 31.1147Z" fill="#FFF8EA"/>
<path d="M41.4399 31.002C42.088 29.2594 41.7459 27.5246 40.6759 27.1271C39.6058 26.7296 38.213 27.8199 37.5649 29.5625C36.9168 31.305 37.2588 33.0399 38.3289 33.4374C39.3989 33.8349 40.7918 32.7445 41.4399 31.002Z" fill="#670A39"/>
<path d="M38.7947 33.584C38.6281 33.5845 38.4628 33.5552 38.3067 33.4973C37.2043 33.0871 36.8444 31.3103 37.5046 29.5363C37.8224 28.6823 38.3263 27.9547 38.9235 27.4875C39.53 27.013 40.1613 26.8626 40.7011 27.0631C41.8035 27.4733 42.1633 29.2502 41.5031 31.0241C41.1853 31.8781 40.6814 32.6057 40.0842 33.0729C39.6531 33.4103 39.2092 33.584 38.7947 33.584ZM37.6286 29.5826C36.9939 31.2881 37.3188 32.9887 38.3528 33.3734C38.8479 33.5577 39.4338 33.414 40.0027 32.9688C40.5809 32.5164 41.0697 31.8095 41.3791 30.978C42.0138 29.2725 41.6889 27.5719 40.6549 27.1872C40.1598 27.0029 39.5739 27.1466 39.005 27.5918C38.4268 28.0441 37.9381 28.751 37.6286 29.5826Z" fill="#670A39"/>
<path d="M31.7216 28.0388C32.3105 26.3249 31.9976 24.6643 31.0226 24.3297C30.0476 23.995 28.7798 25.1132 28.1909 26.827C27.6019 28.5409 27.9149 30.2016 28.8899 30.5362C29.8649 30.8708 31.1327 29.7527 31.7216 28.0388Z" fill="#670A39"/>
<path d="M29.2519 30.6633C29.1196 30.6633 28.9908 30.6423 28.867 30.5997C27.8596 30.2524 27.5286 28.5501 28.1291 26.8048C28.418 25.9654 28.8763 25.2395 29.4197 24.7609C29.9733 24.2733 30.5507 24.0987 31.0455 24.2691C32.053 24.6163 32.384 26.3187 31.7834 28.064C31.4946 28.9034 31.0363 29.6293 30.4928 30.1079C30.0776 30.4737 29.649 30.6633 29.2519 30.6633ZM30.6609 24.3379C30.2962 24.3379 29.8975 24.5163 29.5072 24.8601C28.9807 25.3239 28.5358 26.0298 28.2543 26.8479C27.6774 28.5243 27.9716 30.1512 28.9101 30.4747C29.358 30.629 29.889 30.4636 30.4053 30.0088C30.9318 29.5451 31.3767 28.8391 31.6582 28.021C32.2351 26.3446 31.9409 24.7177 31.0024 24.3942C30.8925 24.3566 30.7771 24.3375 30.6609 24.3379Z" fill="#670A39"/>
<path d="M40.6659 28.9508C40.8409 28.5178 40.7252 28.0628 40.4073 27.9344C40.0894 27.806 39.6898 28.053 39.5147 28.486C39.3397 28.9191 39.4555 29.3741 39.7734 29.5025C40.0912 29.6308 40.4909 29.3839 40.6659 28.9508Z" fill="#FFF8EA"/>
<path d="M39.9482 29.603C39.8797 29.6032 39.8119 29.5902 39.7484 29.5646C39.3972 29.4228 39.2648 28.9282 39.4532 28.4621C39.5431 28.2398 39.692 28.0558 39.8725 27.9443C40.0594 27.8287 40.2581 27.8037 40.4319 27.874C40.6057 27.9442 40.7312 28.1001 40.7854 28.313C40.8377 28.5185 40.817 28.7542 40.7271 28.9766C40.5731 29.3572 40.2521 29.603 39.9482 29.603ZM40.2298 27.9674C40.1363 27.9674 40.038 27.9976 39.9421 28.0569C39.7854 28.1537 39.6554 28.3152 39.576 28.5118C39.4148 28.9102 39.5145 29.3275 39.798 29.4421C40.0815 29.5563 40.4432 29.3254 40.6043 28.927C40.6837 28.7305 40.7024 28.524 40.6571 28.3456C40.6136 28.1746 40.516 28.0506 40.3822 27.9966C40.3338 27.9771 40.282 27.9672 40.2298 27.9674Z" fill="#670A39"/>
<path d="M31.2077 26.0552C31.3164 25.6621 31.1705 25.2788 30.8819 25.1991C30.5932 25.1194 30.2712 25.3736 30.1625 25.7667C30.0539 26.1599 30.1998 26.5432 30.4884 26.6228C30.777 26.7025 31.0991 26.4484 31.2077 26.0552Z" fill="#FFF8EA"/>
<path d="M30.5962 26.7036C30.5542 26.7036 30.5123 26.698 30.4718 26.6868C30.1485 26.5975 29.9816 26.1769 30.0998 25.7492C30.156 25.5457 30.2679 25.3697 30.4147 25.2538C30.5675 25.1333 30.7401 25.0911 30.9005 25.1355C31.0609 25.1797 31.1875 25.3043 31.2567 25.4862C31.3232 25.661 31.3289 25.8694 31.2726 26.073C31.1693 26.4464 30.8825 26.7036 30.5962 26.7036ZM30.7743 25.2508C30.6818 25.2508 30.5859 25.2873 30.4967 25.3576C30.3718 25.4561 30.2761 25.6078 30.2273 25.7845C30.1285 26.1418 30.254 26.4894 30.507 26.5593C30.76 26.6291 31.0462 26.3951 31.1449 26.0377C31.1938 25.861 31.1895 25.6818 31.1329 25.5332C31.079 25.3916 30.984 25.2957 30.8652 25.2629C30.8356 25.2548 30.805 25.2507 30.7743 25.2508ZM37.923 34.0478C37.6837 34.0478 37.4459 34.0157 37.213 33.9487C36.5175 33.7564 35.9257 33.2425 35.5468 32.5016C34.9939 31.4205 34.9677 30.0183 35.4751 28.6543C36.3143 26.3983 38.3771 25.0751 40.0737 25.7047C40.772 25.9669 41.3116 26.4952 41.6344 27.2327C42.1162 28.3336 42.0845 29.83 41.5515 31.1381C40.819 32.9077 39.3466 34.0477 37.923 34.0478ZM39.1894 25.6797C37.7689 25.6797 36.2771 26.8778 35.5992 28.7005C35.1047 30.0298 35.1285 31.3933 35.6646 32.4414C36.0265 33.149 36.5891 33.6391 37.2487 33.8214C37.4685 33.8843 37.6961 33.9161 37.9248 33.9158C39.2951 33.9159 40.7176 32.8068 41.4291 31.0879C41.9489 29.8121 41.9812 28.3551 41.5132 27.2857C41.2051 26.5817 40.6913 26.0779 40.0275 25.8287C39.7558 25.7278 39.4739 25.6797 39.1894 25.6797Z" fill="#670A39"/>
<path d="M28.4625 31.2258C28.308 31.2258 28.1539 31.2103 28.0025 31.1795C27.3409 31.0451 26.7866 30.6345 26.3994 29.9921C25.8038 29.0038 25.6794 27.5554 26.0747 26.2123C26.4694 24.8698 27.3555 23.7256 28.3872 23.226C29.0487 22.9056 29.7344 22.8716 30.3699 23.1271C32.0561 23.8112 32.4623 26.2272 31.8716 28.0733C31.6021 28.9702 31.066 29.8226 30.4012 30.411C29.7976 30.9452 29.1235 31.2258 28.4625 31.2258ZM29.504 23.0902C29.1524 23.0902 28.7953 23.1753 28.4448 23.3451C27.4457 23.8289 26.5862 24.9419 26.2016 26.2497C25.8164 27.5584 25.9357 28.9663 26.5128 29.924C26.8803 30.5338 27.4045 30.9231 28.0289 31.05H28.0289C29.0036 31.2483 29.8092 30.7583 30.3135 30.312C30.9603 29.7395 31.4822 28.9092 31.7453 28.0341C32.3182 26.2431 31.9361 23.9053 30.3204 23.2497C30.0557 23.1432 29.7816 23.0902 29.504 23.0902Z" fill="#670A39"/>
<path d="M37.8044 38.9359C38.1853 39.0558 38.5817 39.1528 38.991 39.2147C40.1515 39.3897 41.4157 39.2842 42.7234 38.6316C43.7497 38.1195 44.2969 37.4212 44.4796 36.7519C44.8678 35.3319 43.6127 34.0423 41.7863 34.9426C38.2256 36.6987 36.7469 35.6246 35.8807 36.5687C35.2482 37.2566 36.1927 38.4297 37.8044 38.9359Z" fill="#DF5468"/>
<path d="M37.5842 38.6869C37.9651 38.8068 38.3615 38.9039 38.7708 38.9657C39.9313 39.1407 41.1955 39.0353 42.5032 38.3826C43.5295 37.8705 44.0767 37.1722 44.2594 36.5029C44.6476 35.0829 43.3925 33.7933 41.5661 34.6936C38.0054 36.4497 36.5267 35.3757 35.6605 36.3197C35.0279 37.0076 35.9725 38.1807 37.5842 38.6869Z" fill="#670A39"/>
<path d="M39.7447 39.106C39.4203 39.106 39.0922 39.0811 38.7608 39.0311C38.3733 38.9726 37.9707 38.878 37.5642 38.75C36.4657 38.405 35.6077 37.7253 35.4291 37.0587C35.3497 36.7623 35.4128 36.4912 35.6116 36.2749C36.0041 35.847 36.5236 35.8144 37.2425 35.7691C38.2069 35.7083 39.5277 35.6251 41.5366 34.6344C42.7774 34.0225 43.5416 34.4759 43.8126 34.6993C44.3201 35.1176 44.5157 35.8154 44.323 36.5203C44.1134 37.2878 43.4776 37.9702 42.5325 38.4418C41.6469 38.8838 40.7126 39.106 39.7447 39.106ZM42.7293 34.46C42.377 34.46 41.9916 34.5575 41.5952 34.7529C39.5625 35.7554 38.2264 35.8396 37.2509 35.901C36.5372 35.946 36.0658 35.9757 35.7091 36.3643C35.5401 36.5482 35.4889 36.7703 35.557 37.0244C35.7244 37.649 36.5469 38.2918 37.6039 38.6237C38.004 38.7497 38.3999 38.8427 38.7806 38.9002C40.0733 39.0955 41.3158 38.9012 42.4734 38.3234C43.3843 37.8689 43.9959 37.2162 44.1954 36.4854C44.3742 35.8313 44.1953 35.1861 43.7285 34.8013C43.4528 34.5741 43.1104 34.46 42.7293 34.46Z" fill="#670A39"/>
<path d="M38.7709 38.9657C39.9314 39.1407 41.1955 39.0352 42.5031 38.3826C43.2049 38.0324 43.6827 37.5951 43.9731 37.1397C43.6555 36.4796 41.4804 35.8261 40.7021 37.3086C39.8009 36.8674 38.715 37.8818 38.7709 38.9657Z" fill="#EC4949"/>
<path d="M39.7449 39.106C39.4205 39.106 39.0924 39.0811 38.761 39.0311C38.7459 39.0288 38.732 39.0214 38.7218 39.0101C38.7115 38.9988 38.7055 38.9843 38.7047 38.969C38.6732 38.3563 39.0026 37.7133 39.5247 37.369C39.8976 37.1231 40.3126 37.0713 40.6734 37.2229C40.9961 36.6549 41.5661 36.3446 42.2884 36.3446C42.3032 36.3446 42.3179 36.3447 42.3329 36.3451C43.0606 36.3577 43.839 36.7085 44.0327 37.111C44.0376 37.1212 44.0398 37.1324 44.0392 37.1437C44.0385 37.1549 44.035 37.1658 44.0289 37.1753C43.7063 37.6813 43.203 38.1074 42.5328 38.4417C41.6471 38.8838 40.7127 39.106 39.7449 39.106ZM38.8352 38.9082C40.1083 39.0898 41.3321 38.8931 42.4737 38.3234C43.0986 38.0116 43.5896 37.6018 43.8964 37.1364C43.7151 36.8281 43.0488 36.4898 42.3307 36.4772C41.9174 36.4718 41.1633 36.5724 40.7607 37.3393C40.7527 37.3546 40.7391 37.3661 40.7227 37.3715C40.7063 37.3768 40.6885 37.3756 40.673 37.368C40.3376 37.2038 39.9557 37.2432 39.5978 37.4794C39.1288 37.7887 38.8273 38.3572 38.8352 38.9082Z" fill="#670A39"/>
<path d="M40.5243 37.8432C40.5141 37.8432 40.5042 37.8409 40.4951 37.8365C40.486 37.832 40.4781 37.8256 40.4719 37.8176C40.4657 37.8096 40.4614 37.8003 40.4594 37.7904C40.4573 37.7805 40.4576 37.7703 40.4601 37.7605C40.6744 36.9344 41.2426 36.4355 42.0603 36.3557C42.7708 36.2859 43.7872 36.6011 44.0326 37.111C44.0365 37.1189 44.0389 37.1274 44.0395 37.1362C44.0401 37.145 44.0389 37.1537 44.0361 37.1621C44.0332 37.1704 44.0288 37.178 44.023 37.1846C44.0171 37.1912 44.0101 37.1965 44.0021 37.2003C43.9942 37.2041 43.9856 37.2063 43.9769 37.2068C43.9681 37.2072 43.9593 37.2059 43.9511 37.2029C43.9428 37.2 43.9352 37.1954 43.9287 37.1895C43.9223 37.1835 43.917 37.1764 43.9133 37.1684C43.7341 36.796 42.8735 36.409 42.0731 36.4873C41.5367 36.5396 40.8436 36.8087 40.5882 37.7937C40.5846 37.8079 40.5763 37.8204 40.5647 37.8294C40.5531 37.8383 40.5389 37.8432 40.5243 37.8432Z" fill="#670A39"/>
<path d="M41.804 36.8371C41.3947 37.005 41.1697 37.4215 41.2585 37.6549C41.3473 37.8883 41.7164 37.85 42.1257 37.6821C42.5351 37.5143 42.8297 37.2805 42.7409 37.0472C42.6521 36.8138 42.2133 36.6693 41.804 36.8371Z" fill="#FF6D6D"/>
<path d="M69.0376 26.1966C66.4628 34.32 60.0344 40.1319 51.232 39.7235C50.5057 39.6784 49.9512 39.0512 49.9957 38.3247C50.0408 37.5989 50.6697 37.044 51.3953 37.0891C53.0215 37.1898 54.5858 37.0183 56.0592 36.598C56.0598 36.5974 56.0598 36.5974 56.0606 36.5974C60.8461 35.2319 64.669 31.239 66.5197 25.4C66.5578 25.2795 66.613 25.1651 66.6838 25.0603C67.0028 24.5873 67.606 24.3588 68.1772 24.5401C68.8737 24.7603 69.2579 25.5014 69.0376 26.1966Z" fill="#DF5468"/>
<path d="M68.1927 26.2718C66.4377 31.9675 62.4135 36.8128 56.5498 38.1817C54.7116 38.6108 54.8972 36.9197 56.0592 36.5981C56.0599 36.5975 56.0599 36.5975 56.0606 36.5975C60.8461 35.232 64.669 31.2391 66.5198 25.4001C66.5578 25.2795 66.6131 25.1651 66.6838 25.0604C66.8805 25.0597 67.0529 25.0708 67.1717 25.1021C67.7151 25.2444 68.4403 25.4684 68.1927 26.2718Z" fill="#FF6D6D"/>
<path d="M52.086 39.8094C51.8019 39.8094 51.5162 39.8027 51.2292 39.7894C51.2116 39.7886 51.1951 39.7809 51.1833 39.7679C51.1715 39.7549 51.1653 39.7378 51.1661 39.7203C51.1669 39.7028 51.1746 39.6863 51.1876 39.6745C51.2006 39.6626 51.2177 39.6565 51.2352 39.6573C55.4055 39.8508 59.2763 38.6234 62.4288 36.1078C65.4043 33.7333 67.6677 30.2993 68.9743 26.1768C69.0246 26.02 69.0432 25.8547 69.0291 25.6906C69.015 25.5265 68.9685 25.3669 68.8922 25.2209C68.8167 25.0745 68.7129 24.9445 68.5868 24.8385C68.4606 24.7325 68.3147 24.6525 68.1574 24.6033C68.0005 24.5531 67.8352 24.5345 67.671 24.5486C67.5068 24.5627 67.3471 24.6092 67.201 24.6853C67.0545 24.7608 66.9245 24.8646 66.8184 24.9906C66.7123 25.1167 66.6323 25.2625 66.583 25.4197C65.4331 29.0477 63.4841 32.053 60.9467 34.1104C58.4649 36.1229 55.4773 37.1831 52.2958 37.1832C52.2286 37.1832 52.1618 37.1827 52.0944 37.1818C52.0857 37.1817 52.0771 37.1799 52.0691 37.1764C52.0612 37.173 52.0539 37.168 52.0479 37.1618C52.0418 37.1556 52.037 37.1482 52.0338 37.1401C52.0306 37.1321 52.029 37.1234 52.0291 37.1148C52.0297 37.0782 52.0587 37.0514 52.0962 37.0496C55.3218 37.0982 58.3534 36.0429 60.8633 34.0077C63.3805 31.9667 65.3147 28.9831 66.4568 25.3798C66.5113 25.2061 66.5997 25.0448 66.717 24.9055C66.8343 24.7661 66.9781 24.6514 67.14 24.5679C67.3015 24.4836 67.4781 24.4322 67.6596 24.4166C67.8411 24.4011 68.0239 24.4216 68.1974 24.4772C68.3712 24.5317 68.5326 24.6201 68.672 24.7373C68.8114 24.8545 68.9262 24.9981 69.0097 25.16C69.1802 25.4883 69.2124 25.8637 69.1004 26.2168C67.7859 30.3643 65.5074 33.8203 62.5113 36.2112C59.5505 38.574 55.9617 39.8094 52.086 39.8094Z" fill="#670A39"/>
<path d="M10.3167 4.84564C9.12737 5.82259 9.4687 6.88677 9.82367 7.60196C10.6573 9.28046 10.2237 12.2313 7.89367 12.3837L5.8284 13.5837C5.58792 13.5923 4.45302 13.9392 3.04892 13.1668C2.47068 13.1953 1.37799 12.5324 0.934287 12.1512C0.066929 11.4031 0.0025406 10.6464 0.103458 10.1465C0.147795 9.92409 0.288814 9.545 0.742511 9.51643C0.067657 8.53307 0.203647 7.08769 1.64494 7.06547C1.48539 6.61489 1.67856 5.89686 1.96622 5.45772C2.858 4.10202 5.08698 4.45333 6.30857 5.83608C6.62641 6.19698 6.76928 6.37303 6.99772 6.60133C6.88754 6.09355 6.8653 5.50283 7.13867 4.6889C7.24932 4.35948 7.3863 4.14395 7.38987 4.13681C7.38987 4.13608 7.3906 4.13535 7.3906 4.13469H7.39133C8.77697 1.78868 12.6233 2.95557 10.3167 4.84564Z" fill="#DF5468"/>
<path d="M10.2123 3.89801C8.95355 4.49521 8.43685 5.49861 8.86196 6.92898C9.37078 8.63969 9.79741 11.0682 8.15998 11.6141C6.42083 12.194 6.28034 9.07619 7.17403 7.59476C7.24682 7.47406 7.25232 7.32625 7.1958 7.19715C6.72159 6.1136 6.88392 4.94625 7.39142 4.13477C8.73034 1.86779 11.8522 3.11907 10.2123 3.89801Z" fill="#FF6D6D"/>
<path d="M3.71674 5.83134C3.46567 5.24954 4.45532 5.27785 5.3158 5.89006C6.17667 6.50261 7.02285 7.42506 6.59218 7.91975C5.63033 9.05813 5.82012 10.6004 6.2754 11.4317C6.30353 11.4831 6.26581 11.5452 6.20731 11.543C5.49381 11.5166 4.61586 11.7242 4.07415 12.1784C2.61254 11.6748 2.08989 11.4219 1.14478 10.948C1.72447 9.32988 3.71674 5.83134 3.71674 5.83134Z" fill="#AF4357"/>
<path d="M10.8956 6.01183C10.8836 6.01181 10.8718 6.00851 10.8615 6.00229C10.8512 5.99608 10.8428 5.98717 10.8372 5.97654C10.8316 5.96591 10.8289 5.95394 10.8296 5.94194C10.8303 5.92993 10.8342 5.91833 10.841 5.90839C11.1898 5.39723 11.8773 5.04156 12.6427 5.33659C11.9154 4.37511 11.9583 2.93958 12.7585 1.95827C12.0418 2.14477 11.3145 2.0838 10.7325 1.78321C10.1941 1.50505 9.78072 1.02597 9.52455 0.387497C9.43019 1.14871 9.0878 1.51708 8.79894 1.69446C8.3919 1.94445 7.84953 1.96766 7.32297 1.76337C7.4039 2.02123 7.45148 2.42056 7.31549 2.75361C7.211 3.00962 7.0181 3.18991 6.74222 3.28951C6.73404 3.29247 6.72537 3.2938 6.71668 3.2934C6.708 3.29301 6.69947 3.2909 6.69161 3.28721C6.68374 3.28352 6.67667 3.27831 6.67082 3.27188C6.66497 3.26546 6.66045 3.25794 6.65751 3.24976C6.65455 3.24159 6.65324 3.23292 6.65363 3.22424C6.65403 3.21557 6.65614 3.20705 6.65983 3.19919C6.66353 3.19133 6.66874 3.18427 6.67516 3.17842C6.68159 3.17257 6.68911 3.16805 6.69728 3.16511C6.93644 3.07873 7.1032 2.92351 7.193 2.70368C7.34368 2.33458 7.24369 1.87342 7.14529 1.66946C7.13933 1.65714 7.13735 1.64328 7.1396 1.62979C7.14186 1.61629 7.14825 1.60383 7.15789 1.59412C7.16753 1.58441 7.17995 1.57792 7.19343 1.57555C7.20691 1.57319 7.2208 1.57506 7.23317 1.58091C7.76356 1.83103 8.32301 1.83136 8.72979 1.58177C9.15827 1.31868 9.39558 0.793964 9.41602 0.064295C9.41655 0.048648 9.42262 0.0336953 9.43313 0.0220922C9.44365 0.0104891 9.45794 0.00298652 9.47347 0.000916851C9.489 -0.00115282 9.50476 0.00234435 9.51795 0.0107873C9.53114 0.0192303 9.54091 0.0320726 9.54553 0.0470338C9.77741 0.813143 10.1973 1.35777 10.7935 1.66582C11.4047 1.98155 12.1876 2.01812 12.9412 1.76635C12.9552 1.76166 12.9704 1.76183 12.9844 1.76682C12.9983 1.7718 13.0102 1.78132 13.0181 1.79385C13.026 1.80638 13.0295 1.82119 13.0279 1.83592C13.0264 1.85065 13.02 1.86443 13.0097 1.87507C12.029 2.8874 12.0041 4.54488 12.9554 5.49458C12.9668 5.50601 12.9736 5.5212 12.9745 5.5373C12.9755 5.55339 12.9705 5.56928 12.9606 5.58198C12.9507 5.59467 12.9364 5.6033 12.9206 5.60625C12.9047 5.60919 12.8883 5.60624 12.8745 5.59795C12.3077 5.25597 11.4639 5.23064 10.9505 5.98299C10.9375 6.00177 10.9167 6.01183 10.8956 6.01183Z" fill="#670A39"/>
<path d="M6.17963 8.8578C5.74314 9.50929 4.80709 9.51862 4.0249 9.21036C3.98982 9.19681 3.95475 9.18179 3.92041 9.16817C4.1415 9.32762 4.38343 9.50076 4.66534 9.66167C5.24642 9.99492 5.52549 10.5013 5.32014 10.9748C5.21777 11.2101 5.05677 11.3688 4.86572 11.4689C4.82423 11.4911 4.78201 11.5104 4.73833 11.5269C4.43776 11.6406 4.08426 11.6377 3.76721 11.5812C3.99836 11.8408 4.14222 12.177 4.06705 12.5031C3.96832 12.9286 3.589 13.1904 3.04875 13.1668C2.82263 13.1567 2.56785 13.0974 2.29375 12.9787L2.23294 12.9515H2.23221C0.889715 12.335 0.337285 11.637 0.149744 11.0362C0.0589192 10.7484 0.0429093 10.4422 0.103223 10.1465C0.14756 9.92409 0.28858 9.54501 0.742277 9.51644C0.558376 9.24826 0.434562 8.94503 0.381622 8.64676C0.377321 8.62533 0.374475 8.60384 0.37163 8.58307C0.370902 8.58162 0.370902 8.58023 0.370902 8.57877C0.259992 7.80711 0.626404 7.08114 1.64471 7.06613V7.0654C1.48516 6.61482 1.67832 5.8968 1.96599 5.45766C2.23863 5.04286 2.65156 4.7811 3.13027 4.66595L3.71639 5.83099C4.19086 6.24936 5.31723 6.69564 5.69079 7.03677C6.38503 7.66915 6.49025 8.39366 6.17963 8.8578Z" fill="#DF5468"/>
<path d="M5.69108 7.03697C5.31752 6.69584 4.19115 6.24956 3.71667 5.83119C2.27326 5.33128 1.47896 6.64578 1.90758 7.5798C1.90831 7.58192 1.90903 7.58483 1.91042 7.58695C1.17118 7.25442 0.306006 7.94599 0.371122 8.57891C0.371122 8.58175 0.371122 8.5846 0.372578 8.58751C0.419099 8.90575 0.546486 9.22974 0.741835 9.51584V9.51657C0.805045 9.61421 0.871296 9.70984 0.940493 9.80333C0.55628 9.74143 0.0198643 10.3085 0.150031 11.0364C0.337505 11.6371 0.889936 12.3351 2.2325 12.9516H2.23323C2.49508 13.0688 2.76018 13.1541 3.04903 13.1669C4.01737 13.2092 4.41873 12.3128 3.7675 11.5813C4.1267 11.6453 4.54281 11.6415 4.866 11.469L4.86217 11.4651C5.55707 11.1141 5.62298 10.2267 4.66563 9.66174C4.39371 9.50652 4.15899 9.33992 3.94425 9.18471C6.07536 10.0135 7.11093 8.33037 5.69108 7.03697Z" fill="#FF6D6D"/>
<path d="M4.99183 9.47896C4.70277 9.47896 4.37144 9.41818 4.00013 9.27196C2.76933 8.78752 1.90595 7.99886 1.56898 7.05127L1.56832 7.04929C1.56558 7.04105 1.56449 7.03235 1.56511 7.02368C1.56573 7.01502 1.56806 7.00656 1.57195 6.9988C1.57584 6.99103 1.58123 6.98411 1.5878 6.97842C1.59437 6.97274 1.602 6.9684 1.61024 6.96566C1.61849 6.96292 1.6272 6.96183 1.63586 6.96245C1.64453 6.96308 1.65299 6.9654 1.66076 6.96929C1.66853 6.97318 1.67546 6.97856 1.68115 6.98513C1.68684 6.99169 1.69118 6.99932 1.69392 7.00756C2.01798 7.9183 2.85417 8.67879 4.04863 9.14888C5.13291 9.57585 5.84476 9.23909 6.12481 8.82105C6.49837 8.2636 6.15373 7.54788 5.64643 7.08593C5.47292 6.92747 5.12418 6.74176 4.75492 6.54508C4.34688 6.32782 3.92495 6.10309 3.67282 5.88081C3.65966 5.86921 3.65165 5.85286 3.65055 5.83535C3.64945 5.81785 3.65536 5.80062 3.66697 5.78747C3.67858 5.77431 3.69494 5.7663 3.71246 5.76521C3.72997 5.76411 3.74721 5.77001 3.76037 5.78161C4.00085 5.99371 4.41584 6.21466 4.81713 6.42835C5.19393 6.629 5.54982 6.81848 5.73564 6.98818C6.28476 7.48829 6.6521 8.2718 6.23473 8.89466C6.02601 9.20635 5.60382 9.47889 4.99183 9.47896Z" fill="#670A39"/>
<path d="M4.17473 11.6824C3.94233 11.6824 3.68199 11.6425 3.39651 11.5512C1.81546 11.0452 1.11757 10.2173 0.686178 9.55248C0.679707 9.54247 0.676048 9.53091 0.675587 9.519C0.675126 9.5071 0.677878 9.49529 0.683556 9.48481C0.689234 9.47433 0.697628 9.46558 0.707858 9.45946C0.718088 9.45334 0.729777 9.45009 0.741699 9.45004C0.767441 9.45004 0.789742 9.46452 0.800661 9.48581C1.22034 10.1312 1.8999 10.9333 3.43688 11.4252C4.41436 11.738 5.0677 11.4171 5.261 10.9864C5.45423 10.5561 5.20727 10.0584 4.63174 9.71861C4.32687 9.54415 4.04801 9.36571 3.80362 9.18874C3.79648 9.18368 3.7904 9.17726 3.78575 9.16985C3.7811 9.16243 3.77797 9.15417 3.77655 9.14553C3.77512 9.1369 3.77542 9.12807 3.77743 9.11955C3.77944 9.11103 3.78312 9.103 3.78826 9.09591C3.7934 9.08883 3.7999 9.08284 3.80737 9.07828C3.81485 9.07372 3.82315 9.07069 3.83181 9.06937C3.84046 9.06804 3.8493 9.06844 3.8578 9.07056C3.86629 9.07267 3.87429 9.07644 3.88131 9.08166C4.12186 9.25586 4.39675 9.43165 4.69831 9.6042C5.47349 10.062 5.55085 10.6639 5.38177 11.0405C5.22374 11.3926 4.80122 11.6824 4.17473 11.6824Z" fill="#670A39"/>
<path d="M3.09429 13.2096C2.81781 13.2097 2.51148 13.1433 2.20701 13.0123C0.00695287 12.0654 -0.0958833 10.8023 0.0386508 10.1336C0.0809367 9.91717 0.213883 9.54562 0.629066 9.4646C0.462768 9.19636 0.352387 8.90073 0.307984 8.60313C0.306269 8.59698 0.305292 8.59065 0.305072 8.58428C0.240485 8.12821 0.339086 7.72002 0.582942 7.43432C0.804562 7.17474 1.14007 7.0264 1.55704 7.00266C1.43879 6.52893 1.63486 5.84304 1.91088 5.4217C2.25089 4.9032 2.82231 4.59011 3.5198 4.54005C4.52414 4.4671 5.61173 4.94784 6.35818 5.79252C6.42924 5.87309 6.50003 5.95391 6.57054 6.03497C6.69045 6.17253 6.79381 6.29104 6.89222 6.39726C6.82769 5.98285 6.81982 5.42864 7.07598 4.66809C7.40653 3.68459 8.19468 2.98687 9.18426 2.80169C9.91649 2.66466 10.5962 2.84944 10.958 3.28375C11.0788 3.42924 11.1309 3.59756 11.1131 3.78406C11.0652 4.28226 10.5236 4.76187 10.3587 4.89698C9.21013 5.84033 9.5371 6.87588 9.88294 7.57274C10.4351 8.68441 10.4101 10.2303 9.82351 11.2485C9.40237 11.9797 8.73652 12.395 7.89795 12.4498C7.88046 12.4508 7.86327 12.4449 7.85011 12.4334C7.83695 12.4218 7.82886 12.4056 7.8276 12.3881C7.82704 12.3794 7.82818 12.3707 7.83098 12.3625C7.83378 12.3543 7.83817 12.3467 7.8439 12.3402C7.84963 12.3336 7.8566 12.3283 7.8644 12.3245C7.87219 12.3206 7.88067 12.3184 7.88934 12.3178C8.68166 12.266 9.31085 11.8734 9.70883 11.1826C10.2749 10.1999 10.2983 8.7065 9.76442 7.63154C9.39853 6.89426 9.0533 5.79801 10.2748 4.79474C10.4297 4.66776 10.9384 4.21883 10.9814 3.77136C10.996 3.61912 10.955 3.48725 10.8562 3.3682C10.5252 2.9706 9.89386 2.80314 9.20868 2.93158C8.26687 3.10776 7.51651 3.77268 7.20145 4.71015C6.9077 5.58234 6.97288 6.17167 7.06242 6.58766C7.06539 6.60157 7.0638 6.61606 7.05788 6.62899C7.05196 6.64192 7.04203 6.6526 7.02956 6.65944C7.01708 6.66629 7.00274 6.66893 6.98864 6.66699C6.97455 6.66504 6.96146 6.6586 6.95131 6.64864C6.80096 6.50056 6.65524 6.33337 6.47081 6.1218C6.40517 6.04654 6.33515 5.96619 6.25905 5.88008C5.53933 5.06563 4.49337 4.60288 3.52933 4.67179C2.87393 4.71888 2.33844 5.01087 2.02159 5.49405C1.74624 5.9144 1.5534 6.60889 1.70732 7.04353C1.71082 7.05343 1.71191 7.06402 1.7105 7.07442C1.7091 7.08483 1.70524 7.09475 1.69924 7.10336C1.69324 7.11198 1.68527 7.11905 1.676 7.12399C1.66673 7.12892 1.65642 7.13159 1.64591 7.13175C1.22775 7.13823 0.895024 7.27249 0.683594 7.5201C0.464025 7.77736 0.376277 8.14997 0.436628 8.56946L0.436959 8.57237C0.437356 8.57416 0.437753 8.57608 0.438018 8.57793C0.483811 8.89121 0.607757 9.20291 0.796489 9.47928C0.803102 9.48899 0.807013 9.50028 0.80782 9.512C0.808627 9.52371 0.806301 9.53543 0.801081 9.54595C0.795861 9.55647 0.787935 9.56542 0.778116 9.57187C0.768297 9.57832 0.756937 9.58204 0.745203 9.58265C0.720883 9.58406 0.696666 9.58689 0.672675 9.59112C0.319035 9.65011 0.205015 9.97245 0.168487 10.1593C0.0418272 10.789 0.145127 11.9808 2.25936 12.8909C2.76368 13.1079 3.2678 13.1381 3.60801 12.9717C3.81269 12.8715 3.94563 12.7083 4.00307 12.4866C4.07249 12.2187 3.96549 11.9027 3.70939 11.6197C3.70356 11.6132 3.69905 11.6057 3.69613 11.5975C3.69321 11.5894 3.69193 11.5807 3.69236 11.572C3.6928 11.5633 3.69493 11.5548 3.69866 11.547C3.70238 11.5391 3.70761 11.5321 3.71405 11.5263C3.7205 11.5204 3.72803 11.5159 3.73621 11.513C3.7444 11.5101 3.75308 11.5088 3.76176 11.5092C3.77044 11.5097 3.77894 11.5118 3.7868 11.5155C3.79465 11.5193 3.80169 11.5245 3.80753 11.5309C4.094 11.8476 4.21199 12.208 4.13112 12.5198C4.06448 12.7768 3.90368 12.9742 3.66611 13.0905C3.50319 13.1702 3.30757 13.2096 3.09429 13.2096Z" fill="#670A39"/>
<path d="M4.95302 13.7418C4.44586 13.7418 3.77041 13.6394 3.01667 13.2248C3.00162 13.2162 2.99055 13.202 2.98586 13.1853C2.98117 13.1686 2.98323 13.1507 2.9916 13.1355C2.99996 13.1203 3.01396 13.109 3.03058 13.104C3.04721 13.0991 3.06512 13.1008 3.08047 13.1089C4.30907 13.7848 5.32354 13.6032 5.70544 13.5349C5.73833 13.529 5.76645 13.524 5.78948 13.5204C6.00839 13.4865 6.31246 13.3783 6.54619 13.2508C6.56155 13.2428 6.5794 13.2413 6.59592 13.2463C6.61244 13.2514 6.62633 13.2627 6.63461 13.2779C6.64289 13.293 6.64491 13.3108 6.64023 13.3274C6.63556 13.3441 6.62456 13.3582 6.60959 13.3668C6.35984 13.503 6.04591 13.6146 5.80973 13.6511C5.7827 13.6554 5.75572 13.6601 5.7288 13.665C5.56845 13.6937 5.30011 13.7418 4.95302 13.7418Z" fill="#670A39"/>
<path d="M73.9858 25.9293C73.6365 26.174 73.1794 26.4075 72.5845 26.6125C72.2615 26.7239 71.9811 26.7863 71.7332 26.7494C70.9268 27.0942 70.1253 27.1623 69.2834 27.0176L68.8206 26.9157L68.0893 26.4792L67.9083 26.2032H67.9076L66.886 25.4661C66.8241 25.4557 66.7626 25.4434 66.7015 25.4291C64.5249 24.9155 64.4149 21.9903 65.4045 20.4097C65.8376 19.7186 66.2911 18.6715 65.1802 17.5583C65.0134 17.3916 64.821 17.1611 64.6918 16.9142V16.9135C64.6807 16.8922 64.6701 16.8706 64.6598 16.8489C64.6577 16.844 64.6556 16.8397 64.6535 16.8354C64.5115 16.5268 64.4817 16.2018 64.733 15.9536C65.619 15.0817 67.951 15.6443 68.4273 17.718C68.624 18.5737 68.5417 19.1717 68.3784 19.6769C68.6048 19.4945 68.8334 19.2689 69.1564 18.9681C70.1332 18.0606 71.4429 17.7677 72.4297 18.0734C72.4304 18.0734 72.4304 18.0741 72.4311 18.0741C72.9394 18.2309 73.3618 18.5473 73.6095 19.0199C73.8573 19.4952 73.9822 20.2444 73.7742 20.6871C75.2373 20.8546 75.2302 22.3373 74.4458 23.2696C74.9037 23.344 75.0094 23.7435 75.0314 23.9741C75.084 24.4925 74.942 25.2553 73.9858 25.9293Z" fill="#DF5468"/>
<path d="M71.7919 19.2235C72.1058 18.6572 71.0967 18.5866 70.1602 19.1226C69.2232 19.6588 68.2701 20.5117 68.6582 21.058C69.5217 22.3121 69.1735 23.8612 68.6269 24.6607C68.5932 24.7101 68.6253 24.777 68.6849 24.7807C69.4131 24.8256 70.2849 25.1249 70.79 25.6412C72.3268 25.2761 72.8836 25.0713 73.8923 24.6846C73.4656 22.9809 71.7919 19.2235 71.7919 19.2235Z" fill="#AF4357"/>
<path d="M71.1616 25.0644C69.5431 25.1893 68.9914 23.6725 70.4418 23.0233C70.7449 22.887 71.0083 22.736 71.2482 22.5962C70.4971 22.8218 69.6147 22.8183 69.1419 22.2819C69.0968 21.986 69.0068 21.6986 68.875 21.4298C68.8123 21.3005 68.7396 21.1762 68.6578 21.0581C68.5925 20.9665 68.5655 20.8658 68.5698 20.7601C68.7011 20.6771 68.8388 20.5664 68.9794 20.4139C70.0762 19.2234 71.792 19.2234 71.792 19.2234C71.792 19.2234 73.4653 22.9807 73.8919 24.6849C72.8839 25.0716 72.3273 25.2758 70.7932 25.6405C70.8471 25.4426 70.9685 25.2432 71.1616 25.0644Z" fill="#AF4357"/>
<path d="M74.0339 23.7299C74.8283 22.7991 74.5777 20.2627 72.9137 21.7462C73.2523 21.3468 73.4397 20.8998 73.5058 20.4557H73.5051C73.508 20.426 73.5094 20.3969 73.5108 20.3685L73.8664 20.3458C73.919 19.9194 73.8019 19.3873 73.6094 19.0198C72.8818 17.6292 70.6371 17.5931 69.1563 18.968C68.8326 19.2688 68.604 19.4945 68.3789 19.6768C67.9117 20.0836 67.5296 20.13 67.7208 19.5129L67.7204 19.5127C68.7671 15.1545 63.6611 14.9195 64.6917 16.9134V16.9141C64.8208 17.161 65.0132 17.3916 65.18 17.5583C66.291 18.6715 65.8374 19.7186 65.4044 20.4096C64.4149 21.9903 64.5258 24.9148 66.7029 25.4284L66.7013 25.4292C67.4103 26.1659 68.1864 26.404 68.1864 26.404C69.4855 26.8325 70.4659 26.3125 70.035 25.8286C69.6427 25.3876 68.4791 24.9986 67.5117 25.1302C68.2537 24.5575 68.5493 23.5584 68.3279 22.7414C68.0833 21.8391 68.3167 20.9541 68.7523 20.2911C69.0271 19.8728 69.5994 19.4434 70.16 19.1228C71.0963 18.5864 72.1058 18.6574 71.7921 19.2235C71.2674 19.6009 70.0777 19.9422 69.6631 20.2515C68.0589 21.4439 69.0276 23.2634 71.2483 22.5963C71.0083 22.7361 70.745 22.8871 70.4419 23.0234C68.9915 23.6725 69.5432 25.1893 71.1617 25.0645C70.271 25.8891 70.9118 27.1682 72.5836 26.6126H72.5844C73.1813 26.4068 73.6393 26.172 73.9885 25.9258C75.1591 24.565 74.5173 23.5263 74.0339 23.7299Z" fill="#FF6D6D"/>
<path d="M63.7404 18.1895C63.7307 18.1895 63.7211 18.1874 63.7124 18.1834C63.7036 18.1793 63.6959 18.1733 63.6896 18.1659C63.6834 18.1585 63.6789 18.1499 63.6764 18.1406C63.6739 18.1312 63.6734 18.1215 63.6751 18.1119C63.8198 17.2897 63.1986 16.6656 61.8787 16.3069C61.8638 16.3029 61.8509 16.2938 61.842 16.2813C61.8331 16.2688 61.8289 16.2536 61.83 16.2383C61.8311 16.2229 61.8376 16.2085 61.8482 16.1974C61.8588 16.1863 61.8729 16.1792 61.8882 16.1774C62.8353 16.0645 63.4901 15.732 63.8345 15.1892C64.1647 14.6686 64.195 13.9611 63.9219 13.1431C63.9172 13.1289 63.9174 13.1135 63.9226 13.0994C63.9278 13.0853 63.9376 13.0734 63.9504 13.0656C63.9632 13.0579 63.9783 13.0547 63.9932 13.0566C64.008 13.0585 64.0218 13.0654 64.0323 13.0762C65.4419 14.5307 67.0905 14.2415 68.0991 13.3097C68.1107 13.2989 68.1259 13.2926 68.1417 13.292C68.1576 13.2915 68.1731 13.2966 68.1855 13.3065C68.1979 13.3165 68.2063 13.3305 68.2092 13.3461C68.212 13.3617 68.2092 13.3778 68.2012 13.3915C67.6836 14.2794 68.0283 14.8238 68.4086 15.1242C68.4154 15.1296 68.4211 15.1363 68.4253 15.1439C68.4295 15.1514 68.4322 15.1598 68.4332 15.1684C68.4342 15.177 68.4335 15.1858 68.4312 15.1941C68.4288 15.2025 68.4248 15.2103 68.4194 15.2171C68.414 15.2239 68.4074 15.2296 68.3998 15.2339C68.3922 15.2381 68.3838 15.2409 68.3752 15.2419C68.3665 15.2429 68.3578 15.2422 68.3494 15.2398C68.341 15.2374 68.3332 15.2334 68.3264 15.2279C67.8074 14.818 67.6761 14.2521 67.9426 13.6128C66.9257 14.3813 65.44 14.5582 64.1217 13.348C64.3236 14.1016 64.2641 14.7586 63.9461 15.2598C63.6173 15.7782 63.0307 16.1155 62.2003 16.2646C63.7032 16.7545 63.9094 17.5429 63.8053 18.1346C63.8027 18.15 63.7948 18.1639 63.7829 18.174C63.771 18.184 63.7559 18.1895 63.7404 18.1895Z" fill="#670A39"/>
<path d="M72.9134 21.7459C74.5779 20.2629 74.8284 22.799 74.0338 23.7298C74.5181 23.5263 75.1603 24.5673 73.9852 25.9289C74.942 25.2554 75.0836 24.4928 75.0314 23.9739C75.009 23.7436 74.9037 23.3441 74.4455 23.2693C75.23 22.3375 75.2374 20.8541 73.7744 20.6869C73.9817 20.2444 73.8573 19.4951 73.6091 19.02C73.3616 18.5473 72.9389 18.2308 72.4312 18.0739C73.5146 18.6449 74.0159 20.4494 72.9134 21.7459Z" fill="#AF4357"/>
<path d="M70.3481 22.8134C69.6003 22.8134 69.1259 22.4603 68.9246 22.0846C68.5634 21.4102 69.0153 20.651 69.6234 20.1977C69.8292 20.0443 70.2097 19.8876 70.6125 19.7217C71.0424 19.5446 71.4871 19.3616 71.7531 19.1699C71.7674 19.1596 71.7851 19.1554 71.8024 19.1582C71.8198 19.1611 71.8353 19.1706 71.8455 19.1849C71.8558 19.1991 71.86 19.2168 71.8571 19.2341C71.8543 19.2515 71.8448 19.2669 71.8305 19.2772C71.5518 19.4779 71.0999 19.6641 70.6628 19.844C70.268 20.0066 69.895 20.1602 69.7025 20.3037C69.1399 20.7232 68.7172 21.4171 69.0413 22.0221C69.2843 22.4757 69.9747 22.8902 71.121 22.5647C72.3653 22.2115 73.2865 21.5344 73.7148 20.6582C73.7186 20.6504 73.7239 20.6435 73.7304 20.6377C73.7369 20.632 73.7445 20.6275 73.7527 20.6247C73.7609 20.6219 73.7696 20.6207 73.7783 20.6213C73.7869 20.6218 73.7954 20.624 73.8032 20.6278C73.811 20.6316 73.818 20.6369 73.8238 20.6435C73.8295 20.65 73.8339 20.6575 73.8367 20.6657C73.8396 20.6739 73.8407 20.6826 73.8402 20.6913C73.8397 20.7 73.8374 20.7084 73.8336 20.7162C73.3886 21.6267 72.4381 22.3283 71.157 22.6919C70.8591 22.7766 70.5893 22.8134 70.3481 22.8134Z" fill="#670A39"/>
<path d="M70.9409 25.1363C70.3426 25.1363 69.7764 24.9208 69.5811 24.3126C69.4148 23.7942 69.7418 23.2643 70.4144 22.9627C70.7379 22.8176 71.0351 22.6664 71.2981 22.5134C71.3056 22.5088 71.3139 22.5057 71.3226 22.5044C71.3314 22.5031 71.3402 22.5035 71.3488 22.5056C71.3573 22.5078 71.3654 22.5116 71.3724 22.5169C71.3795 22.5222 71.3854 22.5289 71.3898 22.5365C71.3942 22.5441 71.3971 22.5525 71.3982 22.5613C71.3994 22.57 71.3987 22.5789 71.3964 22.5874C71.3941 22.5959 71.39 22.6038 71.3846 22.6107C71.3791 22.6176 71.3723 22.6234 71.3646 22.6276C71.0977 22.783 70.7962 22.9363 70.4685 23.0833C69.8523 23.3598 69.5604 23.8153 69.7071 24.2722C69.7815 24.504 70.1316 25.2372 71.5137 24.9408C73.1322 24.5938 73.9031 23.843 74.3939 23.2278C74.3993 23.221 74.406 23.2153 74.4136 23.2111C74.4212 23.2069 74.4295 23.2042 74.4382 23.2033C74.4468 23.2023 74.4555 23.203 74.4639 23.2054C74.4722 23.2078 74.48 23.2118 74.4868 23.2172C74.4936 23.2227 74.4993 23.2293 74.5035 23.2369C74.5077 23.2445 74.5104 23.2529 74.5114 23.2615C74.5123 23.2702 74.5116 23.2789 74.5092 23.2872C74.5068 23.2956 74.5028 23.3034 74.4974 23.3102C73.9929 23.9427 73.201 24.7143 71.5414 25.0701C71.3463 25.1119 71.1417 25.1362 70.9409 25.1363Z" fill="#670A39"/>
<path d="M71.8234 26.8186C71.5544 26.8187 71.316 26.7585 71.1224 26.6385C70.8849 26.4913 70.7344 26.2575 70.6986 25.9804C70.6558 25.6498 70.812 25.2963 71.1269 25.0105C71.1334 25.0045 71.1409 24.9999 71.1491 24.9969C71.1573 24.9938 71.1661 24.9925 71.1748 24.9928C71.1836 24.9932 71.1921 24.9953 71.2001 24.999C71.208 25.0027 71.2151 25.0079 71.221 25.0144C71.2269 25.0209 71.2314 25.0285 71.2344 25.0367C71.2373 25.045 71.2386 25.0537 71.2381 25.0625C71.2376 25.0712 71.2354 25.0798 71.2316 25.0876C71.2278 25.0955 71.2225 25.1026 71.216 25.1084C70.9335 25.3646 70.7928 25.6763 70.83 25.9634C70.8611 26.2038 70.9863 26.3984 71.1923 26.5261C71.5191 26.7288 72.0184 26.7374 72.5622 26.55C72.5705 26.5469 72.5793 26.5455 72.5881 26.5458C72.597 26.5462 72.6056 26.5483 72.6136 26.5521C72.6216 26.5558 72.6288 26.5612 72.6347 26.5677C72.6406 26.5743 72.6451 26.582 72.648 26.5903C72.6509 26.5987 72.6521 26.6075 72.6515 26.6164C72.6509 26.6252 72.6485 26.6338 72.6446 26.6417C72.6406 26.6495 72.6351 26.6566 72.6283 26.6623C72.6216 26.668 72.6138 26.6723 72.6054 26.675C72.3272 26.7709 72.0632 26.8186 71.8234 26.8186Z" fill="#670A39"/>
<path d="M70.0377 27.1817C69.629 27.1817 69.2254 27.1172 68.8284 26.9881C68.5342 26.8925 68.0887 26.646 67.8016 26.2659C67.791 26.2519 67.7864 26.2343 67.7888 26.2169C67.7913 26.1995 67.8005 26.1838 67.8145 26.1733C67.8285 26.1627 67.8461 26.1581 67.8635 26.1605C67.8809 26.163 67.8966 26.1722 67.9072 26.1862C68.1759 26.5417 68.5935 26.7726 68.8694 26.8624C69.7854 27.1602 70.7402 27.1017 71.7073 26.6885C71.7186 26.6839 71.7309 26.6823 71.7429 26.684C71.9509 26.7143 72.2038 26.673 72.5631 26.5499C73.523 26.2192 75.1118 25.4455 74.9664 23.9805C74.9409 23.7211 74.8279 23.3987 74.4352 23.3348C74.4237 23.3329 74.4128 23.328 74.4038 23.3206C74.3947 23.3131 74.3878 23.3035 74.3838 23.2925C74.3797 23.2815 74.3786 23.2697 74.3806 23.2582C74.3826 23.2466 74.3876 23.2359 74.3952 23.2269C74.854 22.6816 75.0244 21.9693 74.8194 21.4547C74.6607 21.0561 74.2966 20.8134 73.7667 20.7527C73.7563 20.7515 73.7463 20.7479 73.7375 20.742C73.7288 20.7362 73.7215 20.7284 73.7164 20.7193C73.7113 20.7101 73.7084 20.6999 73.708 20.6894C73.7077 20.6789 73.7098 20.6684 73.7143 20.6589C73.7572 20.5673 73.7863 20.4593 73.8008 20.3379C73.8491 19.9456 73.7487 19.4283 73.5509 19.0504C73.2769 18.5268 72.7614 18.1758 72.0992 18.0621C71.1257 17.8948 70.0154 18.2608 69.2014 19.0165C69.116 19.0958 69.0372 19.1699 68.9634 19.2394C68.7537 19.4366 68.5882 19.5924 68.4206 19.7282C68.4096 19.7372 68.3959 19.7424 68.3817 19.7431C68.3674 19.7437 68.3533 19.7397 68.3415 19.7317C68.3297 19.7237 68.3209 19.712 68.3162 19.6986C68.3116 19.6851 68.3115 19.6704 68.3159 19.6569C68.3255 19.6266 68.3343 19.5988 68.3424 19.5709C68.5143 18.9868 68.5205 18.4199 68.3627 17.7327C68.1367 16.7478 67.4406 15.9962 66.5005 15.7222C65.8162 15.5226 65.1567 15.6294 64.7793 16.0007C64.6668 16.1118 64.6118 16.2419 64.6112 16.3985C64.6096 16.8578 65.0821 17.3666 65.2269 17.5116C66.3667 18.6537 65.9061 19.7325 65.4605 20.4448C64.8092 21.485 64.6827 23.0067 65.1598 24.0634C65.4951 24.8061 66.0955 25.2686 66.8961 25.4009C66.9321 25.4068 66.9566 25.4408 66.9505 25.4769C66.9492 25.4855 66.9461 25.4937 66.9415 25.5011C66.9369 25.5085 66.9309 25.5149 66.9239 25.52C66.9168 25.5251 66.9088 25.5287 66.9003 25.5306C66.8918 25.5325 66.883 25.5328 66.8744 25.5313C66.0281 25.3916 65.3935 24.9028 65.0391 24.1178C64.5451 23.0237 64.6752 21.4495 65.3483 20.3746C66.2287 18.9675 65.6472 18.12 65.1332 17.605C64.9359 17.4075 64.4771 16.8944 64.4788 16.398C64.4795 16.2072 64.5493 16.0418 64.6864 15.9065C65.0979 15.5015 65.8072 15.3822 66.5375 15.5952C67.5243 15.8829 68.2549 16.6709 68.4916 17.7032C68.6415 18.3557 68.6457 18.9254 68.5033 19.4842C68.6156 19.3849 68.7344 19.2731 68.8725 19.1431C68.9518 19.0684 69.0313 18.9939 69.1111 18.9197C69.9547 18.1364 71.1083 17.7581 72.1214 17.9318C72.8252 18.0527 73.3744 18.4282 73.668 18.9891C73.8772 19.3889 73.9833 19.9373 73.932 20.3539C73.92 20.455 73.8985 20.5485 73.8679 20.633C74.54 20.7365 74.8231 21.1069 74.9422 21.4059C75.1542 21.9382 75.0015 22.6587 74.5635 23.2286C74.9741 23.3501 75.0751 23.7365 75.0978 23.9677C75.2522 25.523 73.6027 26.3316 72.6058 26.6751C72.2306 26.8038 71.9707 26.8467 71.7422 26.8175C71.1687 27.0601 70.5986 27.1817 70.0377 27.1817ZM27.3471 44.7364C27.1811 44.7364 27.0144 44.7075 26.8524 44.6493C26.4685 44.5113 26.1684 44.229 26.0074 43.8543L23.5229 38.0764C23.2837 37.5192 22.8125 37.1032 22.2303 36.9353C20.4417 36.4166 18.6187 35.8885 16.7446 35.3456L15.7934 35.0703C15.0727 34.8618 14.5085 34.3939 14.2046 33.7529C13.9008 33.1121 13.8959 32.3795 14.1908 31.6902L21.8423 13.7961C22.5068 12.2423 24.3764 11.3331 26.0101 11.7697L35.76 14.3772C42.2301 16.1077 49.6002 18.0788 53.8329 19.211C54.6441 19.4279 55.2914 19.9402 55.6557 20.6535C56.0198 21.3664 56.0552 22.1902 55.7554 22.9733L55.7037 23.1087C55.682 23.1653 55.66 23.2226 55.6381 23.2807L52.9842 30.2138C51.4583 34.2002 49.8209 38.4776 48.7622 41.2432C48.1205 42.9194 46.1952 43.8765 44.4704 43.3771L39.9933 42.08C38.4131 41.6223 37.034 41.2228 36.2144 40.9851C35.7186 40.8416 35.1919 40.8925 34.7313 41.1284L28.0096 44.5747C27.8 44.6822 27.5743 44.7364 27.3471 44.7364ZM25.1627 11.7921C23.826 11.7921 22.4952 12.6061 21.9641 13.848L14.3126 31.7421C14.0328 32.3962 14.037 33.0902 14.3243 33.6964C14.6117 34.3025 15.1466 34.7454 15.8303 34.9433L16.7815 35.2186C18.6556 35.7615 20.4786 36.2895 22.2671 36.8082C22.8875 36.9872 23.3896 37.4305 23.6445 38.0242L26.129 43.8021C26.2754 44.1427 26.5482 44.3993 26.8972 44.5249C27.246 44.6502 27.6195 44.6262 27.9491 44.457L34.6708 41.0107C35.1616 40.7593 35.7228 40.7053 36.2511 40.8581C37.0708 41.0958 38.4498 41.4953 40.03 41.953L44.5072 43.2501C46.1674 43.7311 48.0207 42.8095 48.6384 41.1959C49.6972 38.4304 51.3345 34.153 52.8605 30.1665L55.5144 23.2336C55.5363 23.1756 55.5584 23.1182 55.5801 23.0614L55.6318 22.9262L55.6319 22.926C55.9181 22.1784 55.8847 21.3926 55.5379 20.7136C55.1909 20.0342 54.5733 19.5458 53.7988 19.3387C49.5661 18.2065 42.196 16.2354 35.7259 14.505L25.976 11.8974C25.7106 11.827 25.4372 11.7916 25.1627 11.7921Z" fill="#670A39"/>
</g>
<defs>
<clipPath id="clip0_13_3">
<rect width="75.1074" height="48" fill="white"/>
</clipPath>
</defs>
</svg>
