<svg width="18" height="18" viewBox="0 0 18 18" fill="none" xmlns="http://www.w3.org/2000/svg">
<path d="M0.565913 9.14766C-0.228618 9.60117 -0.15479 10.8105 0.692476 11.1621L5.6249 13.2188V16.8504C5.6249 17.4867 6.13818 18 6.77451 18C7.11552 18 7.43896 17.8488 7.65693 17.5852L9.83662 14.973L14.1925 16.7871C14.8569 17.0648 15.6269 16.6289 15.7358 15.9187L17.9858 1.29375C18.0526 0.86836 17.8663 0.439454 17.5112 0.196876C17.1561 -0.0457022 16.6921 -0.066796 16.3159 0.147657L0.565913 9.14766ZM2.39755 10.0441L14.4034 3.18516L6.6831 11.8125L6.72529 11.8477L2.39755 10.0441ZM14.1784 14.9555L8.32138 12.5121L15.8483 4.09922L14.1784 14.9555Z" fill="#454545"/>
</svg>
